<svg width="96" height="96" viewBox="0 0 96 96" fill="none" xmlns="http://www.w3.org/2000/svg">
<path d="M0 16C0 7.16345 7.16344 0 16 0H80C88.8366 0 96 7.16344 96 16V80C96 88.8366 88.8366 96 80 96H16C7.16345 96 0 88.8366 0 80V16Z" fill="#FCF0E8"/>
<g clip-path="url(#clip0_2132_21)">
<path d="M20 27.3684C20 23.299 23.299 20 27.3684 20C31.4379 20 34.7368 23.299 34.7368 27.3684C34.7368 29.5202 33.8145 31.4566 32.3435 32.8038C30.9108 34.1159 29.5294 35.7415 29.5294 37.6842C29.5294 39.627 30.9108 41.2526 32.3435 42.5647C33.8145 43.9118 34.7368 45.8482 34.7368 48C34.7368 50.1519 33.8145 52.0883 32.3435 53.4352C30.9108 54.7474 29.5294 56.3729 29.5294 58.3158C29.5294 60.2587 30.9107 61.8842 32.3435 63.1963C32.7342 63.5541 33.0862 63.9535 33.3925 64.3874C34.4263 65.8519 35.8914 67.203 37.6842 67.203C39.477 67.203 40.9422 65.8519 41.976 64.3874C43.31 62.4975 45.5109 61.2632 48 61.2632C50.4891 61.2632 52.6901 62.4975 54.0241 64.3874C55.0578 65.8519 56.5229 67.203 58.3158 67.203C60.1087 67.203 61.5738 65.8519 62.6075 64.3874C63.9414 62.4975 66.1422 61.2632 68.6316 61.2632C72.701 61.2632 76 64.5621 76 68.6316C76 72.701 72.701 76 68.6316 76C66.9109 76 65.3282 75.4102 64.0741 74.422C62.364 73.0741 60.4933 71.624 58.3158 71.624C56.1383 71.624 54.2676 73.0741 52.5572 74.422C51.3034 75.4102 49.7207 76 48 76C46.2795 76 44.6967 75.4102 43.4427 74.422C41.7325 73.0741 39.8616 71.624 37.6842 71.624C35.5068 71.624 33.6359 73.0741 31.9257 74.422C30.6717 75.4102 29.0889 76 27.3684 76C23.299 76 20 72.701 20 68.6316C20 66.5283 20.8812 64.6308 22.2946 63.2883C23.7207 61.9337 25.1083 60.2829 25.1083 58.3158C25.1083 56.3487 23.7207 54.6979 22.2946 53.3433C20.8812 52.0008 20 50.1032 20 48C20 45.8968 20.8812 43.9994 22.2946 42.6568C23.7207 41.3022 25.1083 39.6511 25.1083 37.6842C25.1083 35.7173 23.7207 34.0663 22.2946 32.7116C20.8812 31.3691 20 29.4717 20 27.3684Z" fill="#7DCE96"/>
<path fill-rule="evenodd" clip-rule="evenodd" d="M40.6313 27.3684C40.6313 23.299 43.9303 20 47.9998 20C50.202 20 52.1785 20.9662 53.529 22.4977C54.7976 23.9367 56.3971 25.312 58.3156 25.312C60.2337 25.312 61.8335 23.9367 63.1021 22.4977C64.4523 20.9662 66.4291 20 68.6313 20C72.7008 20 75.9998 23.299 75.9998 27.3684C75.9998 29.5607 75.0422 31.5294 73.5228 32.8792C72.0851 34.1563 70.7084 35.7611 70.7084 37.6842C70.7084 39.6073 72.0851 41.2121 73.5228 42.4892C75.0422 43.839 75.9998 45.8077 75.9998 48C75.9998 52.0694 72.7008 55.3684 68.6313 55.3684C66.7341 55.3684 65.0043 54.6513 63.6983 53.4736C62.1566 52.0833 60.3917 50.665 58.3156 50.665C56.2394 50.665 54.4743 52.0833 52.9325 53.4736C51.6265 54.6513 49.897 55.3684 47.9998 55.3684C43.9303 55.3684 40.6313 52.0694 40.6313 48C40.6313 45.9584 41.4617 44.1107 42.8031 42.7762C44.2199 41.3667 45.6161 39.6827 45.6161 37.6842C45.6161 35.6857 44.2199 34.0017 42.8031 32.5922C41.4617 31.2578 40.6313 29.4101 40.6313 27.3684ZM63.3886 32.5461C61.9877 31.1278 60.3089 29.7331 58.3156 29.7331C56.322 29.7331 54.6431 31.1278 53.2425 32.5461C53.1167 32.6735 52.9861 32.7963 52.8514 32.9143C51.4113 34.1751 50.037 35.7702 50.037 37.6842C50.037 39.5982 51.4113 41.1933 52.8514 42.4541C53.1895 42.7502 53.5004 43.0767 53.7796 43.4293C54.9305 44.8827 56.4617 46.2438 58.3156 46.2438C60.1695 46.2438 61.7006 44.8827 62.8516 43.4293C63.0443 43.1856 63.2524 42.9544 63.474 42.7371C64.8941 41.3455 66.2873 39.6724 66.2873 37.6842C66.2873 35.6961 64.8941 34.0229 63.474 32.6313C63.4455 32.6031 63.4169 32.5747 63.3886 32.5461Z" fill="#8141DC"/>
</g>
<defs>
<clipPath id="clip0_2132_21">
<rect width="56" height="56" fill="white" transform="translate(20 20)"/>
</clipPath>
</defs>
</svg>
