<svg width="249" height="250" viewBox="0 0 249 250" fill="none" xmlns="http://www.w3.org/2000/svg">
<g clip-path="url(#clip0_2141_164)">
<path d="M203.065 213.953C200.616 215.898 198.096 217.723 195.528 219.452C193.271 220.989 190.967 222.478 188.615 223.847C183.598 226.777 178.39 229.323 173.037 231.46C164.372 234.942 155.323 237.392 146.106 238.809C141.977 239.433 137.825 239.866 133.672 240.058C129.88 240.226 126.063 240.226 122.223 240.058C118.358 239.866 114.494 239.505 110.629 238.929C104.845 238.088 99.084 236.792 93.3953 235.062C83.9141 232.181 74.649 228.098 65.7919 222.695C60.4873 219.476 55.5187 215.898 50.8861 212.008C47.8137 209.414 44.8854 206.7 42.125 203.866C39.3647 201.033 36.7484 198.079 34.3241 195.005C19.6823 176.633 10.8732 154.467 8.66496 131.484C8.47294 129.563 8.35292 127.642 8.25691 125.72C8.06489 121.878 8.06489 118.012 8.25691 114.145C8.35292 112.2 8.49694 110.279 8.68896 108.333C8.90499 106.124 9.19302 103.89 9.55307 101.681C10.1051 98.1028 10.8012 94.5485 11.6893 90.9942C14.5457 79.5389 19.1542 68.2997 25.611 57.6849C27.6273 54.3468 29.8115 51.1768 32.0918 48.1028C26.6672 53.9385 21.7466 60.4227 17.45 67.5072C-16.9462 124.183 1.05603 198.055 57.6789 232.517C110.989 264.938 179.518 250.889 216.098 201.873C212.018 206.268 207.673 210.303 203.065 213.977V213.953Z" fill="#2A2421"/>
<path d="M247.662 108.694C247.302 104.851 246.75 101.057 246.006 97.2862C243.821 85.975 240.005 74.976 234.676 64.6974C232.012 59.5581 228.964 54.5869 225.555 49.8319C224.427 48.2469 223.227 46.6859 222.003 45.1729C219.554 42.1229 216.962 39.145 214.202 36.3112C207.289 29.2267 199.392 22.8626 190.535 17.4832C137.224 -14.9376 68.6961 -0.888589 32.1156 48.1268C29.8354 51.1767 27.6511 54.3708 25.6349 57.7089C19.1781 68.3237 14.5695 79.5629 11.7132 91.0182C10.825 94.5485 10.129 98.1268 9.57689 101.705C9.24085 103.914 8.92882 106.124 8.71279 108.357C8.52077 110.279 8.37675 112.224 8.28074 114.169C8.08871 118.036 8.08871 121.902 8.28074 125.744C8.37675 127.666 8.52077 129.587 8.68879 131.508C10.8971 154.491 19.6821 176.657 34.3479 195.029C36.7962 198.079 39.3885 201.057 42.1489 203.89C44.9092 206.724 47.8376 209.438 50.9099 212.032C55.5185 215.898 60.5111 219.476 65.8158 222.719C74.6728 228.098 83.938 232.205 93.4191 235.086C99.1078 236.816 104.869 238.088 110.653 238.953C114.518 239.529 118.382 239.889 122.247 240.082C126.063 240.274 129.88 240.274 133.696 240.082C137.873 239.889 142.025 239.457 146.13 238.833C155.347 237.44 164.396 234.99 173.061 231.484C178.413 229.323 183.622 226.777 188.639 223.871C190.991 222.502 193.295 221.013 195.552 219.476C198.12 217.747 200.64 215.922 203.088 213.977C207.673 210.303 212.042 206.268 216.122 201.873C217.466 200.408 218.786 198.919 220.083 197.382C221.739 195.413 223.323 193.348 224.859 191.234C226.923 188.425 228.916 185.519 230.764 182.469C244.758 159.438 250.086 133.597 247.686 108.694H247.662ZM238.517 148.967C238.373 149.52 238.181 150.048 238.037 150.6C237.581 152.209 237.101 153.818 236.597 155.427C236.405 156.004 236.213 156.58 236.021 157.157C235.276 159.294 234.508 161.407 233.644 163.521C233.596 163.641 233.548 163.761 233.5 163.857C232.876 165.37 232.204 166.859 231.508 168.324C231.388 168.588 231.268 168.876 231.148 169.14C230.476 170.533 229.756 171.926 229.036 173.295C228.868 173.631 228.7 173.967 228.532 174.304C227.619 176.009 226.659 177.69 225.651 179.347C224.643 181.004 223.587 182.637 222.507 184.246C222.315 184.534 222.099 184.822 221.907 185.11C220.995 186.407 220.083 187.704 219.146 188.953C218.978 189.169 218.786 189.385 218.618 189.625C217.61 190.946 216.602 192.243 215.546 193.492C215.474 193.564 215.402 193.636 215.33 193.732C202.176 209.366 185.158 221.109 165.74 227.834C165.668 227.834 165.62 227.882 165.548 227.882C163.892 228.458 162.236 228.987 160.555 229.491C158.923 229.971 157.291 230.403 155.635 230.812C155.491 230.836 155.371 230.884 155.227 230.932C153.21 231.412 151.194 231.844 149.154 232.229C148.362 232.373 147.594 232.493 146.802 232.637C145.577 232.829 144.377 233.021 143.153 233.189C142.145 233.333 141.137 233.453 140.129 233.549C139.193 233.646 138.257 233.718 137.32 233.814C136.144 233.91 134.944 234.006 133.768 234.078C133.36 234.078 132.952 234.078 132.52 234.126C131.032 234.174 129.52 234.27 128.031 234.27C126.951 234.27 125.895 234.198 124.839 234.15C123.903 234.126 122.967 234.102 122.031 234.054C120.71 233.982 119.39 233.886 118.094 233.766C117.23 233.694 116.39 233.597 115.55 233.501C113.006 233.213 110.485 232.853 107.989 232.397C107.365 232.277 106.741 232.205 106.117 232.06C104.941 231.82 103.764 231.532 102.588 231.268C101.532 231.028 100.5 230.764 99.4439 230.499C98.3637 230.211 97.2596 229.923 96.1795 229.611C94.8113 229.203 93.4671 228.77 92.123 228.314C91.3069 228.026 90.4668 227.786 89.6507 227.474C87.6824 226.753 85.7142 225.985 83.7699 225.144C83.0499 224.832 82.3538 224.52 81.6337 224.183C80.1215 223.511 78.6093 222.791 77.1211 222.022C76.4731 221.71 75.825 221.374 75.2009 221.037C73.1126 219.933 71.0724 218.804 69.0321 217.579C15.2416 184.894 -1.89651 114.577 30.7715 60.8309C31.0835 60.3266 31.4196 59.8223 31.7556 59.3179C32.4517 58.1892 33.1718 57.0605 33.8919 55.9798C34.2279 55.4755 34.6119 54.9712 34.972 54.4668C35.7161 53.3861 36.4842 52.3055 37.2763 51.2728C37.5403 50.9126 37.8283 50.5763 38.1164 50.2161C39.0285 49.0394 39.9406 47.8866 40.8767 46.7339C41.0207 46.5418 41.1887 46.3737 41.3568 46.2055C42.4609 44.9087 43.565 43.6359 44.7172 42.4111C54.6064 31.7243 66.4158 23.1028 79.5934 16.9308C83.1939 15.2497 86.8903 13.7368 90.6828 12.4159C90.9228 12.3439 91.1388 12.2718 91.3789 12.1998C92.8671 11.6955 94.3552 11.2152 95.8674 10.7589C97.6196 10.2305 99.4198 9.75022 101.22 9.31794C103.02 8.88566 104.821 8.4774 106.621 8.14119C108.061 7.853 109.501 7.63687 110.941 7.42073C111.301 7.3727 111.637 7.30065 111.997 7.25262C132.232 4.29873 152.634 6.84436 171.429 14.6013C171.621 14.6734 171.813 14.7454 171.981 14.8175C173.397 15.4178 174.813 16.0422 176.205 16.7147C176.565 16.8828 176.901 17.0269 177.261 17.195C178.533 17.8194 179.806 18.4678 181.078 19.1402C181.534 19.3804 181.99 19.5965 182.422 19.8367C183.886 20.6292 185.326 21.4697 186.766 22.3343C186.983 22.4784 187.223 22.5744 187.439 22.7185C187.631 22.8386 187.823 22.9827 188.039 23.1028C189.479 23.9913 190.919 24.9039 192.311 25.8645C192.695 26.1287 193.055 26.4169 193.439 26.6811C194.639 27.5216 195.84 28.3621 197.016 29.2507C197.28 29.4668 197.544 29.683 197.832 29.8991C199.104 30.8597 200.352 31.8444 201.552 32.877C201.672 32.9731 201.768 33.0691 201.888 33.1652C218.858 47.4784 231.196 66.3304 237.557 87.8962C237.941 89.2411 238.301 90.586 238.637 91.9308C238.757 92.3631 238.877 92.7954 238.997 93.2276C239.117 93.708 239.189 94.1642 239.309 94.6446C239.621 95.9654 239.909 97.2862 240.173 98.6071C243.461 115.562 242.885 132.757 238.565 149.111L238.517 148.967Z" fill="#7DCE96"/>
<path d="M237.773 106.652C237.245 102.401 236.501 98.1507 235.469 93.924C228.484 65.2497 210.746 41.0182 185.567 25.6963C168.068 15.0335 148.386 9.58203 128.416 9.58203C125.991 9.58203 123.567 9.67809 121.143 9.8462C114.782 10.2785 108.397 11.2391 102.06 12.7761C73.4008 19.7645 49.1819 37.5119 33.868 62.704C2.23215 114.745 18.8422 182.853 70.8565 214.481C96.0596 229.803 125.727 234.414 154.363 227.401C183.022 220.413 207.241 202.666 222.555 177.473C235.613 155.98 240.845 131.244 237.797 106.652H237.773ZM178.342 157.156L144.425 212.968C143.369 214.697 141.137 215.226 139.433 214.193L39.5327 153.41C37.8045 152.353 37.2764 150.12 38.3086 148.415L46.8776 134.318C49.0619 130.74 58.9271 121.494 71.5046 129.131C72.1527 129.611 89.6268 140.154 90.3229 140.586C90.4429 140.658 90.5629 140.706 90.6589 140.778C93.4193 142.411 96.0596 143.54 98.6039 144.164C100.5 144.644 102.372 144.837 104.173 144.741C104.845 144.692 105.517 144.596 106.189 144.476C108.421 144.092 110.677 143.348 112.958 142.243C114.446 141.522 115.958 140.658 117.47 139.649L117.614 139.553C120.927 137.296 124.671 134.174 128.872 130.187C130.384 128.77 131.92 127.257 133.528 125.6C139.889 119.26 144.762 115.37 148.17 113.905C151.53 112.272 154.603 112.296 157.747 114.193C160.868 116.09 162.308 119.092 162.02 123.175C161.636 127.185 159.763 131.988 156.355 137.584C153.955 141.522 151.098 144.548 147.762 146.662C146.706 147.334 145.602 147.911 144.45 148.415C139.553 150.384 134.248 150.288 128.512 148.055C127.047 150.72 126.135 153.122 125.799 155.283C125.079 159.678 126.663 163.064 130.576 165.442C131.512 166.018 132.472 166.498 133.456 166.907C138.401 168.948 143.681 168.78 149.298 166.402C149.874 166.162 150.402 165.922 151.074 165.586C156.499 162.872 161.012 158.525 164.204 154.755C167.396 150.985 172.965 149.592 177.165 152.161C178.894 153.218 179.422 155.451 178.39 157.156H178.342ZM218.066 91.7866L209.497 105.884C207.313 109.462 197.448 118.708 184.87 111.071C184.222 110.591 166.748 100.048 166.052 99.6156C165.932 99.5436 165.812 99.4956 165.716 99.4235C162.956 97.7905 160.315 96.6618 157.771 96.0374C155.875 95.5571 154.003 95.3649 152.202 95.461C151.53 95.509 150.858 95.6051 150.186 95.7252C147.954 96.1094 145.698 96.8539 143.417 97.9586C141.929 98.679 140.417 99.5436 138.905 100.552L138.761 100.648C135.448 102.906 131.704 106.028 127.503 110.014C125.991 111.431 124.455 112.944 122.847 114.601C116.486 120.941 111.614 124.832 108.205 126.297C104.845 127.93 101.772 127.906 98.6519 126.009C95.5315 124.111 94.0914 121.109 94.3794 117.027C94.7634 113.016 96.6357 108.213 100.044 102.618C102.444 98.679 105.301 95.6531 108.637 93.5398C109.693 92.8673 110.797 92.291 111.95 91.7866C116.846 89.8174 122.151 89.9134 127.887 92.1469C129.352 89.4812 130.264 87.0796 130.6 84.9182C131.32 80.5234 129.736 77.1373 125.823 74.7597C124.887 74.1834 123.927 73.7031 122.943 73.2948C117.998 71.2535 112.718 71.4216 107.101 73.7991C106.525 74.0393 105.997 74.2794 105.325 74.6157C99.9001 77.3294 95.3875 81.6762 92.1951 85.4466C89.0027 89.217 83.4341 90.6099 79.2335 88.0402C77.5053 86.9836 76.9773 84.7501 78.0094 83.0451L111.926 27.2333C112.982 25.5042 115.214 24.9759 116.918 26.0085L216.842 86.7914C218.571 87.8481 219.099 90.0816 218.066 91.7866Z" fill="#7DCE96"/>
<path d="M177.118 152.137C172.893 149.568 167.348 150.961 164.156 154.731C160.964 158.501 156.451 162.872 151.026 165.562C150.354 165.898 149.826 166.114 149.25 166.378C143.61 168.756 138.329 168.924 133.408 166.883C132.424 166.474 131.464 165.994 130.528 165.418C126.639 163.04 125.055 159.654 125.751 155.259C126.111 153.098 127 150.672 128.464 148.031C134.2 150.24 139.505 150.36 144.402 148.391C145.554 147.887 146.658 147.31 147.714 146.638C151.05 144.524 153.931 141.499 156.307 137.56C159.692 131.964 161.588 127.161 161.972 123.151C162.236 119.068 160.82 116.066 157.699 114.169C154.579 112.272 151.507 112.248 148.122 113.881C144.714 115.346 139.841 119.26 133.48 125.576C131.872 127.209 130.312 128.746 128.824 130.163C124.623 134.15 120.879 137.248 117.566 139.529L117.422 139.625C115.91 140.658 114.398 141.523 112.91 142.219C110.63 143.324 108.373 144.068 106.141 144.452C105.469 144.572 104.797 144.669 104.125 144.717C102.325 144.813 100.476 144.596 98.5561 144.14C96.0118 143.516 93.3714 142.387 90.6111 140.754C90.4911 140.682 90.3951 140.634 90.2751 140.562C89.579 140.13 72.1048 129.587 71.4568 129.107C58.9032 121.47 49.014 130.716 46.8298 134.294L38.2607 148.391C37.2046 150.12 37.7567 152.353 39.4849 153.386L139.385 214.169C141.089 215.202 143.346 214.673 144.378 212.944L178.294 157.133C179.326 155.427 178.798 153.17 177.07 152.137H177.118Z" fill="#FCF0E8"/>
<path d="M216.842 86.7675L116.942 26.0086C115.238 24.976 112.982 25.5043 111.949 27.2334L78.0333 83.0451C77.0011 84.7502 77.5292 87.0077 79.2574 88.0403C83.4819 90.61 89.0266 89.2171 92.219 85.4467C95.4114 81.6763 99.9239 77.3055 105.349 74.6157C106.021 74.2795 106.549 74.0634 107.125 73.7992C112.765 71.4217 118.046 71.2536 122.967 73.2949C123.951 73.7031 124.911 74.1835 125.847 74.7598C129.736 77.1373 131.32 80.5235 130.624 84.9183C130.264 87.0797 129.376 89.5053 127.911 92.1469C122.175 89.9375 116.87 89.8175 111.973 91.7867C110.821 92.291 109.717 92.8674 108.661 93.5398C105.325 95.6532 102.444 98.6791 100.068 102.618C96.6835 108.213 94.7873 113.016 94.4033 117.027C94.1392 121.109 95.5554 124.111 98.6758 126.009C101.796 127.906 104.869 127.93 108.229 126.297C111.637 124.832 116.51 120.917 122.871 114.601C124.479 112.968 126.039 111.431 127.527 110.014C131.728 106.028 135.472 102.93 138.785 100.648L138.929 100.552C140.441 99.5197 141.953 98.6551 143.441 97.9587C145.722 96.854 147.978 96.1095 150.21 95.7252C150.882 95.6052 151.554 95.5091 152.226 95.4611C154.027 95.365 155.875 95.5812 157.795 96.0374C160.339 96.6618 162.98 97.7906 165.74 99.4236C165.86 99.4957 165.956 99.5437 166.076 99.6157C166.772 100.048 184.246 110.591 184.894 111.071C197.448 118.708 207.337 109.462 209.521 105.884L218.09 91.7867C219.122 90.0576 218.594 87.8242 216.866 86.7915L216.842 86.7675Z" fill="#FCF0E8"/>
<path d="M239.261 94.5004C239.141 94.02 239.069 93.5397 238.949 93.0834C238.853 92.6512 238.709 92.2189 238.589 91.7866C238.253 90.4418 237.893 89.0969 237.509 87.752C231.172 66.2103 218.811 47.3342 201.841 33.021C201.721 32.9249 201.625 32.8289 201.505 32.7328C200.28 31.7242 199.032 30.7395 197.784 29.7549C197.52 29.5388 197.256 29.3226 196.968 29.1065C195.792 28.2179 194.592 27.3774 193.392 26.5369C193.008 26.2727 192.648 25.9845 192.263 25.7203C190.871 24.7837 189.431 23.8712 187.991 22.9586C187.799 22.8385 187.607 22.6944 187.391 22.5743C187.175 22.4302 186.935 22.3102 186.719 22.1901C185.279 21.3255 183.838 20.485 182.374 19.6925C181.918 19.4523 181.462 19.2362 181.03 18.996C179.758 18.3236 178.51 17.6752 177.214 17.0508C176.854 16.8827 176.518 16.7386 176.158 16.5705C174.765 15.9221 173.349 15.2737 171.933 14.6733C171.741 14.6012 171.549 14.5292 171.381 14.4571C152.587 6.70016 132.184 4.15453 111.95 7.10842C111.59 7.15645 111.254 7.2285 110.894 7.27653C109.453 7.49267 108.013 7.73282 106.573 7.99699C104.773 8.35722 102.973 8.74147 101.172 9.17375C99.3722 9.60602 97.5959 10.0863 95.8197 10.6147C94.3075 11.071 92.8193 11.5513 91.3312 12.0556C91.0911 12.1276 90.8751 12.1997 90.6351 12.2717C86.8426 13.5926 83.1462 15.1055 79.5457 16.7866C66.3681 22.9586 54.5587 31.6041 44.6695 42.2669C43.5173 43.5157 42.4132 44.7645 41.3091 46.0614C41.165 46.2535 40.997 46.4216 40.829 46.5897C39.8929 47.7184 38.9808 48.8952 38.0687 50.0719C37.7806 50.4322 37.4926 50.7684 37.2286 51.1286C36.4365 52.1853 35.6924 53.266 34.9243 54.3226C34.5642 54.827 34.2042 55.3073 33.8442 55.8356C33.1001 56.9163 32.404 58.045 31.7079 59.1737C31.3959 59.6781 31.0598 60.1824 30.7238 60.6867C-1.89621 114.577 15.2419 184.894 68.9604 217.555C70.9767 218.78 73.0409 219.933 75.1292 221.013C75.7773 221.35 76.4013 221.662 77.0494 221.998C78.5376 222.742 80.0498 223.463 81.562 224.159C82.2581 224.472 82.9781 224.808 83.6982 225.12C85.6425 225.96 87.6107 226.729 89.579 227.449C90.3951 227.738 91.2352 228.002 92.0513 228.29C93.3954 228.746 94.7396 229.179 96.1077 229.587C97.1879 229.899 98.268 230.211 99.3722 230.475C100.404 230.74 101.46 231.004 102.517 231.244C103.693 231.508 104.869 231.796 106.045 232.036C106.669 232.156 107.293 232.253 107.917 232.373C110.438 232.829 112.958 233.189 115.478 233.477C116.318 233.573 117.182 233.669 118.022 233.741C119.343 233.862 120.663 233.958 121.959 234.03C122.895 234.078 123.831 234.102 124.767 234.126C125.823 234.15 126.904 234.246 127.96 234.246C129.448 234.246 130.936 234.174 132.448 234.102C132.856 234.102 133.264 234.102 133.696 234.054C134.872 233.982 136.073 233.886 137.249 233.789C138.185 233.717 139.121 233.645 140.057 233.525C141.065 233.429 142.073 233.285 143.081 233.165C144.306 232.997 145.53 232.805 146.73 232.613C147.522 232.493 148.29 232.373 149.082 232.204C151.122 231.82 153.139 231.412 155.155 230.908C155.299 230.884 155.419 230.836 155.563 230.788C157.219 230.379 158.851 229.947 160.484 229.467C162.164 228.962 163.82 228.434 165.476 227.858C165.548 227.858 165.596 227.81 165.668 227.81C185.087 221.085 202.105 209.342 215.258 193.708C215.33 193.636 215.402 193.564 215.474 193.468C216.53 192.195 217.539 190.922 218.547 189.601C218.715 189.385 218.907 189.169 219.075 188.929C220.035 187.68 220.947 186.383 221.835 185.086C222.027 184.798 222.243 184.51 222.435 184.222C223.515 182.613 224.571 181.004 225.58 179.323C226.588 177.666 227.548 175.984 228.46 174.279C228.628 173.943 228.796 173.607 228.964 173.271C229.684 171.902 230.404 170.509 231.076 169.116C231.196 168.852 231.316 168.588 231.436 168.3C232.132 166.811 232.804 165.322 233.428 163.833C233.477 163.713 233.525 163.593 233.573 163.497C234.437 161.383 235.229 159.27 235.949 157.132C236.141 156.556 236.333 155.98 236.525 155.403C237.053 153.794 237.533 152.185 237.965 150.576C238.109 150.024 238.301 149.496 238.445 148.943C242.742 132.589 243.342 115.394 240.053 98.4389C239.789 97.118 239.501 95.7972 239.189 94.4763L239.261 94.5004ZM222.531 177.473C207.217 202.69 182.998 220.413 154.339 227.401C125.679 234.39 96.0357 229.803 70.8327 214.481C18.7943 182.853 2.20829 114.745 33.8442 62.704C49.158 37.4879 73.377 19.7645 102.036 12.7761C108.373 11.2391 114.758 10.2785 121.119 9.84618C123.543 9.67807 125.967 9.58201 128.392 9.58201C148.386 9.58201 168.045 15.0575 185.543 25.6963C210.746 41.0181 228.46 65.2496 235.445 93.924C236.477 98.1507 237.221 102.401 237.749 106.652C240.821 131.244 235.589 155.98 222.507 177.473H222.531Z" fill="#FCF0E8"/>
</g>
<defs>
<clipPath id="clip0_2141_164">
<rect width="248.214" height="250" fill="white"/>
</clipPath>
</defs>
</svg>
