<svg width="364" height="300" viewBox="0 0 364 300" fill="none" xmlns="http://www.w3.org/2000/svg">
<g clip-path="url(#clip0_2141_438)">
<path d="M273.332 292.059L24.8351 198.827C11.754 193.919 5.1398 179.343 10.0478 166.283L66.2689 16.4092C67.3642 13.4812 68.9862 10.8903 70.9241 8.65747C65.0892 11.3537 60.2655 16.2407 57.8431 22.7285L1.62204 172.602C-3.28598 185.683 3.34932 200.239 16.4093 205.147L264.907 298.378C275.039 302.191 286.055 299.031 292.796 291.342C286.877 294.081 279.926 294.523 273.332 292.059Z" fill="#2A2421"/>
<path d="M347.332 94.8322L98.8134 1.62197C88.6814 -2.1907 77.6647 0.96897 70.9241 8.6575C68.9651 10.8903 67.3642 13.4813 66.2688 16.4092L10.0478 166.283C5.1398 179.364 11.7751 193.919 24.8351 198.827L273.332 292.059C279.905 294.523 286.877 294.06 292.796 291.342C298.631 288.646 303.455 283.759 305.877 277.271L362.119 127.377C367.027 114.296 360.392 99.7402 347.332 94.8322ZM276.029 280.115C273.08 280.115 270.089 279.589 267.182 278.514L38.4006 192.677C32.0812 190.317 27.0679 185.62 24.2663 179.469C21.4648 173.318 21.233 166.451 23.6133 160.132L72.4407 29.9537C74.821 23.6343 79.4973 18.621 85.6481 15.8194C91.799 13.0178 98.666 12.7861 104.985 15.1664L333.766 101.004C340.086 103.384 345.099 108.061 347.901 114.212C350.702 120.362 350.934 127.229 348.554 133.549L299.726 263.706C295.935 273.838 286.266 280.115 276.029 280.115Z" fill="#EA739C"/>
<path d="M177.7 64.394L174.372 68.3963L177.573 69.597L177.7 64.394Z" fill="#EA739C"/>
<path d="M209.465 76.2954L206.137 80.3187L209.339 81.4983L209.465 76.2954Z" fill="#EA739C"/>
<path d="M223.495 137.479L222.088 141.226L238.891 147.532L240.297 143.785L223.495 137.479Z" fill="#EA739C"/>
<path d="M223.683 88.0916C224.547 87.6914 225.2 86.9331 225.642 85.7745C226.064 84.6371 226.085 83.626 225.705 82.7412C225.326 81.8565 224.547 81.1825 223.388 80.7612L221.83 80.1714L219.112 87.4386L220.671 88.0284C221.83 88.4708 222.841 88.4918 223.704 88.0916H223.683Z" fill="#EA739C"/>
<path d="M244.263 137.614L148.315 101.615C145.513 100.562 142.332 102.015 141.237 104.922L140.542 106.797L158.826 113.664C159.647 113.98 160.048 114.885 159.753 115.707L144.502 156.361C144.186 157.183 143.28 157.583 142.459 157.288L124.175 150.421L122.216 155.645C121.12 158.552 122.574 161.733 125.354 162.786L160.574 175.993C152.38 167.378 149.347 154.423 153.855 142.417C160.111 125.776 178.458 117.203 194.867 123.374C211.297 129.525 219.47 148.062 213.235 164.703C208.728 176.71 197.921 184.482 186.083 185.578L221.303 198.785C224.105 199.838 227.285 198.385 228.36 195.478L231.898 186.02L228.086 177.447C227.917 177.068 227.896 176.646 228.044 176.246L234.489 159.037C234.637 158.657 234.932 158.341 235.311 158.152L243.821 154.192L247.36 144.734C248.455 141.827 247.002 138.646 244.221 137.593L244.263 137.614ZM243.779 143.386L241.272 150.084C240.956 150.906 240.05 151.306 239.229 151.011L219.47 143.596C218.649 143.28 218.228 142.375 218.544 141.553L221.05 134.855C221.366 134.033 222.272 133.633 223.094 133.928L242.852 141.342C243.673 141.658 244.074 142.564 243.779 143.386Z" fill="#EA739C"/>
<path d="M231.267 176.731L233.52 181.786L242.283 158.426L237.27 160.743L231.267 176.731Z" fill="#EA739C"/>
<path d="M177.173 104.796L164.008 99.8455C161.712 98.9819 159.163 99.8455 157.73 101.762L180.649 110.357C180.838 107.955 179.469 105.638 177.173 104.775V104.796Z" fill="#EA739C"/>
<path d="M151.306 200.197C150.316 199.818 149.347 199.712 148.399 199.86C147.472 200.007 146.651 200.428 145.913 201.102C145.176 201.755 144.607 202.64 144.186 203.757C143.765 204.873 143.617 205.905 143.723 206.916C143.828 207.927 144.186 208.791 144.776 209.528C145.387 210.266 146.187 210.813 147.177 211.192C148.167 211.571 149.136 211.677 150.063 211.508C150.99 211.34 151.832 210.919 152.57 210.223C153.307 209.549 153.897 208.665 154.297 207.548C154.718 206.453 154.866 205.4 154.739 204.431C154.634 203.441 154.276 202.577 153.686 201.84C153.096 201.124 152.296 200.555 151.306 200.197Z" fill="#EA739C"/>
<path d="M210.308 163.566C215.953 148.504 208.538 131.842 193.793 126.303C179.048 120.763 162.491 128.43 156.846 143.512C151.201 158.573 158.616 175.235 173.361 180.775C188.106 186.315 204.662 178.648 210.308 163.566ZM177.258 170.327C168.116 166.894 163.566 156.593 167.041 147.346C168.284 144.039 170.37 141.321 172.96 139.341C173.656 138.815 174.646 138.941 175.172 139.636C175.699 140.331 175.572 141.321 174.877 141.848C172.729 143.491 171.001 145.724 169.99 148.462C167.126 156.13 170.896 164.577 178.374 167.378C185.831 170.18 194.257 166.304 197.121 158.636C199.986 150.969 196.216 142.522 188.738 139.721C186.063 138.731 183.303 138.583 180.691 139.152C179.849 139.341 179.006 138.794 178.816 137.951C178.627 137.109 179.174 136.266 180.017 136.076C183.198 135.381 186.589 135.571 189.854 136.793C198.996 140.226 203.546 150.527 200.07 159.774C196.595 169.021 186.4 173.782 177.258 170.369V170.327ZM187.348 143.47C192.866 145.534 195.584 151.727 193.498 157.267C191.413 162.807 185.283 165.693 179.785 163.629C174.266 161.564 171.549 155.371 173.635 149.832C175.72 144.292 181.85 141.406 187.348 143.47Z" fill="#EA739C"/>
<path d="M127.461 191.244L124.702 190.212L122.89 195.057L125.65 196.089C126.555 196.426 127.293 196.468 127.903 196.194C128.514 195.921 128.957 195.394 129.252 194.615C129.525 193.856 129.525 193.182 129.252 192.614C128.978 192.024 128.388 191.56 127.482 191.223L127.461 191.244Z" fill="#EA739C"/>
<path d="M164.492 61.8243C164.893 61.6347 165.187 61.2977 165.398 60.771C165.588 60.2655 165.588 59.8231 165.398 59.444C165.208 59.0438 164.808 58.7489 164.218 58.5171L162.365 57.822L161.143 61.0659L162.997 61.7611C163.587 61.9928 164.092 62.0138 164.492 61.8453V61.8243Z" fill="#EA739C"/>
<path d="M180.881 160.659C184.714 162.091 189.033 160.111 190.528 156.151C192.003 152.191 190.044 147.851 186.231 146.419C182.397 144.987 178.079 146.967 176.583 150.927C175.088 154.887 177.068 159.226 180.881 160.659Z" fill="#EA739C"/>
<path d="M139.435 109.738L125.291 147.448L142.095 153.751L156.239 116.041L139.435 109.738Z" fill="#EA739C"/>
<path d="M345.584 132.432C347.669 126.892 347.458 120.889 345.015 115.517C342.572 110.146 338.169 106.038 332.65 103.953L103.869 18.1364C101.341 17.1885 98.7083 16.7251 96.0963 16.7251C92.9788 16.7251 89.8823 17.3992 86.9543 18.7262C81.5829 21.1697 77.4753 25.5722 75.39 31.0911L26.5625 161.248C24.4982 166.788 24.6878 172.792 27.1313 178.163C29.5748 183.535 33.9772 187.642 39.4961 189.727L268.277 275.565C279.694 279.841 292.48 274.049 296.756 262.632L345.584 132.474V132.432ZM89.798 179.09L86.1539 177.721C86.3435 177.131 86.2592 176.583 85.9432 176.057C85.6483 175.509 85.1217 175.109 84.3845 174.814C83.7315 174.561 83.1627 174.54 82.6361 174.73C82.1306 174.919 81.7725 175.319 81.5197 175.951C81.3512 176.394 81.3512 176.815 81.5197 177.215C81.7093 177.615 81.9831 177.995 82.3412 178.332C82.7204 178.669 83.247 179.111 83.9632 179.638C84.9111 180.354 85.6694 181.007 86.2381 181.576C86.8069 182.144 87.2071 182.839 87.4599 183.661C87.7127 184.482 87.6495 185.388 87.2703 186.42C86.9333 187.305 86.4067 188.042 85.6694 188.632C84.9322 189.222 84.0264 189.58 82.9732 189.706C81.9199 189.812 80.7825 189.643 79.5818 189.18C78.4232 188.737 77.4543 188.169 76.6749 187.41C75.9166 186.673 75.39 185.831 75.1372 184.883C74.8844 183.935 74.9265 182.966 75.2846 181.955L78.8445 183.282C78.6339 183.977 78.676 184.609 78.9498 185.156C79.2448 185.725 79.7714 186.147 80.5297 186.42C81.3091 186.715 81.9831 186.757 82.5519 186.568C83.1417 186.357 83.5419 185.957 83.7736 185.346C83.9632 184.862 83.9632 184.398 83.7736 183.977C83.584 183.556 83.3102 183.155 82.91 182.818C82.5308 182.46 82.0042 182.018 81.288 181.512C80.3401 180.796 79.5818 180.164 79.013 179.595C78.4654 179.027 78.0651 178.353 77.8124 177.552C77.5807 176.752 77.6439 175.825 78.0441 174.772C78.4022 173.803 78.9709 173.023 79.7292 172.497C80.4876 171.949 81.3933 171.654 82.4044 171.612C83.4366 171.549 84.5109 171.738 85.6483 172.16C87.3546 172.792 88.5763 173.74 89.3136 174.961C90.0719 176.183 90.2404 177.552 89.798 179.09ZM252.121 89.3975L254.333 90.219L250.204 101.236L247.992 100.414L252.121 89.3975ZM250.372 145.85L246.602 155.898L231.351 196.573C229.666 201.06 224.695 203.419 220.208 201.734L124.26 165.735C119.773 164.05 117.582 159.016 119.267 154.529L138.288 103.806C139.974 99.3188 144.945 96.9596 149.432 98.6448L154.677 100.625C156.783 97.086 161.143 95.4008 165.103 96.8964L178.269 101.847C182.25 103.342 184.42 107.471 183.682 111.515L245.359 134.665C249.846 136.35 252.036 141.385 250.351 145.871L250.372 145.85ZM234.764 82.9096L237.27 83.8575L237.692 93.3576L244.264 86.4906L246.749 87.4174L242.621 98.4341L240.409 97.6126L243.105 90.4507L237.46 96.5173L235.796 95.8853L235.522 87.607L232.826 94.7689L230.614 93.9474L234.743 82.9307L234.764 82.9096ZM220.313 77.475L224.168 78.9284C225.327 79.3708 226.254 79.9606 226.97 80.74C227.686 81.5194 228.128 82.4251 228.276 83.4362C228.444 84.4473 228.318 85.5006 227.918 86.617C227.496 87.7123 226.907 88.597 226.106 89.25C225.327 89.903 224.4 90.2822 223.347 90.3875C222.315 90.5139 221.198 90.3664 220.04 89.9241L216.185 88.4706L220.313 77.4539V77.475ZM209.149 73.2621L211.719 74.2311L211.551 86.7434L209.212 85.8587L209.276 83.4784L204.894 81.8353L203.378 83.6679L201.061 82.8043L209.149 73.2621ZM188.548 65.5525L190.76 66.374L187.284 75.6424L190.907 77.0116L190.254 78.7599L184.42 76.5692L188.548 65.5525ZM177.384 61.3607L179.954 62.3296L179.785 74.8419L177.447 73.9572L177.51 71.5769L173.129 69.9339L171.612 71.7665L169.295 70.9029L177.384 61.3607ZM160.827 55.1677L164.956 56.7265C165.799 57.0425 166.473 57.4638 166.957 57.9904C167.442 58.517 167.737 59.0857 167.842 59.7177C167.947 60.3285 167.905 60.9605 167.652 61.5924C167.378 62.3086 166.915 62.8984 166.283 63.3197C165.651 63.741 164.872 63.9095 163.966 63.8042L164.935 69.2599L162.386 68.2909L161.565 63.088L160.533 62.6877L158.932 66.9849L156.72 66.1634L160.848 55.1467L160.827 55.1677ZM149.284 50.8074L155.667 53.2087L154.993 54.9992L150.822 53.4404L149.79 56.1999L153.497 57.5901L152.844 59.3385L149.137 57.9482L148.041 60.8762L152.212 62.435L151.538 64.2254L145.155 61.8241L149.284 50.7863V50.8074ZM134.518 45.2674L136.73 46.0889L138.899 55.5469L141.743 47.9637L143.955 48.7852L139.826 59.823L137.614 59.0015L135.445 49.5646L132.601 57.1267L130.389 56.3052L134.518 45.2674ZM122.975 40.9492L129.357 43.3506L128.683 45.1411L124.512 43.5823L123.48 46.3417L127.187 47.732L126.534 49.4803L122.827 48.0901L121.732 51.018L125.903 52.5768L125.228 54.3673L118.846 51.9659L122.975 40.9282V40.9492ZM105.112 40.5069C105.512 39.4326 106.123 38.5479 106.923 37.8738C107.745 37.1997 108.672 36.7785 109.704 36.631C110.757 36.4625 111.789 36.5889 112.843 36.9891C114.085 37.4525 115.054 38.1687 115.728 39.1166C116.424 40.0645 116.739 41.1388 116.676 42.3605L114.127 41.4126C114.043 40.865 113.833 40.3805 113.474 39.9592C113.116 39.559 112.653 39.243 112.063 39.0113C111.41 38.7585 110.778 38.6953 110.167 38.8006C109.557 38.906 109.009 39.1798 108.503 39.6222C108.019 40.0645 107.64 40.6333 107.366 41.3494C107.092 42.0867 106.987 42.7818 107.071 43.4348C107.155 44.0878 107.408 44.6566 107.808 45.1621C108.208 45.6466 108.756 46.0258 109.451 46.2785C110.294 46.5945 111.073 46.6366 111.768 46.3839C112.484 46.1311 113.053 45.6466 113.538 44.9093L109.746 43.498L110.378 41.8129L116.339 44.0457L115.623 45.9626C115.181 46.6788 114.612 47.2686 113.875 47.732C113.137 48.1954 112.316 48.4903 111.41 48.5956C110.504 48.7009 109.578 48.5956 108.63 48.2165C107.576 47.8162 106.692 47.2264 106.018 46.426C105.344 45.6255 104.922 44.6987 104.754 43.6665C104.585 42.6344 104.712 41.5812 105.112 40.4858V40.5069ZM111.874 185.325L107.471 183.682L102.268 197.521L98.9611 196.279L104.164 182.439L99.7615 180.796L100.773 178.121L109.072 181.239L112.906 182.671L112.253 184.398L111.895 185.346L111.874 185.325ZM132.664 195.857C132.264 196.953 131.569 197.816 130.6 198.469C129.652 199.101 128.472 199.354 127.103 199.206L128.536 207.38L124.702 205.947L123.48 198.132L121.921 197.542L119.499 203.988L116.192 202.745L121.732 187.958L122.385 186.231L128.578 188.548C129.863 189.032 130.853 189.664 131.59 190.465C132.053 190.949 132.348 191.476 132.58 192.024C132.727 192.361 132.854 192.677 132.917 193.035C133.086 193.961 133.001 194.909 132.643 195.857H132.664ZM157.71 208.833C157.099 210.455 156.172 211.782 154.929 212.793C153.708 213.783 152.317 214.415 150.759 214.647C149.2 214.878 147.641 214.71 146.082 214.141C144.545 213.551 143.26 212.667 142.227 211.445C141.216 210.223 140.563 208.854 140.268 207.274C139.995 205.694 140.163 204.093 140.774 202.471C141.385 200.871 142.291 199.565 143.533 198.575C144.334 197.922 145.219 197.437 146.167 197.1C146.672 196.932 147.199 196.784 147.746 196.7C149.305 196.468 150.864 196.637 152.423 197.205C153.981 197.795 155.266 198.68 156.277 199.902C156.636 200.323 156.93 200.786 157.183 201.25C157.668 202.113 158.026 203.061 158.194 204.093C158.468 205.652 158.3 207.232 157.71 208.854V208.833ZM172.897 224.02L164.135 220.734L169.674 205.947L170.327 204.22L173.635 205.463L172.982 207.19L168.411 219.365L173.845 221.408L172.855 224.041L172.897 224.02ZM190.865 230.761L182.102 227.475L187.642 212.688L188.295 210.96L191.603 212.203L190.95 213.931L186.379 226.106L191.813 228.149L190.823 230.782L190.865 230.761ZM203.399 235.458L200.092 234.216L205.632 219.428L206.285 217.701L209.592 218.944L208.939 220.671L203.399 235.458ZM229.161 229.329L222.272 226.738L220.693 230.972L225.98 232.952L224.99 235.585L219.703 233.605L217.091 240.598L213.783 239.355L219.323 224.568L219.976 222.841L221.493 223.41L230.172 226.675L229.161 229.35V229.329ZM243.126 243.8L240.978 249.551L237.671 248.308L239.819 242.557L238.26 229.687L242.01 231.098L242.726 239.987L249.087 233.752L252.774 235.142L243.147 243.821L243.126 243.8ZM266.129 98.055L263.706 97.1492C263.833 96.77 263.769 96.3909 263.559 96.0328C263.369 95.6747 263.011 95.4009 262.527 95.2113C262.105 95.0428 261.705 95.0217 261.368 95.1481C261.031 95.2745 260.778 95.5483 260.631 95.9696C260.525 96.2645 260.525 96.5383 260.631 96.8122C260.757 97.086 260.947 97.3177 261.178 97.5494C261.431 97.7811 261.789 98.076 262.253 98.4131C262.885 98.8976 263.39 99.3188 263.769 99.698C264.149 100.077 264.401 100.541 264.591 101.088C264.759 101.636 264.717 102.247 264.465 102.921C264.254 103.511 263.896 103.995 263.39 104.395C262.906 104.796 262.295 105.027 261.6 105.112C260.905 105.175 260.146 105.069 259.325 104.775C258.566 104.48 257.913 104.1 257.387 103.595C256.881 103.11 256.523 102.542 256.355 101.91C256.186 101.278 256.207 100.625 256.46 99.9508L258.819 100.835C258.672 101.299 258.714 101.72 258.882 102.078C259.072 102.457 259.43 102.731 259.936 102.921C260.441 103.11 260.905 103.153 261.284 103.005C261.663 102.858 261.937 102.584 262.084 102.184C262.211 101.868 262.211 101.552 262.084 101.257C261.958 100.962 261.768 100.709 261.516 100.477C261.263 100.246 260.905 99.9508 260.441 99.6137C259.809 99.1293 259.304 98.708 258.925 98.3499C258.566 97.9707 258.293 97.5284 258.124 96.9807C257.956 96.433 258.019 95.8221 258.272 95.127C258.524 94.474 258.882 93.9685 259.388 93.6104C259.894 93.2523 260.483 93.0416 261.178 93.0206C261.874 92.9784 262.59 93.1048 263.348 93.3787C264.486 93.8 265.307 94.4319 265.792 95.2534C266.297 96.0749 266.402 96.9807 266.108 97.9918L266.129 98.055ZM308.3 110.462L310.511 111.283L312.681 120.741L315.525 113.158L317.737 113.98L313.608 125.017L311.396 124.196L309.227 114.759L306.383 122.321L304.171 121.5L308.321 110.462H308.3ZM278.894 102.858L276.471 101.952C276.598 101.573 276.556 101.194 276.324 100.835C276.134 100.477 275.776 100.204 275.292 100.014C274.87 99.8455 274.47 99.8244 274.133 99.9508C273.796 100.077 273.543 100.351 273.396 100.772C273.291 101.067 273.291 101.341 273.396 101.615C273.522 101.889 273.712 102.12 273.944 102.352C274.196 102.584 274.554 102.879 275.018 103.216C275.65 103.7 276.155 104.122 276.534 104.501C276.914 104.88 277.187 105.343 277.356 105.891C277.524 106.439 277.482 107.049 277.23 107.724C276.998 108.313 276.64 108.798 276.155 109.198C275.671 109.598 275.06 109.83 274.365 109.914C273.67 109.977 272.911 109.872 272.111 109.577C271.353 109.282 270.7 108.903 270.173 108.398C269.667 107.913 269.309 107.344 269.141 106.712C268.972 106.081 268.993 105.428 269.246 104.753L271.605 105.638C271.458 106.102 271.479 106.523 271.669 106.881C271.858 107.26 272.216 107.534 272.722 107.724C273.227 107.913 273.691 107.955 274.07 107.808C274.449 107.66 274.723 107.387 274.87 106.986C274.997 106.67 274.997 106.354 274.87 106.059C274.744 105.765 274.554 105.512 274.302 105.28C274.049 105.048 273.691 104.753 273.227 104.416C272.595 103.932 272.09 103.511 271.711 103.153C271.353 102.773 271.079 102.331 270.91 101.783C270.742 101.236 270.805 100.625 271.058 99.9297C271.31 99.2767 271.669 98.7712 272.195 98.4131C272.701 98.055 273.291 97.8654 273.986 97.8233C274.681 97.7811 275.397 97.9075 276.155 98.1814C277.293 98.6026 278.114 99.2346 278.599 100.056C279.104 100.878 279.21 101.783 278.915 102.794L278.894 102.858ZM283.275 113.664L281.063 112.842L285.192 101.826L287.404 102.647L283.275 113.664ZM293.681 117.687C292.649 117.308 291.785 116.697 291.111 115.897C290.437 115.096 289.995 114.169 289.805 113.116C289.616 112.063 289.742 110.989 290.142 109.914C290.542 108.84 291.153 107.976 291.975 107.302C292.796 106.628 293.744 106.207 294.776 106.059C295.829 105.891 296.862 106.017 297.894 106.396C298.926 106.797 299.79 107.387 300.464 108.187C301.138 108.987 301.58 109.914 301.749 110.967C301.938 112 301.833 113.074 301.433 114.148C301.032 115.223 300.4 116.107 299.579 116.781C298.757 117.455 297.831 117.856 296.798 118.024C295.745 118.193 294.713 118.066 293.681 117.687Z" fill="#EA739C"/>
<path d="M299.179 113.306C299.452 112.569 299.558 111.873 299.473 111.22C299.389 110.546 299.157 109.978 298.778 109.493C298.378 109.009 297.851 108.651 297.198 108.398C296.545 108.145 295.892 108.082 295.261 108.166C294.65 108.271 294.081 108.545 293.596 109.009C293.112 109.451 292.733 110.041 292.459 110.778C292.185 111.515 292.08 112.21 292.164 112.884C292.227 113.559 292.48 114.127 292.859 114.612C293.259 115.096 293.807 115.475 294.46 115.707C295.134 115.96 295.766 116.023 296.377 115.918C296.988 115.812 297.557 115.518 298.041 115.075C298.526 114.633 298.926 114.022 299.2 113.285L299.179 113.306Z" fill="#EA739C"/>
<path d="M299.726 263.706L348.554 133.549C350.934 127.229 350.702 120.362 347.901 114.212C345.099 108.061 340.086 103.363 333.766 101.004L104.985 15.1665C98.6659 12.7862 91.7989 13.0179 85.6481 15.8195C79.4973 18.6211 74.7999 23.6344 72.4407 29.9537L23.6133 160.111C21.233 166.43 21.4647 173.297 24.2663 179.448C27.0678 185.599 32.0812 190.296 38.4005 192.656L267.182 278.493C270.089 279.589 273.08 280.094 276.029 280.094C286.266 280.094 295.914 273.838 299.726 263.685V263.706ZM268.277 275.544L39.4959 189.707C33.9559 187.621 29.5745 183.535 27.131 178.142C24.6876 172.771 24.4769 166.746 26.5623 161.227L75.3897 31.0702C77.454 25.5302 81.5616 21.1488 86.9541 18.7053C89.8821 17.3783 92.9785 16.7042 96.0961 16.7042C98.7291 16.7042 101.341 17.1676 103.869 18.1155L332.65 103.953C338.19 106.039 342.571 110.125 345.015 115.518C347.458 120.889 347.669 126.913 345.584 132.432L296.756 262.59C292.48 274.007 279.694 279.82 268.277 275.523V275.544Z" fill="#FCF0E8"/>
<path d="M242.684 239.966L241.968 231.077L238.239 229.687L239.798 242.557L237.649 248.308L240.957 249.551L243.126 243.8L252.753 235.121L249.045 233.731L242.684 239.966Z" fill="#FCF0E8"/>
<path d="M219.955 222.82L219.302 224.547L213.762 239.334L217.069 240.577L219.702 233.605L224.968 235.585L225.959 232.952L220.671 230.972L222.272 226.738L229.16 229.329L230.15 226.654L221.472 223.389L219.955 222.82Z" fill="#FCF0E8"/>
<path d="M206.263 217.68L205.631 219.407L200.07 234.216L203.398 235.459L208.938 220.65L209.591 218.923L206.263 217.68Z" fill="#FCF0E8"/>
<path d="M190.971 213.931L191.624 212.203L188.317 210.96L187.664 212.688L182.103 227.475L190.865 230.761L191.855 228.128L186.421 226.085L190.971 213.931Z" fill="#FCF0E8"/>
<path d="M173.002 207.19L173.655 205.463L170.348 204.22L169.695 205.947L164.155 220.735L172.897 224.021L173.887 221.388L168.452 219.344L173.002 207.19Z" fill="#FCF0E8"/>
<path d="M157.183 201.25C156.93 200.786 156.635 200.323 156.277 199.902C155.266 198.701 153.981 197.795 152.422 197.205C150.885 196.616 149.326 196.447 147.746 196.7C147.198 196.784 146.672 196.932 146.166 197.1C145.218 197.437 144.334 197.901 143.533 198.575C142.29 199.565 141.385 200.871 140.774 202.472C140.163 204.094 139.994 205.694 140.268 207.274C140.542 208.833 141.195 210.223 142.227 211.445C143.259 212.646 144.523 213.552 146.082 214.141C147.62 214.71 149.179 214.9 150.758 214.647C152.317 214.415 153.728 213.783 154.929 212.793C156.172 211.782 157.099 210.476 157.71 208.833C158.321 207.232 158.468 205.631 158.194 204.072C158.026 203.04 157.689 202.113 157.183 201.229V201.25ZM154.297 207.548C153.876 208.643 153.307 209.549 152.57 210.223C151.833 210.897 150.99 211.319 150.063 211.508C149.136 211.656 148.188 211.55 147.177 211.192C146.187 210.813 145.387 210.265 144.776 209.528C144.186 208.791 143.849 207.927 143.723 206.916C143.596 205.905 143.765 204.873 144.186 203.757C144.608 202.661 145.176 201.776 145.914 201.102C146.651 200.428 147.493 200.007 148.399 199.86C149.347 199.712 150.295 199.817 151.306 200.197C152.296 200.576 153.097 201.123 153.686 201.84C154.276 202.556 154.634 203.42 154.74 204.431C154.866 205.4 154.718 206.453 154.297 207.548Z" fill="#FCF0E8"/>
<path d="M132.601 192.024C132.369 191.476 132.074 190.949 131.611 190.465C130.874 189.664 129.884 189.033 128.599 188.548L122.406 186.231L121.753 187.958L116.213 202.745L119.52 203.988L121.942 197.543L123.501 198.132L124.723 205.947L128.557 207.38L127.124 199.207C128.493 199.333 129.652 199.101 130.621 198.469C131.59 197.816 132.264 196.953 132.685 195.857C133.043 194.91 133.128 193.983 132.959 193.035C132.896 192.677 132.77 192.34 132.622 192.024H132.601ZM129.231 194.636C128.936 195.415 128.493 195.942 127.883 196.216C127.272 196.468 126.534 196.447 125.629 196.11L122.869 195.078L124.681 190.233L127.44 191.265C128.346 191.602 128.936 192.066 129.21 192.656C129.505 193.224 129.505 193.898 129.21 194.657L129.231 194.636Z" fill="#FCF0E8"/>
<path d="M109.051 181.218L100.772 178.1L99.7613 180.775L104.164 182.439L98.9819 196.279L102.289 197.522L107.471 183.682L111.873 185.325L112.231 184.377L112.884 182.65L109.051 181.218Z" fill="#FCF0E8"/>
<path d="M85.6483 172.16C84.5108 171.739 83.4365 171.549 82.4043 171.612C81.3722 171.654 80.4875 171.949 79.7291 172.497C78.9708 173.045 78.4021 173.803 78.044 174.772C77.6438 175.804 77.5806 176.731 77.8123 177.552C78.0651 178.353 78.4653 179.027 79.013 179.596C79.5817 180.143 80.34 180.796 81.2879 181.513C82.0041 182.039 82.5307 182.46 82.9099 182.819C83.3101 183.156 83.5839 183.556 83.7735 183.977C83.9631 184.398 83.9631 184.862 83.7735 185.346C83.5418 185.936 83.1416 186.357 82.5518 186.568C81.983 186.758 81.2879 186.715 80.5296 186.421C79.7713 186.147 79.2447 185.704 78.9498 185.157C78.6759 184.609 78.6338 183.977 78.8444 183.282L75.2845 181.955C74.9265 182.966 74.8633 183.956 75.1371 184.883C75.3899 185.831 75.9165 186.673 76.6748 187.411C77.4542 188.148 78.4231 188.738 79.5817 189.18C80.8034 189.643 81.9198 189.812 82.9731 189.707C84.0263 189.58 84.9321 189.222 85.6693 188.632C86.4066 188.043 86.9543 187.305 87.2702 186.421C87.6494 185.388 87.7126 184.483 87.4598 183.661C87.207 182.84 86.8068 182.144 86.2381 181.576C85.6693 181.007 84.911 180.354 83.9631 179.638C83.268 179.111 82.7203 178.669 82.3411 178.332C81.983 177.974 81.7092 177.616 81.5196 177.215C81.3511 176.815 81.3511 176.394 81.5196 175.952C81.7513 175.32 82.1305 174.919 82.636 174.73C83.1627 174.54 83.7314 174.582 84.3844 174.814C85.1216 175.088 85.6483 175.509 85.9432 176.057C86.2591 176.583 86.3434 177.152 86.1538 177.721L89.798 179.09C90.2403 177.573 90.0929 176.183 89.3135 174.961C88.5762 173.719 87.3545 172.792 85.6483 172.16Z" fill="#FCF0E8"/>
<path d="M309.205 114.759L311.375 124.196L313.587 125.039L317.715 114.001L315.504 113.179L312.681 120.741L310.511 111.304L308.3 110.462L304.171 121.5L306.383 122.321L309.205 114.759Z" fill="#FCF0E8"/>
<path d="M299.6 116.802C300.421 116.128 301.053 115.244 301.453 114.169C301.854 113.095 301.959 112.042 301.769 110.989C301.601 109.935 301.179 109.009 300.484 108.208C299.81 107.408 298.968 106.818 297.914 106.418C296.882 106.038 295.85 105.912 294.797 106.081C293.744 106.249 292.817 106.649 291.995 107.323C291.174 107.976 290.563 108.861 290.163 109.935C289.763 111.01 289.636 112.084 289.826 113.137C290.015 114.169 290.437 115.096 291.132 115.918C291.806 116.718 292.669 117.329 293.702 117.708C294.734 118.087 295.766 118.214 296.819 118.045C297.851 117.877 298.799 117.476 299.6 116.802ZM294.439 115.728C293.786 115.475 293.238 115.117 292.838 114.633C292.459 114.148 292.206 113.558 292.143 112.905C292.059 112.231 292.164 111.536 292.438 110.799C292.712 110.062 293.091 109.472 293.575 109.03C294.06 108.587 294.628 108.292 295.239 108.187C295.871 108.082 296.503 108.166 297.177 108.419C297.851 108.671 298.378 109.03 298.757 109.514C299.157 109.999 299.389 110.567 299.452 111.241C299.536 111.894 299.452 112.589 299.157 113.327C298.883 114.064 298.504 114.654 297.999 115.117C297.514 115.56 296.946 115.854 296.335 115.96C295.724 116.065 295.071 116.002 294.418 115.749L294.439 115.728Z" fill="#FCF0E8"/>
<path d="M285.203 101.831L281.072 112.835L283.28 113.665L287.412 102.661L285.203 101.831Z" fill="#FCF0E8"/>
<path d="M276.113 98.2235C275.355 97.9496 274.639 97.8232 273.943 97.8654C273.269 97.9075 272.658 98.0971 272.153 98.4552C271.647 98.8133 271.268 99.3188 271.015 99.9718C270.763 100.667 270.699 101.278 270.868 101.825C271.037 102.352 271.31 102.816 271.668 103.195C272.048 103.574 272.553 103.995 273.185 104.459C273.649 104.796 274.007 105.09 274.259 105.322C274.512 105.554 274.723 105.807 274.828 106.102C274.955 106.396 274.955 106.691 274.828 107.028C274.681 107.429 274.407 107.702 274.028 107.85C273.649 107.976 273.185 107.955 272.68 107.766C272.174 107.576 271.816 107.302 271.626 106.923C271.437 106.544 271.416 106.144 271.563 105.68L269.204 104.796C268.972 105.47 268.93 106.123 269.099 106.755C269.267 107.387 269.604 107.934 270.131 108.44C270.657 108.945 271.289 109.324 272.069 109.619C272.869 109.914 273.627 110.041 274.323 109.956C275.018 109.872 275.629 109.64 276.113 109.24C276.598 108.84 276.956 108.355 277.187 107.766C277.44 107.092 277.482 106.46 277.314 105.933C277.145 105.385 276.871 104.922 276.492 104.543C276.113 104.164 275.607 103.742 274.976 103.258C274.512 102.9 274.154 102.605 273.901 102.394C273.67 102.163 273.48 101.91 273.354 101.657C273.248 101.383 273.227 101.109 273.354 100.814C273.522 100.393 273.754 100.119 274.091 99.9929C274.428 99.8665 274.828 99.8876 275.249 100.056C275.755 100.246 276.092 100.519 276.282 100.878C276.492 101.236 276.534 101.615 276.429 101.994L278.851 102.9C279.146 101.889 279.041 100.962 278.535 100.161C278.051 99.3399 277.229 98.7079 276.092 98.2867L276.113 98.2235Z" fill="#FCF0E8"/>
<path d="M263.348 93.442C262.59 93.1681 261.873 93.0417 261.178 93.0839C260.483 93.1049 259.893 93.3156 259.388 93.6737C258.882 94.0318 258.503 94.5373 258.271 95.1903C258.019 95.8854 257.955 96.4963 258.124 97.044C258.292 97.5706 258.566 98.034 258.924 98.4132C259.303 98.7923 259.809 99.2136 260.441 99.677C260.904 100.014 261.262 100.309 261.515 100.541C261.768 100.772 261.958 101.025 262.084 101.32C262.21 101.615 262.21 101.91 262.084 102.247C261.937 102.647 261.663 102.921 261.284 103.068C260.904 103.195 260.441 103.174 259.935 102.984C259.43 102.795 259.072 102.521 258.882 102.142C258.693 101.762 258.672 101.362 258.819 100.899L256.46 100.014C256.228 100.688 256.186 101.341 256.354 101.973C256.523 102.605 256.86 103.153 257.387 103.658C257.913 104.164 258.545 104.543 259.325 104.838C260.146 105.133 260.883 105.259 261.6 105.175C262.295 105.091 262.906 104.859 263.39 104.459C263.874 104.058 264.233 103.574 264.464 102.984C264.717 102.31 264.759 101.678 264.591 101.152C264.422 100.604 264.148 100.14 263.769 99.7613C263.39 99.3821 262.884 98.9609 262.253 98.4764C261.789 98.1183 261.431 97.8234 261.178 97.6127C260.947 97.381 260.757 97.1283 260.631 96.8755C260.525 96.6016 260.525 96.3278 260.631 96.0329C260.799 95.6116 261.031 95.3378 261.368 95.2114C261.705 95.085 262.105 95.1061 262.526 95.2746C263.032 95.4642 263.369 95.738 263.559 96.0961C263.769 96.4542 263.811 96.8333 263.706 97.2125L266.128 98.1183C266.423 97.1072 266.318 96.1803 265.812 95.3799C265.307 94.5584 264.506 93.9264 263.369 93.5052L263.348 93.442Z" fill="#FCF0E8"/>
<path d="M252.131 89.419L248.003 100.424L250.212 101.253L254.34 90.2476L252.131 89.419Z" fill="#FCF0E8"/>
<path d="M235.543 87.586L235.817 95.8643L237.481 96.4752L243.126 90.4297L240.43 97.5916L242.642 98.4131L246.77 87.3964L244.285 86.4696L237.712 93.3366L237.291 83.8365L234.763 82.9097L230.635 93.9053L232.847 94.7479L235.543 87.586Z" fill="#FCF0E8"/>
<path d="M223.325 90.3876C224.379 90.2612 225.284 89.8821 226.085 89.2501C226.885 88.5971 227.475 87.7335 227.896 86.6171C228.318 85.5217 228.423 84.4474 228.255 83.4363C228.107 82.4252 227.665 81.5195 226.949 80.7401C226.253 79.9607 225.306 79.3498 224.147 78.9286L220.292 77.4751L216.164 88.4918L220.018 89.9453C221.177 90.3876 222.272 90.5351 223.325 90.4087V90.3876ZM221.809 80.1714L223.368 80.7612C224.526 81.2035 225.306 81.8565 225.685 82.7412C226.064 83.6259 226.064 84.637 225.622 85.7745C225.2 86.912 224.547 87.6914 223.663 88.0916C222.799 88.4918 221.788 88.4707 220.629 88.0284L219.07 87.4386L221.788 80.1714H221.809Z" fill="#FCF0E8"/>
<path d="M204.873 81.8564L209.254 83.4995L209.191 85.8797L211.529 86.7645L211.698 74.2522L209.128 73.2832L201.039 82.8254L203.356 83.689L204.873 81.8564ZM209.465 76.2954L209.338 81.4983L206.158 80.2977L209.486 76.2954H209.465Z" fill="#FCF0E8"/>
<path d="M190.907 77.0116L187.284 75.6424L190.76 66.3951L188.548 65.5525L184.419 76.5692L190.254 78.7599L190.907 77.0116Z" fill="#FCF0E8"/>
<path d="M173.108 69.9341L177.489 71.5771L177.426 73.9574L179.764 74.8421L179.933 62.3298L177.363 61.3608L169.274 70.903L171.591 71.7667L173.108 69.9341ZM177.7 64.3941L177.573 69.597L174.393 68.3964L177.721 64.3941H177.7Z" fill="#FCF0E8"/>
<path d="M160.511 62.709L161.544 63.1092L162.365 68.3121L164.914 69.2811L163.945 63.8254C164.851 63.9096 165.63 63.7411 166.262 63.3409C166.894 62.9196 167.357 62.3298 167.631 61.6136C167.863 60.9817 167.926 60.3498 167.821 59.7389C167.716 59.107 167.421 58.5382 166.936 58.0116C166.452 57.485 165.778 57.0637 164.935 56.7477L160.806 55.189L156.678 66.2057L158.89 67.0272L160.49 62.73L160.511 62.709ZM162.344 57.822L164.198 58.5171C164.788 58.7489 165.188 59.0438 165.377 59.444C165.567 59.8231 165.567 60.2655 165.377 60.771C165.188 61.2766 164.893 61.6347 164.472 61.8243C164.071 61.9928 163.566 61.9717 162.976 61.74L161.122 61.0449L162.344 57.801V57.822Z" fill="#FCF0E8"/>
<path d="M152.212 62.435L148.02 60.8762L149.115 57.9482L152.823 59.3385L153.497 57.5901L149.789 56.1999L150.822 53.4404L154.992 54.9992L155.666 53.2087L149.284 50.8074L145.155 61.8451L151.538 64.2254L152.212 62.435Z" fill="#FCF0E8"/>
<path d="M135.424 49.5647L137.593 59.0016L139.805 59.8442L143.955 48.8064L141.743 47.9849L138.899 55.547L136.73 46.1102L134.518 45.2676L130.389 56.3054L132.601 57.1269L135.424 49.5647Z" fill="#FCF0E8"/>
<path d="M125.902 52.5557L121.71 50.997L122.806 48.069L126.513 49.4593L127.187 47.7109L123.48 46.3207L124.512 43.5612L128.683 45.141L129.357 43.3295L122.974 40.9492L118.846 51.9659L125.228 54.3673L125.902 52.5557Z" fill="#FCF0E8"/>
<path d="M106.017 46.4471C106.712 47.2475 107.576 47.8374 108.629 48.2376C109.577 48.5957 110.504 48.7221 111.41 48.6167C112.337 48.5114 113.158 48.2165 113.874 47.7531C114.612 47.2897 115.18 46.6999 115.623 45.9837L116.339 44.0668L110.378 41.834L109.746 43.5191L113.537 44.9305C113.074 45.6677 112.484 46.1522 111.768 46.405C111.073 46.6367 110.293 46.6156 109.451 46.2996C108.777 46.0469 108.229 45.6677 107.808 45.1832C107.408 44.6987 107.155 44.13 107.07 43.4559C106.986 42.8029 107.07 42.1078 107.365 41.3706C107.639 40.6544 108.018 40.0856 108.503 39.6433C108.987 39.2009 109.535 38.9271 110.167 38.8218C110.778 38.7164 111.41 38.7796 112.063 39.0324C112.653 39.2431 113.116 39.559 113.474 39.9803C113.832 40.3805 114.043 40.865 114.127 41.4338L116.676 42.3817C116.739 41.1599 116.423 40.0646 115.728 39.1377C115.033 38.1898 114.085 37.4736 112.842 37.0102C111.789 36.61 110.736 36.5047 109.704 36.6521C108.671 36.7996 107.745 37.2209 106.923 37.8949C106.123 38.569 105.512 39.4326 105.111 40.528C104.711 41.6023 104.585 42.6766 104.753 43.7087C104.922 44.7409 105.343 45.6677 106.017 46.4682V46.4471Z" fill="#FCF0E8"/>
<path d="M245.38 134.644L183.703 111.494C184.44 107.45 182.271 103.321 178.29 101.826L165.124 96.8754C161.143 95.3798 156.804 97.065 154.697 100.604L149.452 98.6238C144.966 96.9386 139.994 99.2768 138.309 103.785L119.288 154.508C117.603 158.994 119.815 164.029 124.28 165.714L220.229 201.713C224.716 203.398 229.687 201.06 231.372 196.552L246.623 155.877L250.393 145.829C252.078 141.342 249.867 136.308 245.401 134.623L245.38 134.644ZM164.008 99.8455L177.173 104.796C179.469 105.659 180.838 107.955 180.649 110.378L157.731 101.783C159.184 99.8455 161.712 99.0029 164.008 99.8666V99.8455ZM139.447 109.746L156.256 116.044L142.101 153.749L125.291 147.451L139.447 109.746ZM156.825 143.512C162.47 128.451 179.027 120.784 193.772 126.302C208.517 131.842 215.932 148.504 210.286 163.565C204.641 178.627 188.085 186.294 173.339 180.775C158.594 175.235 151.18 158.573 156.825 143.512ZM233.521 181.786L231.288 176.731L237.291 160.743L242.304 158.405L233.542 181.786H233.521ZM247.423 144.755L243.884 154.213L235.374 158.173C234.995 158.341 234.7 158.657 234.553 159.058L228.107 176.267C227.96 176.647 227.981 177.089 228.149 177.468L231.962 186.041L228.423 195.499C227.328 198.406 224.147 199.86 221.366 198.806L186.147 185.599C197.985 184.504 208.791 176.731 213.299 164.724C219.534 148.083 211.361 129.567 194.93 123.396C178.5 117.245 160.153 125.797 153.918 142.438C149.41 154.445 152.443 167.399 160.638 176.015L125.418 162.807C122.616 161.754 121.184 158.573 122.279 155.666L124.238 150.442L142.522 157.309C143.344 157.625 144.249 157.204 144.565 156.382L159.816 115.728C160.132 114.907 159.711 114.001 158.889 113.685L140.605 106.818L141.3 104.943C142.396 102.036 145.576 100.583 148.378 101.636L244.327 137.635C247.128 138.688 248.561 141.869 247.465 144.776L247.423 144.755Z" fill="#FCF0E8"/>
<path d="M179.785 163.629C185.304 165.693 191.413 162.807 193.498 157.267C195.583 151.727 192.866 145.534 187.347 143.47C181.828 141.406 175.72 144.292 173.634 149.832C171.549 155.372 174.266 161.565 179.785 163.629ZM176.583 150.927C178.058 146.967 182.397 144.987 186.231 146.419C190.065 147.852 192.024 152.191 190.528 156.151C189.053 160.111 184.714 162.091 180.88 160.659C177.047 159.226 175.088 154.887 176.583 150.927Z" fill="#FCF0E8"/>
<path d="M242.852 141.343L223.094 133.928C222.272 133.612 221.366 134.033 221.05 134.855L218.544 141.553C218.228 142.375 218.649 143.281 219.47 143.596L239.229 151.011C240.05 151.327 240.956 150.906 241.272 150.084L243.779 143.386C244.095 142.564 243.674 141.659 242.852 141.343ZM238.871 147.493L222.061 141.195L223.473 137.446L240.282 143.744L238.871 147.493Z" fill="#FCF0E8"/>
<path d="M200.091 159.732C203.567 150.484 199.017 140.184 189.875 136.75C186.61 135.529 183.219 135.36 180.038 136.034C179.196 136.224 178.648 137.066 178.837 137.909C179.027 138.752 179.87 139.299 180.712 139.11C183.324 138.541 186.105 138.688 188.759 139.678C196.216 142.48 200.007 150.927 197.142 158.594C194.278 166.262 185.852 170.138 178.395 167.336C170.938 164.534 167.147 156.088 170.011 148.42C171.044 145.703 172.771 143.449 174.898 141.806C175.594 141.279 175.72 140.289 175.193 139.594C174.667 138.899 173.677 138.773 172.982 139.299C170.391 141.279 168.284 144.018 167.062 147.304C163.587 156.551 168.137 166.852 177.279 170.285C186.421 173.719 196.616 168.937 200.091 159.69V159.732Z" fill="#FCF0E8"/>
</g>
<defs>
<clipPath id="clip0_2141_438">
<rect width="363.72" height="300" fill="white"/>
</clipPath>
</defs>
</svg>
