<svg width="337" height="325" viewBox="0 0 337 325" fill="none" xmlns="http://www.w3.org/2000/svg">
<g clip-path="url(#clip0_2141_54)">
<path d="M335.093 146.849C334.247 152.869 331.079 158.575 325.826 162.49L126.978 310.5C116.511 318.291 101.736 316.127 93.9449 305.66L4.64317 185.726C2.89215 183.384 1.67235 180.807 0.905047 178.151C0.0590518 184.093 1.4756 190.349 5.33177 195.543L94.6138 315.497C102.405 325.964 117.18 328.128 127.647 320.337L326.495 172.327C334.601 166.287 337.71 156.037 335.073 146.869L335.093 146.849Z" fill="#2A2421"/>
<path d="M100.142 127.116L102.68 125.227L98.6665 122.473L100.142 127.116Z" fill="#8141DC"/>
<path d="M125.562 108.189L128.099 106.3L124.086 103.566L125.562 108.189Z" fill="#8141DC"/>
<path d="M148.58 206.305L219.782 153.027C226.176 148.246 227.809 139.511 223.835 132.939L219.408 136.264C221.651 140.455 220.529 145.787 216.575 148.738L204.731 157.591C204.082 158.083 203.157 157.946 202.665 157.296C202.173 156.647 202.311 155.722 202.96 155.23L214.804 146.377C217.46 144.39 218.287 140.888 217.008 138.035L134.986 199.419C137.366 201.445 140.947 201.642 143.603 199.655L196.212 160.267C196.861 159.775 197.786 159.913 198.278 160.562C198.77 161.211 198.632 162.136 197.983 162.628L145.374 202.016C141.419 204.967 136.009 204.534 132.605 201.209L128.178 204.534C133.353 210.2 142.206 211.086 148.58 206.305Z" fill="#8141DC"/>
<path d="M134.612 94.8892L133.353 95.8139L137.681 101.638L138.94 100.713C139.865 100.024 140.396 99.2372 140.514 98.3519C140.652 97.4666 140.357 96.5812 139.688 95.6565C138.999 94.7318 138.212 94.2203 137.327 94.0826C136.441 93.9449 135.517 94.2006 134.592 94.8892H134.612Z" fill="#8141DC"/>
<path d="M87.2358 130.106L85.7603 131.208L87.6883 133.805L89.1639 132.703C89.6361 132.349 89.9115 131.956 89.9902 131.562C90.0493 131.149 89.9312 130.736 89.6164 130.323C89.3213 129.909 88.9672 129.693 88.5737 129.654C88.1605 129.595 87.7277 129.752 87.2555 130.106H87.2358Z" fill="#8141DC"/>
<path d="M93.9251 305.66C101.716 316.127 116.492 318.291 126.958 310.5L325.807 162.49C331.079 158.575 334.227 152.869 335.073 146.849C335.919 140.908 334.503 134.651 330.646 129.457L241.384 9.52243C233.593 -0.944304 218.818 -3.10848 208.351 4.68255L9.4829 152.692C1.37708 158.732 -1.73146 168.983 0.904898 178.151C1.6722 180.807 2.892 183.384 4.64302 185.726L93.9251 305.68V305.66ZM321.537 142.678C321.498 143.445 321.419 144.193 321.321 144.96C321.203 145.728 321.065 146.475 320.888 147.203C320.75 147.774 320.573 148.325 320.396 148.856C320.337 149.033 320.298 149.19 320.239 149.367C320.003 150.036 319.727 150.686 319.452 151.315C319.432 151.355 319.412 151.414 319.393 151.453C319.098 152.102 318.763 152.732 318.389 153.361C318.37 153.401 318.35 153.44 318.33 153.479C317.976 154.07 317.602 154.64 317.209 155.191C317.15 155.27 317.11 155.348 317.051 155.407C316.678 155.919 316.264 156.411 315.851 156.903C315.753 157.021 315.674 157.139 315.576 157.237C315.163 157.69 314.73 158.123 314.297 158.536C314.159 158.654 314.061 158.791 313.923 158.909C313.333 159.441 312.723 159.952 312.074 160.424L129.004 296.689C128.414 297.141 127.785 297.535 127.155 297.928C126.978 298.046 126.781 298.145 126.604 298.243C126.132 298.518 125.66 298.755 125.188 298.991C124.991 299.089 124.794 299.168 124.597 299.266C124.066 299.502 123.535 299.719 123.004 299.915C122.866 299.974 122.728 300.014 122.61 300.073C121.233 300.545 119.797 300.899 118.361 301.115C118.243 301.115 118.124 301.135 118.006 301.155C117.436 301.233 116.846 301.292 116.255 301.312C116.059 301.312 115.862 301.312 115.665 301.332C115.429 301.332 115.193 301.352 114.957 301.352C114.662 301.352 114.367 301.332 114.072 301.312C113.894 301.312 113.737 301.312 113.56 301.312C113.048 301.273 112.537 301.233 112.025 301.155C111.848 301.135 111.671 301.135 111.494 301.096C111.199 301.056 110.924 300.978 110.629 300.919C110.176 300.84 109.704 300.761 109.251 300.643C108.602 300.486 107.953 300.289 107.323 300.073C107.245 300.053 107.166 300.033 107.087 299.994C105.651 299.482 104.274 298.853 102.975 298.086C102.365 297.731 101.775 297.338 101.185 296.905C101.126 296.866 101.087 296.846 101.027 296.807C100.496 296.433 100.004 296.02 99.5126 295.587C99.4142 295.489 99.2961 295.41 99.1978 295.331C98.7649 294.938 98.3518 294.505 97.9386 294.092C97.8009 293.954 97.6435 293.816 97.5058 293.659C97.0926 293.206 96.7188 292.734 96.345 292.262C96.227 292.105 96.0892 291.967 95.9712 291.81L64.8267 249.962L18.4347 187.654C17.7264 186.709 17.1362 185.726 16.605 184.722C11.529 175.279 13.4571 163.454 21.4252 156.155C22.0154 155.624 22.6253 155.112 23.2943 154.62L206.324 18.4349C207.013 17.9234 207.741 17.4512 208.469 17.0183C218.719 10.998 232.117 13.5163 239.377 23.2748L316.914 127.431C316.914 127.431 316.992 127.568 317.051 127.627C317.484 128.218 317.878 128.808 318.252 129.418C318.35 129.595 318.429 129.772 318.527 129.949C318.822 130.46 319.117 130.992 319.353 131.523C319.412 131.661 319.471 131.798 319.53 131.936C319.786 132.507 320.042 133.097 320.258 133.687C320.298 133.766 320.317 133.864 320.337 133.962C320.553 134.612 320.75 135.261 320.927 135.93C320.927 135.969 320.927 136.028 320.947 136.068C321.104 136.756 321.262 137.464 321.36 138.173C321.36 138.232 321.36 138.291 321.36 138.37C321.458 139.058 321.518 139.747 321.557 140.435C321.557 140.632 321.557 140.809 321.557 141.006C321.557 141.576 321.577 142.127 321.557 142.698L321.537 142.678Z" fill="#8141DC"/>
<path d="M200.225 218.562C200.56 217.755 200.639 216.87 200.481 215.945C200.324 215.021 199.911 214.116 199.261 213.23C198.612 212.345 197.864 211.696 197.038 211.302C196.192 210.889 195.346 210.732 194.481 210.83C193.615 210.929 192.789 211.263 191.982 211.873C191.195 212.463 190.605 213.171 190.251 213.978C189.916 214.785 189.818 215.65 189.975 216.575C190.132 217.48 190.526 218.385 191.175 219.27C191.824 220.156 192.572 220.805 193.418 221.218C194.264 221.631 195.11 221.789 195.995 221.71C196.881 221.612 197.727 221.258 198.514 220.667C199.301 220.077 199.871 219.369 200.225 218.562Z" fill="#8141DC"/>
<path d="M230.583 127.883L226.176 131.169C231.134 139.078 229.186 149.643 221.533 155.388L150.332 208.666C142.659 214.411 131.975 213.289 125.798 206.305L121.391 209.59C129.339 218.916 143.406 220.529 153.538 212.955L224.74 159.677C234.872 152.102 237.292 138.153 230.583 127.883Z" fill="#8141DC"/>
<path d="M174.885 225.389C174.275 225.31 173.606 225.546 172.898 226.078L170.675 227.73L173.567 231.606L175.79 229.954C176.518 229.422 176.912 228.852 177.01 228.242C177.108 227.632 176.912 227.002 176.459 226.392C176.007 225.783 175.495 225.448 174.885 225.389Z" fill="#8141DC"/>
<path d="M236.997 25.0454C232.944 19.5956 226.707 16.7231 220.392 16.7231C216.103 16.7231 211.774 18.0413 208.076 20.7957L25.0258 157.08C15.8969 163.887 13.9885 176.852 20.7958 185.981L98.3323 290.137C101.618 294.564 106.438 297.436 111.908 298.243C117.377 299.05 122.807 297.672 127.234 294.367L310.303 158.103C314.73 154.817 317.603 149.977 318.409 144.527C319.216 139.078 317.839 133.628 314.533 129.201L236.997 25.0454ZM118.125 210.2C117.633 209.551 117.77 208.626 118.42 208.135L125.148 203.098L131.877 198.061L140.986 191.254L130.008 169.907C129.673 169.258 129.851 168.491 130.441 168.058L186.768 125.916L174.846 114.564C172.445 112.262 168.668 112.045 165.953 114.091L126.388 143.701C123.653 145.747 122.807 149.407 124.322 152.378L128.808 161.093C129.182 161.821 128.886 162.707 128.178 163.08C127.45 163.454 126.565 163.159 126.191 162.451L121.705 153.735C119.522 149.466 120.761 144.232 124.617 141.36L164.182 111.75C168.038 108.858 173.409 109.133 176.892 112.439L207.466 141.557L216.575 134.749L223.304 129.713L230.032 124.676C230.681 124.184 231.606 124.322 232.098 124.971C240.833 136.658 238.315 153.263 226.51 162.097L155.309 215.375C143.504 224.208 126.86 221.946 118.105 210.259L118.125 210.2ZM202.665 41.9063L211.184 44.9951L206.679 38.9354L208.449 37.6173L215.021 46.451L213.25 47.7692L204.751 44.7L209.256 50.74L207.485 52.0582L200.914 43.2244L202.685 41.9063H202.665ZM190.624 51.586C191.018 50.681 191.648 49.9334 192.454 49.3038C193.281 48.6742 194.186 48.3201 195.169 48.202C196.153 48.084 197.097 48.202 198.002 48.6152C198.907 48.989 199.694 49.6186 200.324 50.4843C200.973 51.3499 201.347 52.2746 201.465 53.278C201.583 54.2617 201.426 55.1864 201.032 56.0914C200.639 56.9965 200.009 57.7441 199.202 58.354C198.376 58.9639 197.471 59.3377 196.487 59.4558C195.504 59.5738 194.559 59.4558 193.654 59.0819C192.73 58.6885 191.962 58.0589 191.313 57.1932C190.664 56.3275 190.31 55.4225 190.192 54.4388C190.074 53.4551 190.231 52.5107 190.624 51.6057V51.586ZM184.191 55.6586L190.743 64.4727L188.972 65.7909L182.42 56.9768L184.191 55.6586ZM173.626 63.8235C173.941 63.2529 174.393 62.761 175.003 62.3085C175.908 61.6396 176.813 61.3051 177.718 61.3248C177.816 61.3248 177.915 61.3445 178.033 61.3642C178.8 61.4429 179.469 61.8167 180.04 62.4659L178.092 63.9218C177.856 63.6267 177.541 63.489 177.148 63.4693C176.754 63.4496 176.361 63.5677 175.967 63.8628C175.633 64.1186 175.416 64.4137 175.338 64.7481C175.259 65.0826 175.357 65.3974 175.613 65.7515C175.79 65.9876 176.006 66.1253 176.282 66.1844C176.557 66.2237 176.852 66.1844 177.148 66.1253C177.443 66.0466 177.856 65.9089 178.367 65.7122C179.056 65.4564 179.646 65.2794 180.138 65.181C180.63 65.0826 181.122 65.1023 181.633 65.24C182.145 65.3777 182.597 65.7319 183.01 66.2827C183.365 66.7549 183.561 67.2861 183.62 67.8764C183.679 68.4666 183.561 69.0568 183.266 69.6471C182.971 70.2373 182.499 70.7685 181.85 71.2603C181.24 71.7129 180.61 72.0276 179.941 72.185C179.292 72.3424 178.682 72.3228 178.112 72.1457C177.521 71.9686 177.03 71.6145 176.636 71.0636L178.525 69.6471C178.82 69.9815 179.154 70.1783 179.548 70.2176C179.941 70.257 180.335 70.1192 180.748 69.8241C181.161 69.5093 181.417 69.1749 181.496 68.8011C181.574 68.4272 181.496 68.0731 181.259 67.7583C181.063 67.5025 180.827 67.3452 180.551 67.2861C180.256 67.2468 179.961 67.2665 179.646 67.3452C179.331 67.4239 178.918 67.5616 178.426 67.7583C177.718 68.0141 177.148 68.1912 176.656 68.3092C176.184 68.4076 175.692 68.3879 175.18 68.2502C174.669 68.0928 174.216 67.7583 173.803 67.1878C173.409 66.6566 173.213 66.1057 173.173 65.5351C173.173 65.3384 173.213 65.1416 173.232 64.9449C173.291 64.5711 173.409 64.1973 173.606 63.8235H173.626ZM163.415 71.4177C163.73 70.8472 164.182 70.3553 164.792 69.9028C165.697 69.2339 166.602 68.8994 167.507 68.9191C167.625 68.9191 167.743 68.9388 167.861 68.9584C168.609 69.0568 169.258 69.411 169.829 70.0602L167.881 71.5161C167.645 71.221 167.33 71.0833 166.937 71.0636C166.543 71.0439 166.169 71.162 165.756 71.4571C165.402 71.7129 165.205 72.008 165.127 72.3424C165.048 72.6769 165.127 73.0114 165.402 73.3458C165.579 73.5819 165.795 73.7196 166.071 73.7787C166.346 73.818 166.622 73.7787 166.937 73.7196C167.251 73.6409 167.645 73.5032 168.156 73.3065C168.845 73.0507 169.455 72.8736 169.927 72.7753C170.419 72.6769 170.911 72.6966 171.422 72.8343C171.934 72.972 172.386 73.3261 172.8 73.877C173.154 74.3492 173.35 74.8804 173.409 75.4706C173.468 76.0609 173.35 76.6511 173.055 77.2413C172.76 77.8316 172.288 78.3628 171.639 78.835C171.029 79.2875 170.399 79.6023 169.73 79.7596C169.081 79.917 168.471 79.8974 167.901 79.7203C167.33 79.5432 166.819 79.1891 166.405 78.6382L168.294 77.2217C168.589 77.5561 168.924 77.7529 169.317 77.7922C169.711 77.8316 170.104 77.6938 170.517 77.3987C170.93 77.0839 171.186 76.7495 171.265 76.3757C171.344 76.0019 171.265 75.6477 171.029 75.3329C170.832 75.0772 170.596 74.9198 170.321 74.8607C170.045 74.8017 169.73 74.8411 169.416 74.9198C169.101 74.9985 168.688 75.1362 168.196 75.3329C167.507 75.5887 166.917 75.7658 166.425 75.8838C165.953 75.9822 165.461 75.9625 164.949 75.8248C164.438 75.6674 163.985 75.3329 163.572 74.7624C163.179 74.2312 162.982 73.6803 162.943 73.1097C162.943 72.9327 162.982 72.7556 163.002 72.5785C163.061 72.185 163.159 71.7915 163.395 71.4177H163.415ZM157.709 75.3723L158.28 76.1396L164.261 84.1864L162.49 85.5045L156.509 77.4578L155.939 76.6905L157.709 75.3723ZM144.075 85.5242L145.019 86.0751L151.768 89.9903L149.938 82.396L149.682 81.3533L151.669 79.8777L152.26 80.6647L158.241 88.6918L156.47 90.01L152.201 84.2847L154.109 91.7807L152.771 92.784L146.121 88.8098L150.391 94.5351L148.62 95.8532L142.658 87.8458L142.049 87.0391L144.055 85.5439L144.075 85.5242ZM133.569 93.3546C134.494 92.666 135.438 92.2332 136.402 92.0758C136.599 92.0364 136.796 92.0758 137.012 92.0758C137.76 92.0364 138.507 92.1151 139.196 92.4299C140.081 92.8037 140.848 93.4333 141.498 94.3186C142.147 95.204 142.54 96.1287 142.639 97.073C142.757 98.0174 142.58 98.9224 142.147 99.8078C141.714 100.693 141.045 101.48 140.121 102.169L137.032 104.471L131.09 96.5025L130.46 95.6565L133.549 93.3546H133.569ZM123.594 100.752L124.558 101.382L133.333 107.205L131.464 108.602L129.634 107.363L126.132 109.979L126.801 112.085L124.952 113.462L121.882 103.388L121.548 102.287L123.614 100.752H123.594ZM106.832 113.245L107.5 114.15L112.34 120.663L115.252 118.498L116.295 119.895L111.632 123.378L105.749 115.469L105.081 114.564L106.851 113.245H106.832ZM98.1749 119.659L99.1979 120.348L107.914 126.132L106.045 127.529L104.215 126.289L100.713 128.906L101.382 131.011L99.5324 132.388L96.5025 122.394L96.1484 121.213L98.2142 119.679L98.1749 119.659ZM86.1932 128.591C86.8818 128.08 87.5507 127.765 88.2 127.667C88.6132 127.588 89.0066 127.608 89.3805 127.667C89.5969 127.706 89.7936 127.745 89.9904 127.824C90.5412 128.04 90.9937 128.414 91.3676 128.906C91.8004 129.496 92.0168 130.146 92.0365 130.854C92.0365 131.562 91.7807 132.251 91.2495 132.939L96.0107 134.946L93.9646 136.461L89.4592 134.474L88.6328 135.103L91.1905 138.527L89.4198 139.845L83.5765 131.995L82.8682 131.031L86.1735 128.572L86.1932 128.591ZM78.7563 134.12L79.4843 135.103L79.8187 135.556L76.4741 138.055L78.1267 140.258L81.0976 138.055L82.1403 139.452L79.1695 141.655L80.9008 143.996L84.2455 141.498L85.3079 142.934L80.1925 146.731L74.3689 138.901L73.6213 137.897L78.7366 134.1L78.7563 134.12ZM52.7665 166.563C52.3927 167.33 51.8222 167.999 51.0746 168.55C50.2286 169.179 49.3039 169.573 48.3398 169.711C47.3758 169.829 46.4314 169.711 45.5264 169.317C44.6411 168.924 43.8541 168.294 43.2245 167.428C42.5753 166.563 42.2014 165.638 42.0834 164.674C41.9653 163.69 42.1031 162.746 42.4966 161.861C42.89 160.956 43.5196 160.188 44.3656 159.559C45.3493 158.811 46.4117 158.418 47.4938 158.359C48.5759 158.299 49.599 158.595 50.5237 159.264L48.4972 160.778C48.025 160.562 47.5332 160.483 47.0413 160.562C46.5495 160.641 46.0576 160.837 45.5854 161.192C45.0542 161.585 44.6804 162.038 44.464 162.589C44.2279 163.12 44.1689 163.69 44.2672 164.3C44.3656 164.91 44.6214 165.5 45.0542 166.071C45.4871 166.661 45.9789 167.094 46.5495 167.35C47.12 167.605 47.6906 167.704 48.2808 167.645C48.871 167.566 49.4416 167.33 49.9925 166.937C50.6614 166.425 51.0942 165.854 51.2516 165.166C51.409 164.477 51.3303 163.769 50.9762 163.041L47.9463 165.304L46.943 163.946L51.7238 160.385L52.8649 161.92C53.1994 162.628 53.3765 163.375 53.3765 164.182C53.3765 164.989 53.1994 165.795 52.8059 166.563H52.7665ZM59.1607 162.431L52.5895 153.597L57.7048 149.8L58.7672 151.236L55.4226 153.735L57.0752 155.939L60.046 153.735L61.0888 155.132L58.118 157.335L59.8493 159.677L63.1939 157.178L64.2564 158.614L59.141 162.411L59.1607 162.431ZM70.1586 154.227L68.388 155.545L61.8167 146.711L63.5874 145.393L70.7882 147.99L72.1064 148.462L68.3486 143.406L67.601 142.403L69.3717 141.084L70.1193 142.088L75.9429 149.899L74.1722 151.217L72.8737 150.745L65.6729 148.148L70.1783 154.188L70.1586 154.227ZM149.19 260.232C148.738 261.117 148.03 261.904 147.066 262.632C146.141 263.321 145.196 263.774 144.213 264.01C143.249 264.246 142.324 264.226 141.458 263.951C140.593 263.675 139.845 263.144 139.235 262.337L142.068 260.212C142.501 260.724 143.013 261.019 143.603 261.078C144.193 261.137 144.783 260.921 145.393 260.488C146.003 260.035 146.397 259.524 146.534 258.973C146.672 258.402 146.534 257.891 146.2 257.399C145.905 257.006 145.551 256.769 145.118 256.71C144.685 256.632 144.252 256.671 143.78 256.809C143.308 256.927 142.698 257.124 141.931 257.419C140.888 257.812 140.002 258.088 139.275 258.245C138.547 258.383 137.819 258.363 137.051 258.147C136.304 257.93 135.615 257.399 134.986 256.573C134.395 255.786 134.1 254.959 134.041 254.094C134.002 253.228 134.218 252.362 134.71 251.536C135.182 250.69 135.871 249.942 136.776 249.254C138.133 248.231 139.491 247.759 140.829 247.798C142.167 247.798 143.327 248.388 144.311 249.51L141.399 251.674C141.045 251.241 140.553 251.005 139.983 250.985C139.412 250.946 138.822 251.143 138.232 251.595C137.72 251.969 137.405 252.421 137.287 252.913C137.189 253.405 137.327 253.897 137.701 254.409C137.956 254.763 138.291 254.979 138.704 255.038C139.117 255.097 139.55 255.058 140.002 254.959C140.455 254.841 141.065 254.625 141.852 254.35C142.895 253.956 143.78 253.7 144.528 253.543C145.255 253.385 146.003 253.425 146.77 253.641C147.538 253.858 148.226 254.369 148.836 255.196C149.367 255.904 149.663 256.691 149.761 257.576C149.84 258.461 149.663 259.347 149.23 260.232H149.19ZM162.451 250.985L161.959 250.316L154.207 239.909L150.686 242.525L149.092 240.381L158.791 233.16L160.385 235.305L156.863 237.921L164.615 248.329L165.107 248.998L162.451 250.966V250.985ZM183.05 235.659L182.105 235.246L176.302 232.688L175.042 233.613L178.348 238.059L178.879 238.767L176.223 240.735L175.711 240.027L166.386 227.514L171.344 223.815C172.367 223.048 173.37 222.595 174.373 222.418C175.357 222.241 176.262 222.32 177.069 222.674C177.895 223.008 178.584 223.559 179.135 224.307C179.784 225.173 180.118 226.156 180.138 227.238C180.138 228.301 179.745 229.343 178.958 230.347L185.135 232.944L186.099 233.357L183.03 235.639L183.05 235.659ZM203.039 219.624C202.429 220.982 201.524 222.103 200.285 223.028C199.045 223.953 197.688 224.504 196.232 224.7C196.232 224.7 196.212 224.7 196.192 224.7C194.736 224.877 193.34 224.7 191.982 224.13C190.605 223.54 189.424 222.595 188.46 221.297C187.496 220.018 186.945 218.621 186.788 217.145C186.631 215.65 186.847 214.234 187.457 212.896C188.067 211.538 188.972 210.417 190.211 209.492C191.47 208.567 192.808 207.997 194.264 207.82C195.74 207.623 197.156 207.82 198.514 208.43C199.891 209 201.052 209.925 201.996 211.223C202.96 212.522 203.531 213.919 203.688 215.394C203.846 216.831 203.649 218.227 203.059 219.546C203.059 219.565 203.059 219.585 203.039 219.624ZM214.607 212.168L214.017 211.361L204.77 198.947L207.426 196.979L215.709 208.095L220.057 204.849L221.021 206.128L221.631 206.954L214.627 212.168H214.607ZM228.97 201.465L228.34 200.619L219.133 188.244L221.789 186.276L230.071 197.392L234.419 194.146L235.344 195.386L235.974 196.232L228.97 201.445V201.465ZM243.352 190.762L242.702 189.896L233.514 177.561L236.171 175.593L245.358 187.929L246.008 188.814L243.352 190.782V190.762ZM254.291 182.617L253.622 181.712L244.453 169.396L252.618 163.316L254.212 165.461L248.703 169.573L251.221 172.957L255.451 169.809L257.006 171.914L252.776 175.062L256.258 179.745L256.927 180.65L254.271 182.617H254.291ZM273.414 168.392L269.991 163.789L259.091 158.516L262.082 156.293L269.42 160.228L267.748 152.082L270.699 149.879L272.647 161.821L276.07 166.425L273.414 168.392Z" fill="#8141DC"/>
<path d="M188.933 127.962L133.215 169.652L143.386 189.444L205.046 143.308L188.933 127.962ZM150.627 177.344C148.128 179.214 144.587 178.741 142.698 176.243C140.829 173.744 141.38 170.203 143.878 168.334C146.377 166.465 149.918 166.937 151.807 169.435C153.676 171.934 153.125 175.475 150.627 177.344ZM191.411 146.83C188.913 148.699 185.371 148.226 183.483 145.728C181.614 143.229 182.165 139.688 184.663 137.819C187.162 135.95 190.703 136.422 192.592 138.921C194.461 141.419 193.91 144.961 191.411 146.83Z" fill="#8141DC"/>
<path d="M145.668 170.714C144.448 171.619 144.212 173.331 145.078 174.492C145.944 175.652 147.636 175.908 148.875 175.003C150.095 174.078 150.331 172.386 149.465 171.226C148.6 170.065 146.908 169.809 145.668 170.714Z" fill="#8141DC"/>
<path d="M193.103 55.8358C193.536 56.426 194.047 56.8589 194.598 57.1343C195.149 57.4098 195.72 57.5278 196.31 57.4688C196.9 57.3901 197.451 57.1737 197.982 56.7605C198.514 56.367 198.887 55.8948 199.123 55.3636C199.34 54.8127 199.399 54.2422 199.301 53.6323C199.202 53.0224 198.927 52.4125 198.494 51.8222C198.061 51.232 197.55 50.7992 196.999 50.5434C196.428 50.268 195.877 50.1696 195.287 50.2286C194.716 50.2877 194.146 50.5237 193.615 50.9172C193.083 51.3107 192.71 51.7829 192.454 52.3141C192.218 52.8453 192.159 53.4355 192.277 54.0454C192.375 54.6553 192.651 55.2456 193.083 55.8358H193.103Z" fill="#8141DC"/>
<path d="M186.434 140.199C185.214 141.124 184.978 142.816 185.844 143.977C186.709 145.137 188.401 145.393 189.641 144.488C190.861 143.564 191.097 141.872 190.231 140.711C189.365 139.55 187.673 139.294 186.434 140.199Z" fill="#8141DC"/>
<path d="M226.51 162.038C238.315 153.204 240.833 136.599 232.098 124.912C231.606 124.263 230.681 124.125 230.032 124.617L223.303 129.654L216.575 134.69L207.465 141.498L176.891 112.38C173.429 109.074 168.038 108.799 164.182 111.691L124.617 141.301C120.761 144.193 119.501 149.426 121.705 153.676L126.191 162.392C126.565 163.12 127.45 163.395 128.178 163.021C128.906 162.648 129.181 161.762 128.807 161.034L124.322 152.318C122.807 149.367 123.653 145.688 126.387 143.642L165.953 114.032C168.687 111.986 172.445 112.203 174.845 114.504L186.768 125.857L130.44 167.999C129.87 168.432 129.673 169.219 130.008 169.848L140.986 191.195L131.877 198.002L125.148 203.039L118.419 208.076C117.77 208.567 117.632 209.492 118.124 210.141C126.86 221.828 143.524 224.09 155.328 215.257L226.53 161.979L226.51 162.038ZM133.214 169.652L188.932 127.962L205.045 143.308L143.386 189.444L133.214 169.652ZM132.605 201.209C136.008 204.534 141.438 204.967 145.373 202.016L197.982 162.628C198.632 162.136 198.769 161.211 198.277 160.562C197.786 159.913 196.861 159.775 196.212 160.267L143.602 199.655C140.946 201.642 137.346 201.445 134.985 199.419L217.007 138.035C218.286 140.888 217.46 144.39 214.804 146.377L202.96 155.23C202.311 155.722 202.173 156.647 202.665 157.296C203.157 157.945 204.081 158.083 204.731 157.591L216.575 148.738C220.529 145.787 221.631 140.455 219.408 136.264L223.834 132.939C227.809 139.511 226.156 148.246 219.781 153.027L148.58 206.305C142.186 211.086 133.352 210.181 128.178 204.534L132.605 201.209ZM121.41 209.59L125.817 206.305C131.995 213.289 142.697 214.411 150.351 208.666L221.552 155.388C229.225 149.662 231.153 139.078 226.195 131.169L230.602 127.883C237.311 138.133 234.872 152.102 224.759 159.677L153.558 212.955C143.425 220.529 129.358 218.936 121.41 209.59Z" fill="#FCF0E8"/>
<path d="M143.898 168.353C141.399 170.222 140.848 173.764 142.718 176.262C144.587 178.761 148.148 179.233 150.646 177.364C153.145 175.495 153.696 171.953 151.827 169.455C149.958 166.956 146.397 166.484 143.898 168.353ZM148.876 174.983C147.656 175.888 145.964 175.652 145.078 174.472C144.213 173.311 144.449 171.599 145.669 170.694C146.888 169.77 148.58 170.025 149.466 171.206C150.331 172.367 150.115 174.078 148.876 174.983Z" fill="#FCF0E8"/>
<path d="M192.592 138.92C190.723 136.422 187.162 135.95 184.663 137.819C182.164 139.688 181.614 143.229 183.483 145.728C185.352 148.226 188.913 148.699 191.411 146.829C193.91 144.96 194.461 141.419 192.592 138.92ZM189.641 144.469C188.421 145.393 186.729 145.137 185.844 143.957C184.978 142.796 185.214 141.085 186.434 140.18C187.654 139.255 189.346 139.511 190.231 140.691C191.097 141.852 190.861 143.544 189.641 144.469Z" fill="#FCF0E8"/>
<path d="M321.34 138.35C321.34 138.35 321.34 138.232 321.34 138.153C321.242 137.445 321.104 136.736 320.927 136.048C320.927 136.009 320.927 135.949 320.907 135.91C320.75 135.241 320.553 134.592 320.317 133.943C320.278 133.864 320.258 133.766 320.238 133.667C320.022 133.077 319.786 132.487 319.51 131.916C319.451 131.779 319.412 131.641 319.333 131.503C319.078 130.972 318.802 130.46 318.507 129.929C318.409 129.752 318.33 129.575 318.232 129.398C317.858 128.788 317.464 128.198 317.032 127.608C316.992 127.549 316.953 127.47 316.894 127.411L239.357 23.2747C232.098 13.5162 218.699 10.9979 208.449 17.0183C207.721 17.4511 207.013 17.9036 206.305 18.4348L23.2547 154.699C22.6055 155.191 21.9759 155.703 21.3857 156.234C13.4176 163.533 11.4895 175.357 16.5655 184.801C17.0967 185.804 17.7066 186.788 18.3952 187.732L64.7872 250.041L95.9316 291.888C96.0497 292.045 96.1874 292.183 96.3055 292.341C96.6793 292.813 97.0531 293.285 97.4662 293.737C97.604 293.895 97.7417 294.013 97.8991 294.17C98.3122 294.603 98.7254 295.016 99.1582 295.41C99.2566 295.508 99.3746 295.587 99.473 295.666C99.9649 296.098 100.457 296.512 100.988 296.885C101.047 296.925 101.086 296.944 101.145 296.984C101.716 297.397 102.326 297.79 102.936 298.164C104.234 298.931 105.611 299.561 107.048 300.073C107.126 300.092 107.205 300.112 107.284 300.151C107.913 300.368 108.563 300.564 109.212 300.722C109.664 300.84 110.136 300.899 110.589 300.997C110.884 301.056 111.16 301.115 111.455 301.174C111.632 301.194 111.809 301.214 111.986 301.233C112.497 301.292 113.009 301.351 113.52 301.391C113.698 301.391 113.855 301.391 114.032 301.391C114.327 301.391 114.622 301.43 114.917 301.43C115.153 301.43 115.39 301.41 115.626 301.41C115.822 301.41 116.019 301.41 116.216 301.391C116.806 301.351 117.377 301.312 117.967 301.233C118.085 301.233 118.203 301.214 118.321 301.194C119.777 300.978 121.193 300.643 122.571 300.151C122.708 300.112 122.846 300.053 122.964 299.994C123.495 299.797 124.027 299.581 124.558 299.345C124.755 299.266 124.951 299.168 125.148 299.069C125.62 298.833 126.092 298.577 126.565 298.322C126.742 298.223 126.938 298.125 127.115 298.007C127.745 297.633 128.355 297.22 128.965 296.767L312.034 160.503C312.684 160.031 313.293 159.519 313.884 158.988C314.021 158.87 314.139 158.732 314.257 158.614C314.71 158.201 315.143 157.768 315.536 157.316C315.635 157.198 315.713 157.08 315.812 156.981C316.225 156.489 316.638 156.017 317.012 155.486C317.071 155.407 317.11 155.329 317.169 155.27C317.563 154.719 317.956 154.148 318.291 153.558C318.31 153.519 318.33 153.479 318.35 153.44C318.704 152.81 319.038 152.181 319.353 151.532C319.373 151.492 319.392 151.433 319.412 151.394C319.707 150.764 319.963 150.115 320.199 149.446C320.258 149.289 320.297 149.112 320.357 148.935C320.534 148.384 320.711 147.833 320.848 147.282C321.025 146.554 321.183 145.787 321.281 145.039C321.399 144.272 321.458 143.524 321.498 142.757C321.517 142.186 321.498 141.616 321.498 141.065C321.498 140.868 321.498 140.691 321.498 140.494C321.458 139.806 321.399 139.117 321.301 138.428L321.34 138.35ZM318.389 144.527C317.582 149.977 314.71 154.817 310.283 158.103L127.214 294.367C122.787 297.653 117.337 299.05 111.888 298.243C106.438 297.436 101.618 294.564 98.3122 290.137L20.7758 185.981C13.9684 176.833 15.8769 163.867 25.0057 157.08L208.095 20.7957C211.794 18.0413 216.122 16.7232 220.411 16.7232C226.726 16.7232 232.963 19.5956 237.016 25.0454L314.553 129.201C317.838 133.628 319.215 139.078 318.428 144.527H318.389Z" fill="#FCF0E8"/>
<path d="M270.699 149.879L267.748 152.063L269.42 160.208L262.081 156.293L259.091 158.516L269.99 163.789L273.414 168.392L276.07 166.425L272.646 161.821L270.699 149.879Z" fill="#FCF0E8"/>
<path d="M252.795 175.062L257.005 171.914L255.451 169.809L251.221 172.957L248.703 169.573L254.212 165.461L252.618 163.317L244.453 169.396L253.621 181.712L254.29 182.617L256.946 180.65L256.277 179.745L252.795 175.062Z" fill="#FCF0E8"/>
<path d="M236.151 175.574L233.514 177.561L242.702 189.897L243.351 190.762L245.988 188.795L245.338 187.91L236.151 175.574Z" fill="#FCF0E8"/>
<path d="M234.419 194.146L230.052 197.392L221.788 186.276L219.132 188.244L228.36 200.639L228.969 201.465L235.974 196.251L235.344 195.405L234.419 194.146Z" fill="#FCF0E8"/>
<path d="M220.037 204.849L215.689 208.095L207.407 196.979L204.75 198.947L213.997 211.361L214.607 212.168L221.611 206.954L221.001 206.128L220.037 204.849Z" fill="#FCF0E8"/>
<path d="M203.688 215.394C203.531 213.899 202.96 212.522 201.996 211.223C201.032 209.945 199.871 209 198.514 208.43C197.156 207.839 195.74 207.643 194.264 207.82C192.808 207.997 191.451 208.548 190.211 209.492C188.972 210.417 188.047 211.538 187.457 212.896C186.847 214.253 186.63 215.67 186.788 217.145C186.945 218.621 187.496 219.998 188.46 221.297C189.424 222.595 190.605 223.54 191.982 224.13C193.339 224.7 194.736 224.897 196.192 224.7C196.192 224.7 196.212 224.7 196.231 224.7C197.707 224.504 199.045 223.953 200.284 223.028C201.524 222.103 202.449 220.962 203.039 219.624C203.039 219.605 203.039 219.585 203.058 219.546C203.629 218.208 203.845 216.831 203.688 215.394ZM195.995 221.71C195.11 221.788 194.264 221.631 193.418 221.218C192.572 220.805 191.824 220.156 191.175 219.27C190.506 218.385 190.113 217.48 189.975 216.575C189.818 215.65 189.916 214.784 190.25 213.978C190.605 213.171 191.175 212.463 191.982 211.873C192.788 211.282 193.615 210.928 194.48 210.83C195.346 210.732 196.212 210.889 197.038 211.302C197.864 211.715 198.612 212.345 199.261 213.23C199.911 214.116 200.324 215.021 200.481 215.945C200.639 216.87 200.54 217.736 200.225 218.562C199.891 219.369 199.32 220.057 198.514 220.667C197.707 221.277 196.881 221.611 195.995 221.71Z" fill="#FCF0E8"/>
<path d="M178.958 230.367C179.764 229.363 180.158 228.32 180.138 227.258C180.118 226.176 179.784 225.192 179.135 224.327C178.564 223.559 177.876 223.028 177.069 222.694C176.262 222.339 175.357 222.261 174.374 222.438C173.39 222.615 172.367 223.067 171.344 223.835L166.386 227.533L175.711 240.046L176.223 240.755L178.879 238.787L178.348 238.079L175.042 233.633L176.302 232.708L182.106 235.265L183.05 235.679L186.119 233.396L185.155 232.983L178.977 230.386L178.958 230.367ZM175.79 229.973L173.567 231.626L170.675 227.75L172.898 226.097C173.626 225.566 174.275 225.33 174.885 225.409C175.475 225.468 176.006 225.802 176.459 226.412C176.912 227.022 177.108 227.652 177.01 228.261C176.912 228.871 176.498 229.442 175.79 229.973Z" fill="#FCF0E8"/>
<path d="M156.844 237.941L160.365 235.324L158.772 233.18L149.072 240.4L150.666 242.525L154.188 239.909L161.939 250.336L162.451 250.985L165.087 249.018L164.595 248.349L156.844 237.941Z" fill="#FCF0E8"/>
<path d="M146.731 253.661C145.964 253.444 145.216 253.425 144.488 253.563C143.76 253.72 142.875 253.976 141.812 254.369C141.045 254.645 140.435 254.841 139.963 254.979C139.511 255.077 139.078 255.117 138.665 255.058C138.251 254.979 137.917 254.782 137.661 254.428C137.287 253.917 137.15 253.425 137.248 252.933C137.366 252.421 137.681 251.989 138.192 251.615C138.783 251.162 139.373 250.966 139.943 251.005C140.534 251.005 141.006 251.241 141.36 251.693L144.272 249.529C143.308 248.408 142.147 247.837 140.789 247.818C139.452 247.778 138.094 248.27 136.737 249.274C135.831 249.942 135.143 250.71 134.671 251.556C134.199 252.382 133.962 253.228 134.002 254.113C134.041 254.979 134.356 255.805 134.946 256.592C135.576 257.419 136.245 257.95 137.012 258.166C137.779 258.363 138.507 258.402 139.235 258.265C139.963 258.107 140.848 257.832 141.891 257.438C142.658 257.143 143.268 256.946 143.741 256.828C144.213 256.691 144.665 256.671 145.078 256.73C145.511 256.809 145.865 257.045 146.161 257.419C146.515 257.891 146.633 258.422 146.495 258.993C146.357 259.544 145.983 260.055 145.354 260.508C144.744 260.96 144.154 261.157 143.564 261.098C142.993 261.039 142.481 260.744 142.029 260.232L139.196 262.357C139.806 263.164 140.553 263.695 141.419 263.97C142.285 264.246 143.209 264.265 144.173 264.029C145.157 263.793 146.101 263.321 147.026 262.652C147.99 261.924 148.698 261.117 149.151 260.252C149.584 259.366 149.761 258.481 149.682 257.596C149.604 256.71 149.289 255.923 148.758 255.215C148.148 254.389 147.459 253.877 146.692 253.661H146.731Z" fill="#FCF0E8"/>
<path d="M209.217 50.7204L204.731 44.6804L213.23 47.7496L215.001 46.4314L208.43 37.5977L206.659 38.9158L211.165 44.9755L202.665 41.9063L200.895 43.2245L207.466 52.0386L209.217 50.7204Z" fill="#FCF0E8"/>
<path d="M193.634 59.0821C194.539 59.4559 195.484 59.5937 196.467 59.4559C197.451 59.3379 198.336 58.9641 199.182 58.3542C200.009 57.7443 200.619 56.977 201.012 56.0916C201.406 55.1866 201.563 54.2619 201.445 53.2782C201.327 52.2945 200.953 51.3501 200.304 50.4845C199.655 49.6188 198.887 49.0089 197.982 48.6154C197.077 48.2219 196.133 48.0842 195.149 48.2022C194.185 48.3203 193.28 48.6941 192.434 49.304C191.608 49.9139 190.998 50.6812 190.604 51.5862C190.211 52.4912 190.054 53.4356 190.172 54.4193C190.27 55.403 190.644 56.3277 191.293 57.1737C191.942 58.0394 192.71 58.669 193.634 59.0625V59.0821ZM192.493 52.3142C192.729 51.7633 193.123 51.3108 193.654 50.9173C194.185 50.5238 194.736 50.2877 195.326 50.2287C195.897 50.1697 196.467 50.268 197.038 50.5435C197.589 50.8189 198.081 51.2321 198.533 51.8223C198.966 52.4125 199.241 53.0224 199.34 53.6324C199.438 54.2423 199.379 54.8325 199.163 55.3637C198.927 55.8949 198.553 56.3671 198.022 56.7606C197.49 57.1541 196.94 57.3901 196.349 57.4688C195.759 57.5279 195.189 57.4098 194.638 57.1344C194.087 56.8589 193.575 56.4261 193.142 55.8359C192.71 55.2456 192.434 54.6554 192.336 54.0455C192.237 53.4356 192.296 52.8454 192.513 52.3142H192.493Z" fill="#FCF0E8"/>
<path d="M184.2 55.6697L182.433 56.9854L188.987 65.792L190.755 64.4764L184.2 55.6697Z" fill="#FCF0E8"/>
<path d="M173.823 67.1683C174.236 67.7191 174.688 68.0733 175.2 68.2307C175.711 68.3684 176.203 68.3881 176.675 68.2897C177.167 68.1716 177.738 67.9946 178.446 67.7388C178.958 67.5421 179.371 67.4043 179.666 67.3257C179.981 67.2273 180.276 67.2076 180.571 67.2666C180.846 67.3256 181.102 67.4634 181.279 67.7388C181.515 68.0536 181.594 68.4077 181.515 68.7815C181.417 69.1554 181.181 69.4898 180.768 69.8046C180.355 70.0997 179.961 70.2374 179.568 70.1981C179.174 70.1588 178.84 69.962 178.544 69.6275L176.656 71.0441C177.069 71.5753 177.561 71.9294 178.131 72.1262C178.702 72.3033 179.331 72.3229 179.961 72.1655C180.61 72.0081 181.24 71.6933 181.869 71.2408C182.519 70.749 182.991 70.2178 183.286 69.6275C183.581 69.0373 183.699 68.4471 183.64 67.8569C183.581 67.2666 183.384 66.7354 183.03 66.2632C182.617 65.7124 182.165 65.3779 181.653 65.2205C181.142 65.0828 180.65 65.0631 180.158 65.1615C179.666 65.2598 179.076 65.4369 178.387 65.6927C177.876 65.8698 177.462 66.0075 177.167 66.1058C176.872 66.1649 176.577 66.1845 176.302 66.1649C176.026 66.1255 175.81 65.9681 175.633 65.732C175.377 65.3976 175.298 65.0631 175.357 64.7286C175.436 64.3942 175.652 64.0991 175.987 63.8433C176.38 63.5482 176.774 63.4105 177.167 63.4498C177.561 63.4498 177.876 63.6072 178.112 63.9023L180.059 62.4464C179.489 61.7972 178.82 61.4234 178.053 61.3447C177.954 61.3447 177.856 61.3053 177.738 61.3053C176.833 61.2856 175.928 61.6004 175.023 62.289C174.413 62.7415 173.96 63.2531 173.646 63.8039C173.429 64.1778 173.331 64.5516 173.272 64.9254C173.232 65.1221 173.193 65.3189 173.213 65.5156C173.232 66.1058 173.449 66.6567 173.842 67.1683H173.823Z" fill="#FCF0E8"/>
<path d="M163.592 74.7821C164.005 75.333 164.458 75.6871 164.969 75.8445C165.481 75.9823 165.972 76.0019 166.445 75.9036C166.917 75.7855 167.507 75.6084 168.215 75.3527C168.727 75.1559 169.14 75.0182 169.435 74.9395C169.75 74.8411 170.045 74.8215 170.34 74.8805C170.635 74.9395 170.871 75.0772 171.048 75.3527C171.285 75.6675 171.363 76.0216 171.284 76.3954C171.186 76.7692 170.95 77.1037 170.537 77.4185C170.124 77.7136 169.73 77.8513 169.337 77.812C168.963 77.7726 168.609 77.5759 168.314 77.2414L166.425 78.658C166.838 79.1892 167.33 79.5433 167.92 79.74C168.491 79.9171 169.12 79.9368 169.75 79.7794C170.399 79.622 171.029 79.3072 171.658 78.8547C172.308 78.3629 172.78 77.8316 173.075 77.2611C173.37 76.6709 173.488 76.0806 173.429 75.4904C173.37 74.9002 173.173 74.369 172.819 73.8968C172.406 73.3459 171.953 73.0114 171.442 72.854C170.93 72.6966 170.439 72.6966 169.947 72.795C169.455 72.8934 168.865 73.0705 168.176 73.3262C167.664 73.523 167.251 73.641 166.956 73.7394C166.661 73.7984 166.366 73.8181 166.09 73.7984C165.815 73.7591 165.599 73.6017 165.422 73.3656C165.166 73.0311 165.087 72.6966 165.146 72.3622C165.225 72.0277 165.441 71.7326 165.776 71.4768C166.169 71.1817 166.563 71.044 166.956 71.0834C167.35 71.0834 167.664 71.2407 167.901 71.5359L169.848 70.08C169.297 69.4307 168.628 69.0766 167.881 68.9782C167.763 68.9782 167.645 68.9389 167.527 68.9389C166.622 68.9192 165.736 69.234 164.812 69.9226C164.202 70.3751 163.749 70.8866 163.434 71.4375C163.218 71.8113 163.1 72.2048 163.041 72.5983C163.021 72.7753 162.982 72.9524 162.982 73.1295C163.002 73.7197 163.218 74.2706 163.612 74.7821H163.592Z" fill="#FCF0E8"/>
<path d="M162.51 85.5046L164.28 84.1864L158.28 76.1396L157.709 75.3723L155.938 76.6905L156.509 77.4578L162.51 85.5046Z" fill="#FCF0E8"/>
<path d="M148.62 95.8336L150.391 94.5154L146.121 88.7902L152.771 92.7447L154.109 91.761L152.201 84.2651L156.47 89.9903L158.241 88.6918L152.26 80.645L151.669 79.8777L149.682 81.3533L149.918 82.396L151.748 89.9903L145 86.0751L144.075 85.5242L142.068 87.0195L142.659 87.8261L148.62 95.8336Z" fill="#FCF0E8"/>
<path d="M137.051 104.451L140.14 102.149C141.065 101.461 141.753 100.674 142.166 99.7882C142.599 98.9029 142.776 97.9782 142.658 97.0535C142.56 96.1091 142.166 95.1844 141.517 94.2991C140.868 93.4138 140.081 92.7842 139.215 92.4104C138.527 92.0956 137.779 92.0169 137.031 92.0562C136.835 92.0562 136.638 92.0562 136.421 92.0562C135.457 92.2136 134.513 92.6464 133.588 93.3351L130.5 95.6369L131.129 96.4829L137.071 104.451H137.051ZM137.346 94.063C138.232 94.2007 139.018 94.7319 139.707 95.6369C140.396 96.5616 140.671 97.447 140.533 98.3323C140.396 99.2177 139.884 100.005 138.959 100.693L137.7 101.618L133.372 95.7943L134.631 94.8697C135.556 94.1811 136.461 93.9056 137.366 94.063H137.346Z" fill="#FCF0E8"/>
<path d="M124.932 113.462L126.781 112.085L126.112 109.979L129.614 107.363L131.444 108.602L133.313 107.205L124.538 101.382L123.574 100.752L121.508 102.287L121.843 103.389L124.912 113.462H124.932ZM128.099 106.3L125.542 108.189L124.066 103.546L128.08 106.281L128.099 106.3Z" fill="#FCF0E8"/>
<path d="M111.632 123.378L116.295 119.895L115.252 118.498L112.36 120.643L107.501 114.131L106.832 113.245L105.081 114.564L105.749 115.449L111.632 123.378Z" fill="#FCF0E8"/>
<path d="M99.5322 132.388L101.382 131.011L100.713 128.906L104.215 126.289L106.044 127.529L107.913 126.132L99.1978 120.348L98.1747 119.659L96.1089 121.194L96.463 122.374L99.4929 132.369L99.5322 132.388ZM102.68 125.227L100.122 127.116L98.6469 122.473L102.66 125.207L102.68 125.227Z" fill="#FCF0E8"/>
<path d="M89.4591 139.884L91.2298 138.566L88.6721 135.143L89.4985 134.513L94.0039 136.5L96.05 134.985L91.2888 132.979C91.82 132.31 92.0758 131.621 92.0758 130.893C92.0758 130.165 91.8397 129.516 91.4069 128.945C91.0331 128.434 90.5609 128.08 90.0297 127.863C89.8329 127.785 89.6362 127.745 89.4198 127.706C89.046 127.627 88.6525 127.608 88.2393 127.706C87.5704 127.824 86.9015 128.139 86.2325 128.631L82.9272 131.09L83.6355 132.054L89.4788 139.904L89.4591 139.884ZM89.5968 130.323C89.9116 130.736 90.0297 131.149 89.9706 131.562C89.9116 131.956 89.6362 132.349 89.1443 132.703L87.6688 133.805L85.7407 131.208L87.2162 130.106C87.6884 129.752 88.1409 129.595 88.5344 129.654C88.9279 129.693 89.282 129.929 89.5772 130.323H89.5968Z" fill="#FCF0E8"/>
<path d="M80.2118 146.751L85.3272 142.954L84.2451 141.517L80.9004 143.996L79.1691 141.675L82.1399 139.452L81.0972 138.055L78.1264 140.258L76.4737 138.055L79.8184 135.556L79.4839 135.104L78.7559 134.12L73.6406 137.937L74.3883 138.92L80.2118 146.751Z" fill="#FCF0E8"/>
<path d="M74.1722 151.256L75.9429 149.938L70.1193 142.127L69.3717 141.104L67.601 142.422L68.3486 143.445L72.1064 148.482L70.7882 148.01L63.6071 145.413L61.8364 146.711L68.4076 155.545L70.1587 154.227L65.6729 148.187L72.8737 150.784L74.1722 151.256Z" fill="#FCF0E8"/>
<path d="M59.8492 159.677L58.1178 157.336L61.0887 155.132L60.0262 153.735L57.0751 155.939L55.4225 153.735L58.7671 151.237L57.7047 149.8L52.5894 153.597L59.1606 162.431L64.2759 158.614L63.1938 157.178L59.8492 159.677Z" fill="#FCF0E8"/>
<path d="M51.6842 160.385L46.9033 163.946L47.9067 165.304L50.9366 163.041C51.271 163.789 51.3694 164.497 51.212 165.166C51.0546 165.835 50.6218 166.425 49.9529 166.937C49.402 167.35 48.8314 167.586 48.2412 167.645C47.651 167.724 47.0804 167.625 46.5099 167.35C45.959 167.074 45.4671 166.661 45.0146 166.071C44.5818 165.5 44.326 164.91 44.2276 164.3C44.1293 163.69 44.1883 163.12 44.4244 162.589C44.6605 162.057 45.0343 161.585 45.5458 161.192C46.018 160.838 46.5099 160.641 47.0017 160.562C47.4936 160.484 47.9854 160.562 48.4576 160.779L50.4841 159.264C49.5594 158.595 48.5363 158.3 47.4542 158.359C46.3525 158.418 45.3097 158.811 44.326 159.559C43.48 160.188 42.8701 160.956 42.457 161.861C42.0635 162.746 41.9257 163.69 42.0438 164.674C42.1618 165.638 42.5553 166.563 43.1849 167.429C43.8342 168.294 44.6015 168.924 45.4868 169.317C46.3918 169.711 47.3165 169.848 48.3002 169.711C49.2643 169.573 50.189 169.199 51.035 168.55C51.7826 167.979 52.3531 167.33 52.7269 166.563C53.1008 165.796 53.2975 164.989 53.2975 164.182C53.2975 163.376 53.1204 162.608 52.786 161.92L51.6449 160.385H51.6842Z" fill="#FCF0E8"/>
</g>
<defs>
<clipPath id="clip0_2141_54">
<rect width="336.018" height="325" fill="white"/>
</clipPath>
</defs>
</svg>
