<svg width="246" height="250" viewBox="0 0 246 250" fill="none" xmlns="http://www.w3.org/2000/svg">
<g clip-path="url(#clip0_2141_120)">
<path d="M197.357 216.346C177.273 231.442 152.336 240.385 125.285 240.385C98.2338 240.385 73.297 231.442 53.213 216.346C44.1079 209.519 36.0119 201.418 29.1891 192.308C14.102 172.212 5.16514 147.26 5.16514 120.192C5.16514 101.659 9.36933 84.1106 16.8408 68.4375C6.15013 86.3942 0 107.38 0 129.808C0 159.808 11.003 187.236 29.1891 208.293C31.6155 211.106 34.162 213.798 36.8047 216.346C58.4022 237.163 87.7594 250 120.12 250C152.48 250 181.837 237.163 203.435 216.346C210.233 209.784 216.263 202.428 221.381 194.447C224.023 190.312 226.426 186.034 228.564 181.562C226.353 185.264 223.975 188.87 221.381 192.308C214.558 201.418 206.462 209.519 197.357 216.346Z" fill="#2A2421"/>
<path d="M221.38 48.0769C214.558 38.9663 206.462 30.8654 197.356 24.0385C177.272 8.94231 152.312 0 125.285 0C98.2578 0 73.2969 8.94231 53.2129 24.0385C44.1078 30.8654 36.0118 38.9663 29.189 48.0769C24.4322 54.399 20.3001 61.226 16.8407 68.4375C9.3452 84.1106 5.16504 101.659 5.16504 120.192C5.16504 147.26 14.1019 172.212 29.189 192.308C36.0118 201.418 44.1078 209.519 53.2129 216.346C73.2969 231.442 98.2337 240.385 125.285 240.385C152.336 240.385 177.272 231.442 197.356 216.346C206.462 209.519 214.558 201.418 221.38 192.308C223.975 188.87 226.353 185.264 228.564 181.562C239.254 163.606 245.404 142.62 245.404 120.192C245.404 93.125 236.467 68.1731 221.38 48.0769ZM221.38 181.659C212.467 195.577 200.624 207.428 186.714 216.346C168.96 227.74 147.891 234.375 125.285 234.375C102.678 234.375 81.6092 227.74 63.8555 216.346C49.9456 207.428 38.1018 195.577 29.189 181.659C17.8016 163.894 11.171 142.812 11.171 120.192C11.171 97.5721 17.8016 76.4904 29.189 58.726C38.1018 44.8077 49.9456 32.9567 63.8555 24.0385C65.2489 23.149 66.6663 22.2837 68.0837 21.4423C84.9005 11.6346 104.432 6.00961 125.285 6.00961C147.891 6.00961 168.96 12.6442 186.714 24.0385C200.624 32.9567 212.467 44.8077 221.38 58.726C231.831 75.024 238.269 94.1106 239.254 114.615C239.35 116.466 239.398 118.317 239.398 120.192C239.398 142.812 232.768 163.894 221.38 181.659Z" fill="#F0B730"/>
<path d="M218.234 60.5049C208.552 45.4568 195.339 32.9087 179.747 24.0386C163.651 14.8799 145.081 9.61548 125.285 9.61548C124.42 9.61548 123.579 9.66356 122.714 9.68759C103.88 10.1203 86.198 15.2886 70.8227 24.0386C53.4774 33.9184 39.0631 48.3414 29.1893 65.6972C20.0361 81.803 14.7749 100.385 14.7749 120.192C14.7749 140 20.0361 158.606 29.1893 174.688C39.0631 192.043 53.4774 206.466 70.8227 216.346C86.9188 225.505 105.489 230.769 125.285 230.769C145.081 230.769 163.651 225.505 179.747 216.346C197.092 206.466 211.507 192.043 221.381 174.688C230.534 158.582 235.795 140 235.795 120.192C235.795 100.385 230.534 81.7789 221.381 65.6972C220.372 63.9424 219.339 62.2116 218.234 60.5289V60.5049ZM200.095 77.9568C198.174 78.9184 197.213 79.3991 195.291 80.3366C193.201 76.2501 191.999 74.327 189.333 70.7693C184.912 73.8222 182.726 75.3607 178.306 78.4136C177.249 76.9953 176.672 76.2982 175.519 74.9761C183.711 68.4136 191.903 61.8511 200.095 55.2886C205.14 61.0097 209.321 67.4039 212.564 74.2068C210.618 75.1203 209.657 75.577 207.711 76.4905C205.02 70.8655 203.435 68.2453 199.855 63.4616C197.405 65.1684 196.18 66.0097 193.705 67.7164C196.54 71.5145 197.837 73.5578 200.071 77.9328L200.095 77.9568ZM159.087 204.135C159.087 205.697 158.702 207.212 157.982 208.654C157.261 210.096 156.252 211.274 155.003 212.188C153.321 213.414 151.159 214.327 148.54 214.832C143.831 215.769 139.675 214.952 136.552 212.644C133.453 210.337 131.892 206.779 131.483 202.14C131.099 197.548 131.964 193.918 133.645 191.154C135.327 188.39 137.561 186.803 140.684 186.178C143.831 185.553 146.69 186.13 149.621 187.981C152.552 189.832 155.171 192.716 157.165 196.923C158.438 199.615 159.111 202.019 159.087 204.135ZM91.4593 36.9232C91.4593 35.2886 91.8437 33.678 92.5644 32.1636C93.2851 30.6491 94.2941 29.3991 95.5433 28.4136C97.225 27.1155 99.3872 26.1539 102.006 25.6251C106.714 24.6395 110.871 25.5049 113.994 27.9328C117.093 30.3847 118.654 34.1347 119.063 39.0145C119.447 43.8462 118.582 47.6924 116.901 50.6251C115.219 53.5578 112.985 55.2164 109.862 55.8655C106.714 56.5145 103.856 55.9136 100.925 53.9664C97.9938 52.0193 95.3752 48.9664 93.3812 44.5193C92.1079 41.6828 91.4352 39.1347 91.4593 36.9232ZM142.15 108.534L142.414 107.765C142.702 106.971 143.543 106.563 144.336 106.875C145.105 107.188 145.513 108.101 145.249 108.894L145.009 109.615L150.534 111.731L163.723 108.197C164.516 107.981 165.357 108.486 165.573 109.327C165.789 110.168 165.333 111.01 164.54 111.226L151.759 114.64L151.591 115.385L150.534 120.409C150.462 120.793 150.222 121.13 149.909 121.346C146.931 123.125 144.696 126.226 144.336 129.808C144.264 130.577 144.24 131.37 144.336 132.164L155.171 130.553C156.036 130.313 156.876 130.048 157.741 129.784C165.261 127.5 172.3 124.471 175.231 115.962C175.159 115.745 175.014 115.577 174.918 115.361C173.957 113.462 172.228 111.827 170.33 111.13C169.537 110.841 169.105 109.952 169.369 109.135C169.633 108.317 170.474 107.885 171.267 108.173C174.27 109.279 177.033 112.091 178.162 115.192C178.162 115.24 178.186 115.313 178.21 115.361C179.603 120.505 179.339 125.529 177.633 129.784C175.519 135.096 171.147 139.231 164.972 140.89L131.459 149.88C131.075 149.976 130.666 149.928 130.33 149.712L123.219 145.385L119.279 146.442L120.552 151.202C120.768 152.043 120.312 152.885 119.519 153.101L93.6695 160.024C89.153 161.226 84.4443 157.813 83.9398 152.933L81.5134 129.784L80.6485 121.442L79.0149 115.361L75.6275 102.74C74.4744 98.4616 76.8768 94.0866 80.9608 92.9809L92.7085 89.8318L108.781 78.8943C109.717 78.4136 110.462 78.6539 110.991 79.6155L115.387 90.0722C115.723 90.8655 115.387 91.7789 114.618 92.1155C113.874 92.452 112.985 92.0674 112.648 91.2741L111.495 88.5578L96.7926 98.2693L98.3782 104.087V104.135C98.8586 106.13 98.5704 108.197 97.6094 109.976L94.6545 115.385L93.6214 117.284C92.6124 119.135 90.9788 120.433 88.9848 120.962L83.6995 122.38L84.0599 125.769L90.9307 123.918C94.8947 122.861 99.0508 123.678 102.366 126.058V118.678C102.366 118.317 102.486 117.957 102.702 117.668L104.6 115.361L116.612 100.769L115.267 97.5482C114.931 96.7549 115.267 95.8414 116.036 95.5049C116.78 95.1684 117.669 95.553 118.006 96.3463L119.471 99.8318L126.174 102.404L126.871 101.082C127.255 100.337 128.168 100.072 128.913 100.505C129.633 100.938 129.922 101.875 129.513 102.644L129.057 103.51L134.558 105.625L135.423 103.966C135.807 103.221 136.72 102.957 137.441 103.365C138.162 103.798 138.45 104.736 138.066 105.505L137.441 106.731L142.198 108.534H142.15ZM192.528 47.7405C185.153 55.1203 177.801 62.5241 170.426 69.9039C169.105 68.7501 168.432 68.1972 167.039 67.1395C173.861 59.303 180.66 51.4664 187.483 43.6299C189.549 45.1924 190.558 46.0097 192.504 47.7164L192.528 47.7405ZM159.471 29.4232C161.945 30.2405 163.171 30.6732 165.597 31.6587C162.69 37.6924 159.759 43.7501 156.828 49.7837C156.108 51.2982 155.363 52.8126 154.642 54.303C158.102 55.6972 160.168 56.6347 162.834 58.1732C163.555 58.5818 164.3 59.0145 165.141 59.5434C164.588 60.3366 164.156 60.9136 163.723 61.5145C163.243 62.2116 162.738 62.8607 162.09 63.7741C156.9 60.6011 154.09 59.327 148.252 57.428C149.045 55.4087 149.861 53.4136 150.654 51.4184C153.585 44.0866 156.516 36.7549 159.447 29.4232H159.471ZM85.4052 182.692C86.6305 181.082 87.2311 180.289 88.4563 178.678C93.6455 181.683 96.4563 182.885 102.294 184.688C98.5704 193.534 94.8226 202.38 91.0989 211.226C88.6245 210.457 87.3992 210.024 84.9728 209.111C88.6245 201.947 92.2761 194.808 95.9277 187.644C91.5554 185.986 89.4172 185 85.4293 182.668L85.4052 182.692ZM134.342 24.3751C133.501 32.5722 132.684 40.7934 131.843 48.9905C136.6 49.3751 138.979 49.7597 143.591 50.8174C143.279 51.8991 143.063 52.6924 142.822 53.5097C142.63 54.1587 142.438 54.8318 142.198 55.7213C140.612 55.3607 139.243 55.0722 137.97 54.8078C134.366 54.1347 131.459 53.8943 126.895 53.7741C127.183 43.8463 127.471 33.9184 127.759 24.0145C130.402 24.0626 131.699 24.1347 134.342 24.3511V24.3751ZM67.5074 40.2645C70.3663 38.3895 72.7206 37.3799 74.3783 37.1155C76.0359 36.8511 77.6455 37.1155 79.159 37.9328C80.6725 38.7501 81.8737 39.9761 82.7866 41.5386C83.9398 43.5338 84.3001 45.4568 84.0119 47.2837C83.7236 49.1107 82.6905 50.7212 80.9368 52.2116C82.3782 52.2597 83.6515 52.5482 84.8046 52.9809C85.9578 53.4136 87.6875 54.3751 89.9458 55.9376C92.204 57.5001 93.2851 58.2934 95.3992 59.9761C93.4773 60.8174 92.5404 61.2982 90.7145 62.3078C88.144 60.6732 86.7986 59.8799 84.0359 58.4136C81.5614 57.1155 79.8797 56.4184 79.087 56.178C78.2942 55.9616 77.5975 55.9136 76.9969 56.0337C76.3963 56.1539 75.6035 56.5866 74.6425 57.3078C74.3062 57.5722 74.138 57.6924 73.8017 57.9568C77.2852 61.8511 79.0149 63.7741 82.4743 67.6684C81.105 68.7261 80.4323 69.303 79.135 70.4809C71.6636 63.1972 64.1921 55.8895 56.7447 48.6059C60.8047 44.928 62.9669 43.2693 67.5314 40.2645H67.5074ZM50.5465 54.7838C52.2042 56.1299 53.021 56.803 54.6786 58.1491C52.2522 60.8414 51.1231 62.2837 49.009 65.2886C53.8138 68.4616 58.6426 71.6347 63.4714 74.8078C65.9699 76.4424 68.4684 78.1011 70.9428 79.7357C69.9098 81.202 69.4293 81.9472 68.5164 83.5097C67.1951 82.7645 65.8978 82.0193 64.5765 81.2982C58.2582 77.7405 51.9159 74.1828 45.5976 70.6011C43.6997 73.8222 42.8349 75.5289 41.2973 79.0866C39.3274 78.2453 38.3424 77.8126 36.3724 76.9472C40.3364 68.7982 44.7568 61.8511 50.5706 54.7838H50.5465ZM29.4535 99.3991C30.1742 94.6395 31.8559 91.4424 34.1142 89.7357C36.3724 88.0289 38.943 87.6924 41.7297 88.4857C41.0571 91.0097 40.7688 92.3078 40.2883 94.9761C38.6547 94.8799 37.3574 95.2164 36.4685 96.0578C35.5796 96.8751 34.931 98.3174 34.6427 100.337C34.3304 102.452 34.5226 104.183 35.1712 105.481C35.5796 106.322 36.2042 106.779 37.0211 106.851C37.7658 106.923 38.4385 106.635 39.015 105.986C39.7838 105.168 40.6727 103.077 41.9219 100C43.1712 96.9232 44.4685 94.8799 45.5976 93.6539C46.7267 92.452 48.0721 91.6828 49.5856 91.3463C51.0991 91.0097 52.8288 91.202 54.7267 91.827C56.4564 92.4039 57.9219 93.3414 59.1951 94.6155C60.4684 95.8655 61.2852 97.2838 61.6936 98.8703C62.102 100.457 62.102 102.284 61.7657 104.471C61.2852 107.644 60.1801 110.096 58.2582 111.899C56.3363 113.702 53.6456 114.928 50.1381 115.361C50.1381 115.361 50.1381 115.361 50.1381 115.385V115.361C49.8979 112.837 49.8258 111.587 49.7537 109.111C51.8438 108.918 53.4294 108.341 54.5105 107.404C55.5916 106.466 56.2162 105.192 56.4804 103.51C56.7447 101.755 56.6006 100.361 55.9279 99.303C55.2792 98.2213 54.3904 97.5241 53.2612 97.2357C52.5405 97.0434 51.8678 97.0914 51.2672 97.3559C50.6666 97.6203 50.0661 98.2213 49.4895 99.1347C49.1051 99.7838 48.3363 101.25 47.3273 103.774C46.0541 107.019 44.8529 109.471 43.5556 110.89C41.7297 112.885 39.6156 114.015 37.1172 113.966C35.5075 113.966 34.0181 113.365 32.6487 112.188C31.2793 111.01 30.2703 109.303 29.7178 107.091C29.1412 104.88 29.0451 102.26 29.4775 99.3511L29.4535 99.3991ZM32.6007 155.12C36.5166 150.697 38.6066 148.63 43.003 144.856C37.5736 142.933 34.8589 141.707 29.5736 138.75C29.3094 135.769 29.2133 134.039 29.1893 131.274V129.856C34.931 134.399 41.3454 138.221 48.2883 141.082C53.5255 140.313 56.1441 139.952 61.3813 139.183C61.6696 141.13 61.8378 142.091 62.2702 143.942C57.1051 145.096 54.4865 145.673 49.3213 146.827C44.012 151.659 39.3033 157.043 35.2193 162.74C34.0421 159.808 33.5136 158.293 32.6247 155.168L32.6007 155.12ZM37.958 168.774C39.9039 167.909 40.8649 167.476 42.8108 166.611C45.5015 171.947 47.0871 174.423 50.6666 178.966C53.1171 177.356 54.3423 176.539 56.8168 174.928C53.9819 171.322 52.6847 169.399 50.4504 165.24C52.3723 164.327 53.3333 163.87 55.2552 162.981C57.3453 166.851 58.5465 168.678 61.2132 172.043C65.6336 169.135 67.8197 167.692 72.2401 164.784C73.2972 166.13 73.8738 166.779 75.0269 168.029C66.8348 174.255 58.6426 180.457 50.4504 186.659C45.4054 181.226 41.2252 175.192 37.982 168.75L37.958 168.774ZM63.063 197.789C60.9969 196.298 59.9879 195.529 58.042 193.918C65.4173 186.923 72.7687 179.928 80.144 172.909C81.4653 173.99 82.138 174.519 83.5314 175.529C76.7086 182.957 69.9098 190.385 63.087 197.813L63.063 197.789ZM116.228 216.01C117.069 208.245 117.886 200.457 118.726 192.692C113.97 192.332 111.591 191.971 106.979 190.962C107.531 189.111 107.82 188.173 108.372 186.322C114.378 187.644 117.477 188.005 123.675 188.149C123.387 197.548 123.099 206.947 122.81 216.346C120.168 216.298 118.871 216.226 116.228 216.01ZM183.062 200.986C180.204 202.765 177.849 203.702 176.192 203.966C174.534 204.231 172.924 203.966 171.411 203.197C169.897 202.428 168.696 201.274 167.783 199.784C166.63 197.885 166.27 196.082 166.558 194.327C166.846 192.596 167.879 191.082 169.633 189.664C168.192 189.615 166.918 189.351 165.765 188.942C164.612 188.534 162.882 187.62 160.624 186.154C158.366 184.688 157.285 183.918 155.171 182.332C157.093 181.515 158.03 181.082 159.855 180.144C162.426 181.707 163.771 182.452 166.534 183.822C169.008 185.048 170.69 185.721 171.483 185.938C172.276 186.154 172.972 186.202 173.573 186.058C174.174 185.914 174.966 185.529 175.927 184.856C176.264 184.615 176.432 184.495 176.768 184.255C173.285 180.577 171.555 178.75 168.096 175.072C169.465 174.063 170.138 173.534 171.435 172.428C178.906 179.327 186.378 186.25 193.825 193.149C189.765 196.635 187.603 198.197 183.038 201.034L183.062 200.986ZM199.999 187.212C198.342 185.938 197.525 185.313 195.867 184.039C198.294 181.49 199.423 180.12 201.537 177.26C194.234 172.692 186.906 168.149 179.603 163.582C180.636 162.212 181.117 161.49 182.029 160C189.669 164.063 197.309 168.149 204.948 172.236C206.846 169.183 207.711 167.572 209.249 164.207C211.219 165.024 212.204 165.409 214.173 166.226C210.21 173.942 205.789 180.529 199.975 187.212H199.999ZM221.116 144.952C220.396 149.471 218.714 152.5 216.456 154.111C214.198 155.721 211.627 156.034 208.84 155.289C209.513 152.885 209.801 151.659 210.282 149.135C211.915 149.231 213.213 148.894 214.101 148.125C214.99 147.356 215.639 145.986 215.927 144.063C216.24 142.067 216.047 140.409 215.399 139.183C214.99 138.39 214.366 137.957 213.549 137.885C212.804 137.813 212.131 138.101 211.555 138.702C210.786 139.471 209.897 141.442 208.648 144.375C207.399 147.308 206.101 149.231 204.972 150.385C203.843 151.539 202.498 152.26 200.984 152.572C199.471 152.885 197.741 152.716 195.843 152.115C194.113 151.563 192.648 150.673 191.375 149.471C190.102 148.269 189.285 146.947 188.876 145.433C188.468 143.918 188.468 142.188 188.804 140.12C189.285 137.115 190.39 134.784 192.312 133.077C194.234 131.37 196.924 130.216 200.432 129.808C200.672 132.188 200.744 133.39 200.816 135.721C198.726 135.914 197.141 136.466 196.059 137.332C194.978 138.221 194.354 139.423 194.089 141.01C193.825 142.692 193.969 143.99 194.642 145C195.291 146.01 196.18 146.683 197.309 146.947C198.029 147.115 198.702 147.091 199.303 146.827C199.903 146.563 200.504 146.01 201.08 145.12C201.465 144.519 202.234 143.101 203.243 140.721C204.516 137.644 205.717 135.337 207.014 133.966C208.84 132.067 210.954 131.01 213.453 131.034C215.062 131.034 216.552 131.587 217.921 132.716C219.291 133.846 220.3 135.457 220.852 137.548C221.429 139.64 221.525 142.115 221.092 144.88L221.116 144.952ZM221.381 115.361C215.639 110.577 209.225 106.539 202.282 103.51C197.044 104.327 194.426 104.712 189.189 105.529C188.9 103.486 188.732 102.476 188.3 100.505C193.489 99.2789 196.083 98.678 201.249 97.452C206.558 92.3318 211.267 86.6828 215.351 80.6491C216.528 83.7501 217.056 85.3607 217.945 88.6539C214.029 93.3414 211.939 95.5049 207.543 99.4953C212.972 101.539 215.687 102.813 220.972 105.938C221.237 109.063 221.333 110.89 221.357 113.774V115.337L221.381 115.361Z" fill="#F0B730"/>
<path d="M77.7896 48.7741C78.222 48.2213 78.4142 47.5963 78.4142 46.8991C78.4142 46.202 78.15 45.4568 77.6214 44.6876C77.0449 43.8222 76.3482 43.2453 75.5314 43.0049C74.7146 42.7405 73.8016 42.7886 72.8647 43.1972C72.4083 43.3895 71.111 44.1347 69.0689 45.553C67.5074 46.6347 66.7146 47.2116 65.2251 48.3655C67.3392 50.7213 68.3963 51.8991 70.4863 54.2549C71.7836 53.2453 72.4563 52.7405 73.8257 51.803C76.0359 50.2645 77.3812 49.327 77.8136 48.7741H77.7896Z" fill="#F0B730"/>
<path d="M98.6423 42.5481C99.8195 45.7692 101.357 48.0288 103.159 49.375C104.961 50.7212 106.69 51.2019 108.564 50.8173C110.414 50.4327 111.759 49.3269 112.696 47.4279C113.633 45.5288 113.922 42.8606 113.369 39.4231C112.84 36.0096 111.735 33.5577 109.958 32.0913C108.156 30.649 105.922 30.1442 103.399 30.6731C100.877 31.2019 99.0988 32.5481 98.1858 34.5913C97.2729 36.6346 97.4651 39.3029 98.6663 42.5721L98.6423 42.5481Z" fill="#F0B730"/>
<path d="M134.125 113.029C133.621 113.822 132.948 114.014 132.107 113.63C131.387 113.197 131.098 112.26 131.483 111.49L133.092 108.365L127.567 106.25L125.213 110.721C124.708 111.514 124.011 111.707 123.17 111.298C122.45 110.865 122.161 109.928 122.57 109.159L124.684 105.144L118.798 102.909L108.54 115.361L105.297 119.303V128.894L106.065 129.784L113.152 138.077L121.945 135.721C122.738 135.505 123.579 136.01 123.795 136.851C124.011 137.692 123.555 138.534 122.762 138.75L113.393 141.274C105.729 147.548 96.2397 150.144 86.4619 149.111L86.8223 152.668C87.567 155.986 89.537 157.428 92.7562 156.995L96.2156 156.058L95.7832 154.447C95.567 153.606 96.0234 152.764 96.8162 152.548C97.609 152.332 98.4499 152.837 98.6661 153.678L99.0985 155.288L108.18 152.861L107.747 151.25C107.531 150.409 107.987 149.567 108.78 149.351C109.573 149.135 110.414 149.639 110.63 150.481L111.062 152.091L117.14 150.457L115.867 145.697C115.651 144.856 116.107 144.014 116.9 143.798L122.882 142.188C123.267 142.091 123.675 142.139 124.011 142.356L131.122 146.683L138.041 144.832L137.609 143.221C137.393 142.38 137.849 141.538 138.642 141.322C139.435 141.106 140.276 141.611 140.492 142.452L140.924 144.063L150.005 141.635L149.573 140.024C149.357 139.183 149.813 138.341 150.606 138.125C151.399 137.909 152.239 138.413 152.456 139.255L152.888 140.865L161.969 138.438L161.537 136.827C161.32 135.986 161.777 135.144 162.57 134.928C163.363 134.712 164.203 135.216 164.42 136.058L164.852 137.644C168.912 136.322 172.083 133.438 174.005 129.808C175.374 127.236 176.143 124.279 176.071 121.226C173.957 124.88 170.714 127.74 167.038 129.808C163.507 131.803 159.519 133.077 155.675 133.654L128.984 137.596C128.167 137.716 127.399 137.115 127.255 136.274C127.11 135.409 127.663 134.639 128.48 134.519L141.285 132.62C141.164 131.683 141.14 130.745 141.212 129.832C141.453 125.745 143.447 121.947 146.858 119.615L147.651 119.087L148.444 115.409L148.66 114.375L143.927 112.572L142.942 115.409L142.75 115.962C142.318 116.827 141.669 117.139 140.828 116.851C140.227 116.611 139.867 116.034 139.843 115.409C139.843 115.216 139.843 115.024 139.915 114.832L141.092 111.49L135.927 109.519L134.077 113.077L134.125 113.029Z" fill="#F0B730"/>
<path d="M110.486 139.615L102.703 130.505C102.486 130.24 102.246 130.024 102.006 129.808C99.2431 127.067 95.3752 125.962 91.6755 126.947L84.3242 128.918L84.4203 129.808L86.102 145.962C95.4233 147.067 103.423 145 110.462 139.615H110.486Z" fill="#F0B730"/>
<path d="M88.1437 117.933C89.3449 117.62 90.3539 116.803 90.9786 115.697L91.1467 115.385L94.9665 108.389C95.5431 107.332 95.7113 106.058 95.447 104.856L93.9816 99.4712L78.8945 103.51L82.0657 115.385L83.1227 119.303L88.1678 117.957L88.1437 117.933Z" fill="#F0B730"/>
<path d="M110.198 85.6491L108.9 82.5481L95.0146 92.0192L95.8555 95.0962L110.198 85.6491Z" fill="#F0B730"/>
<path d="M92.2519 93.197L81.7054 96.0336C79.7114 96.5624 78.3661 98.3893 78.27 100.433L93.1168 96.4422L92.2279 93.197H92.2519Z" fill="#F0B730"/>
<path d="M151.903 198.798C150.726 195.745 149.188 193.606 147.387 192.332C145.585 191.058 143.855 190.601 141.981 190.986C140.131 191.346 138.786 192.404 137.849 194.207C136.912 196.01 136.624 198.534 137.177 201.803C137.705 205.024 138.81 207.356 140.588 208.75C142.39 210.12 144.624 210.601 147.146 210.096C149.669 209.591 151.447 208.317 152.36 206.394C153.273 204.471 153.08 201.923 151.879 198.822L151.903 198.798Z" fill="#F0B730"/>
<path d="M172.78 192.909C172.347 193.438 172.155 194.015 172.155 194.688C172.155 195.361 172.42 196.058 172.948 196.779C173.525 197.596 174.221 198.125 175.038 198.39C175.855 198.63 176.768 198.582 177.705 198.221C178.161 198.029 179.459 197.332 181.501 195.986C183.062 194.952 183.855 194.423 185.344 193.317C183.23 191.082 182.173 189.952 180.083 187.74C178.786 188.702 178.113 189.159 176.744 190.048C174.534 191.49 173.188 192.404 172.756 192.933L172.78 192.909Z" fill="#F0B730"/>
<path d="M50.1139 115.385V115.361H50.0898L50.1139 115.385Z" fill="#FCF0E8"/>
<path d="M32.6246 112.236C33.9939 113.413 35.4834 113.99 37.093 114.014C39.5915 114.038 41.7056 112.933 43.5314 110.937C44.8287 109.519 46.0059 107.067 47.3032 103.822C48.3122 101.298 49.081 99.8076 49.4653 99.1826C50.0419 98.2451 50.6425 97.6682 51.2431 97.4038C51.8437 97.1394 52.4924 97.0913 53.2371 97.2836C54.3662 97.5721 55.2311 98.2692 55.9038 99.3509C56.5524 100.433 56.7206 101.803 56.4563 103.558C56.192 105.216 55.5674 106.514 54.4863 107.452C53.4053 108.389 51.8437 108.966 49.7296 109.159C49.8017 111.611 49.8737 112.885 50.114 115.409C53.6455 114.976 56.3122 113.774 58.2341 111.947C60.156 110.144 61.2371 107.692 61.7416 104.519C62.0779 102.332 62.0779 100.529 61.6695 98.9182C61.2611 97.3317 60.4443 95.9134 59.171 94.6634C57.8977 93.4134 56.4083 92.4519 54.7026 91.875C52.8047 91.25 51.099 91.0576 49.5614 91.3942C48.0479 91.7307 46.7026 92.4759 45.5735 93.7019C44.4443 94.9038 43.1711 96.9471 41.8978 100.048C40.6486 103.125 39.7356 105.216 38.9909 106.034C38.3903 106.683 37.7417 106.971 36.9969 106.899C36.1801 106.827 35.5555 106.37 35.1471 105.529C34.4984 104.231 34.3062 102.476 34.6186 100.385C34.9309 98.3413 35.5555 96.923 36.4444 96.1057C37.3333 95.2884 38.6065 94.9278 40.2642 95.024C40.7447 92.3798 41.0329 91.0817 41.7056 88.5336C38.9188 87.7403 36.3483 88.0769 34.09 89.7836C31.8318 91.4903 30.1501 94.6874 29.4294 99.4471C28.997 102.356 29.0931 105 29.6696 107.187C30.2462 109.399 31.2312 111.106 32.6005 112.284L32.6246 112.236Z" fill="#FCF0E8"/>
<path d="M45.5734 70.601C51.8917 74.1587 58.234 77.7164 64.5523 81.2981C65.8736 82.0433 67.1709 82.7885 68.4923 83.5097C69.4052 81.9472 69.9097 81.1779 70.9187 79.7356C68.4202 78.101 65.9457 76.4423 63.4472 74.8077C58.6184 71.6347 53.8136 68.4616 48.9848 65.2885C51.0989 62.2837 52.2521 60.8414 54.6545 58.1491C52.9968 56.8029 52.18 56.1298 50.5224 54.7837C44.7086 61.851 40.2882 68.7981 36.3242 76.9471C38.2942 77.7885 39.2792 78.2212 41.2491 79.0866C42.7867 75.5289 43.6515 73.8462 45.5494 70.601H45.5734Z" fill="#FCF0E8"/>
<path d="M82.4499 67.6683C78.9665 63.774 77.2367 61.851 73.7773 57.9567C74.1136 57.6923 74.2818 57.5721 74.6181 57.3077C75.5791 56.5865 76.3719 56.1538 76.9725 56.0337C77.5731 55.9135 78.2698 55.9375 79.0626 56.1779C79.8554 56.3942 81.537 57.0913 84.0115 58.4135C86.7742 59.8798 88.1196 60.649 90.6901 62.3077C92.516 61.2981 93.4529 60.8414 95.3748 59.976C93.2847 58.2933 92.1796 57.5 89.9214 55.9375C87.6872 54.375 85.9334 53.4375 84.7803 52.9808C83.6271 52.524 82.3538 52.2596 80.9124 52.2115C82.6662 50.7212 83.6992 49.1106 83.9875 47.2837C84.2758 45.4567 83.9154 43.5337 82.7623 41.5385C81.8493 39.9519 80.6722 38.75 79.1346 37.9327C77.6211 37.1154 76.0115 36.851 74.3539 37.1154C72.6962 37.3798 70.3659 38.3894 67.483 40.2644C62.9185 43.2692 60.7563 44.9279 56.6963 48.6058C64.1677 55.8894 71.6151 63.1971 79.0866 70.4808C80.3839 69.3029 81.0566 68.75 82.4259 67.6683H82.4499ZM70.462 54.2548C68.3479 51.899 67.3149 50.7212 65.2008 48.3654C66.7143 47.1875 67.483 46.6346 69.0446 45.5529C71.0866 44.1346 72.3839 43.3894 72.8404 43.1971C73.7773 42.8125 74.6662 42.7644 75.507 43.0048C76.3238 43.2692 77.0205 43.8221 77.5971 44.6875C78.1016 45.4567 78.3659 46.2019 78.3899 46.899C78.3899 47.5962 78.1977 48.2212 77.7653 48.774C77.3328 49.3269 75.9875 50.2885 73.7773 51.8029C72.4079 52.7404 71.7593 53.2452 70.438 54.2548H70.462Z" fill="#FCF0E8"/>
<path d="M100.925 53.9664C103.855 55.9135 106.714 56.5145 109.861 55.8654C112.985 55.2164 115.219 53.5337 116.9 50.625C118.582 47.6923 119.447 43.8702 119.063 39.0145C118.678 34.1347 117.117 30.3847 113.994 27.9327C110.894 25.4808 106.738 24.6395 102.006 25.625C99.387 26.1779 97.2249 27.1395 95.5432 28.4135C94.2939 29.375 93.2849 30.625 92.5642 32.1635C91.8435 33.702 91.4831 35.2885 91.4591 36.9231C91.4351 39.1587 92.1078 41.6827 93.381 44.5193C95.351 48.9664 97.9696 52.0193 100.925 53.9664ZM98.1858 34.5433C99.0987 32.5 100.877 31.1539 103.399 30.625C105.922 30.0962 108.156 30.625 109.958 32.0433C111.759 33.5097 112.864 35.9616 113.369 39.375C113.897 42.8125 113.633 45.4808 112.696 47.3798C111.759 49.2789 110.414 50.3847 108.564 50.7693C106.714 51.1539 104.961 50.6972 103.159 49.327C101.357 47.9808 99.8194 45.7452 98.6423 42.5C97.4411 39.2068 97.2489 36.5385 98.1618 34.4952L98.1858 34.5433Z" fill="#FCF0E8"/>
<path d="M126.895 53.7981C131.459 53.8942 134.342 54.1346 137.97 54.8317C139.267 55.0721 140.636 55.3606 142.198 55.7452C142.438 54.8798 142.63 54.2067 142.822 53.5337C143.063 52.7163 143.279 51.9231 143.591 50.8413C138.955 49.7596 136.6 49.399 131.843 49.0144C132.684 40.8173 133.501 32.5962 134.342 24.399C131.723 24.1827 130.402 24.1106 127.759 24.0625C127.471 33.9904 127.183 43.9183 126.895 53.8221V53.7981Z" fill="#FCF0E8"/>
<path d="M148.276 57.4279C154.09 59.3269 156.924 60.601 162.114 63.7741C162.762 62.8606 163.243 62.1875 163.747 61.5144C164.18 60.9375 164.588 60.3366 165.165 59.5433C164.324 59.0385 163.579 58.5818 162.858 58.1731C160.168 56.6346 158.126 55.6731 154.666 54.3029C155.387 52.7885 156.132 51.2741 156.852 49.7837C159.783 43.75 162.69 37.6923 165.621 31.6587C163.219 30.6971 161.994 30.2404 159.495 29.4231C156.564 36.7548 153.633 44.0866 150.702 51.4183C149.91 53.4135 149.093 55.4327 148.3 57.4279H148.276Z" fill="#FCF0E8"/>
<path d="M170.426 69.9038C177.801 62.524 185.153 55.1202 192.528 47.7403C190.582 46.0336 189.573 45.2163 187.507 43.6538C180.684 51.4903 173.885 59.3269 167.062 67.1634C168.456 68.2211 169.129 68.774 170.45 69.9278L170.426 69.9038Z" fill="#FCF0E8"/>
<path d="M207.759 76.5144C209.705 75.601 210.666 75.1442 212.612 74.2308C209.369 67.4279 205.188 61.0337 200.143 55.3125C191.951 61.875 183.759 68.4375 175.567 75C176.744 76.3221 177.297 77.0192 178.354 78.4375C182.75 75.3846 184.96 73.8462 189.381 70.7933C192.047 74.351 193.248 76.274 195.339 80.3606C197.26 79.399 198.221 78.9183 200.143 77.9808C197.909 73.6058 196.636 71.5625 193.777 67.7644C196.227 66.0577 197.453 65.2163 199.927 63.5096C203.507 68.3173 205.116 70.9135 207.783 76.5385L207.759 76.5144Z" fill="#FCF0E8"/>
<path d="M207.567 99.5193C211.939 95.5289 214.029 93.3414 217.969 88.6779C217.056 85.3846 216.552 83.7741 215.375 80.6731C211.291 86.7067 206.558 92.3798 201.273 97.476C196.083 98.7019 193.489 99.3029 188.324 100.529C188.756 102.476 188.924 103.486 189.213 105.553C194.45 104.736 197.068 104.351 202.306 103.534C209.249 106.563 215.663 110.577 221.405 115.385V113.822C221.405 110.962 221.285 109.111 221.02 105.986C215.735 102.837 213.02 101.563 207.591 99.5433L207.567 99.5193Z" fill="#FCF0E8"/>
<path d="M188.275 100.529H188.299L188.275 100.505V100.529Z" fill="#FCF0E8"/>
<path d="M217.921 132.789C216.552 131.659 215.062 131.13 213.453 131.106C210.954 131.082 208.84 132.139 207.014 134.039C205.717 135.385 204.54 137.716 203.242 140.793C202.233 143.173 201.465 144.591 201.08 145.192C200.504 146.082 199.903 146.635 199.302 146.899C198.702 147.164 198.053 147.188 197.308 147.019C196.179 146.755 195.314 146.082 194.642 145.072C193.993 144.039 193.825 142.74 194.089 141.082C194.353 139.495 194.978 138.293 196.059 137.404C197.14 136.515 198.702 135.986 200.816 135.793C200.744 133.462 200.672 132.284 200.432 129.88C196.9 130.289 194.233 131.442 192.311 133.149C190.39 134.856 189.308 137.188 188.804 140.192C188.468 142.26 188.468 143.99 188.876 145.505C189.284 147.019 190.101 148.341 191.375 149.543C192.648 150.745 194.137 151.635 195.843 152.188C197.741 152.789 199.447 152.957 200.984 152.644C202.498 152.332 203.843 151.611 204.972 150.457C206.101 149.303 207.374 147.38 208.648 144.447C209.897 141.515 210.81 139.543 211.555 138.774C212.155 138.173 212.804 137.885 213.549 137.957C214.365 138.029 214.99 138.462 215.398 139.255C216.047 140.481 216.239 142.139 215.927 144.135C215.615 146.058 214.99 147.428 214.101 148.197C213.212 148.966 211.939 149.303 210.281 149.207C209.801 151.731 209.513 152.957 208.84 155.361C211.627 156.106 214.197 155.793 216.455 154.183C218.714 152.572 220.395 149.543 221.116 145.024C221.549 142.26 221.452 139.76 220.876 137.692C220.299 135.601 219.314 133.99 217.945 132.861L217.921 132.789Z" fill="#FCF0E8"/>
<path d="M204.972 172.236C197.333 168.149 189.693 164.087 182.053 160C181.14 161.49 180.636 162.188 179.627 163.582C186.93 168.149 194.258 172.692 201.561 177.26C199.447 180.12 198.294 181.466 195.891 184.038C197.549 185.313 198.366 185.938 200.023 187.212C205.837 180.529 210.257 173.918 214.221 166.226C212.251 165.409 211.266 165.024 209.297 164.207C207.759 167.572 206.894 169.183 204.996 172.236H204.972Z" fill="#FCF0E8"/>
<path d="M168.095 175.024C171.579 178.702 173.308 180.529 176.768 184.207C176.432 184.447 176.263 184.567 175.927 184.808C174.966 185.481 174.173 185.889 173.573 186.01C172.972 186.13 172.275 186.106 171.483 185.889C170.69 185.673 169.008 185.024 166.534 183.774C163.771 182.404 162.426 181.659 159.855 180.096C158.029 181.034 157.092 181.49 155.17 182.284C157.26 183.87 158.366 184.639 160.624 186.106C162.858 187.572 164.612 188.486 165.765 188.894C166.918 189.303 168.191 189.567 169.633 189.615C167.879 191.034 166.846 192.548 166.558 194.279C166.269 196.01 166.63 197.837 167.783 199.736C168.696 201.226 169.873 202.38 171.411 203.149C172.924 203.918 174.534 204.183 176.191 203.918C177.849 203.654 180.179 202.716 183.062 200.938C187.627 198.101 189.789 196.514 193.849 193.053C186.378 186.154 178.93 179.231 171.459 172.332C170.161 173.438 169.489 173.966 168.119 174.976L168.095 175.024ZM180.083 187.716C182.197 189.952 183.23 191.058 185.344 193.293C183.831 194.399 183.062 194.928 181.501 195.962C179.459 197.284 178.161 198.005 177.705 198.197C176.768 198.582 175.879 198.606 175.038 198.365C174.221 198.125 173.525 197.596 172.948 196.755C172.444 196.034 172.179 195.337 172.155 194.664C172.155 193.99 172.348 193.414 172.78 192.885C173.212 192.356 174.558 191.466 176.768 190C178.137 189.111 178.786 188.654 180.107 187.692L180.083 187.716Z" fill="#FCF0E8"/>
<path d="M149.645 187.981C146.714 186.13 143.855 185.577 140.708 186.178C137.585 186.803 135.351 188.365 133.669 191.154C131.987 193.918 131.122 197.572 131.507 202.139C131.891 206.755 133.453 210.312 136.576 212.644C139.675 214.952 143.831 215.769 148.564 214.832C151.182 214.327 153.345 213.413 155.026 212.187C156.276 211.274 157.285 210.096 158.005 208.654C158.726 207.211 159.086 205.697 159.11 204.135C159.134 202.019 158.462 199.615 157.188 196.947C155.218 192.74 152.6 189.832 149.645 188.005V187.981ZM152.384 206.394C151.471 208.317 149.693 209.591 147.17 210.096C144.648 210.601 142.414 210.096 140.612 208.75C138.81 207.38 137.705 205.048 137.201 201.803C136.672 198.534 136.936 196.01 137.873 194.207C138.81 192.404 140.155 191.37 142.005 190.986C143.855 190.625 145.609 191.058 147.411 192.332C149.212 193.606 150.75 195.745 151.927 198.798C153.128 201.923 153.321 204.447 152.408 206.37L152.384 206.394Z" fill="#FCF0E8"/>
<path d="M123.675 188.149C117.477 188.005 114.378 187.644 108.372 186.322C107.819 188.173 107.531 189.11 106.979 190.961C111.615 191.995 113.969 192.332 118.726 192.692C117.885 200.457 117.069 208.245 116.228 216.01C118.846 216.202 120.168 216.274 122.81 216.346C123.099 206.947 123.387 197.548 123.675 188.149Z" fill="#FCF0E8"/>
<path d="M91.0988 211.25C94.8226 202.404 98.5703 193.558 102.294 184.712C96.4802 182.909 93.6454 181.683 88.4562 178.702C87.231 180.312 86.6304 181.106 85.4052 182.716C89.4172 185.024 91.5313 186.034 95.9036 187.692C92.252 194.856 88.6004 201.995 84.9487 209.159C87.3511 210.072 88.5763 210.505 91.0748 211.274L91.0988 211.25Z" fill="#FCF0E8"/>
<path d="M80.1196 172.909C72.7442 179.904 65.3929 186.899 58.0176 193.918C59.9635 195.553 60.9725 196.322 63.0386 197.788C69.8614 190.36 76.6601 182.933 83.4829 175.505C82.0896 174.519 81.4169 173.99 80.0956 172.885L80.1196 172.909Z" fill="#FCF0E8"/>
<path d="M72.2157 164.808C67.8194 167.716 65.6092 169.159 61.1888 172.067C58.5221 168.702 57.3209 166.875 55.2308 163.005C53.3089 163.918 52.348 164.375 50.426 165.265C52.6603 169.399 53.9335 171.346 56.7924 174.952C54.3419 176.563 53.1167 177.38 50.6423 178.99C47.0627 174.447 45.4531 171.971 42.7864 166.635C40.8405 167.5 39.8795 167.933 37.9336 168.798C41.1768 175.24 45.357 181.298 50.402 186.707C58.5942 180.481 66.7863 174.279 74.9785 168.077C73.8013 166.827 73.2488 166.178 72.1917 164.832L72.2157 164.808Z" fill="#FCF0E8"/>
<path d="M49.321 146.779C54.5102 145.625 57.1048 145.048 62.2699 143.894C61.8375 142.043 61.6693 141.082 61.381 139.135C56.1438 139.904 53.5252 140.264 48.288 141.034C41.3451 138.173 34.9307 134.351 29.189 129.808V131.226C29.189 133.99 29.3091 135.721 29.5733 138.702C34.8586 141.683 37.5733 142.885 43.0027 144.808C38.6304 148.582 36.5403 150.649 32.6004 155.072C33.5133 158.197 34.0178 159.711 35.1949 162.644C39.279 156.923 44.0117 151.562 49.297 146.731L49.321 146.779Z" fill="#FCF0E8"/>
<path d="M137.417 103.389C136.696 102.957 135.783 103.221 135.399 103.99L134.534 105.649L129.032 103.534L129.489 102.668C129.873 101.923 129.609 100.961 128.888 100.529C128.167 100.096 127.255 100.36 126.846 101.106L126.149 102.428L119.447 99.8557L117.981 96.3701C117.645 95.5768 116.756 95.1922 116.011 95.5288C115.243 95.8653 114.906 96.7787 115.243 97.572L116.588 100.793L104.576 115.385L102.678 117.692C102.462 117.957 102.318 118.317 102.318 118.702V126.082C99.0024 123.702 94.8703 122.885 90.8823 123.942L84.0115 125.793L83.6511 122.404L88.9364 120.985C90.9064 120.457 92.564 119.159 93.573 117.308L94.606 115.409L97.561 110C98.5219 108.245 98.7862 106.154 98.3297 104.159V104.11L96.7442 98.2932L111.447 88.5816L112.6 91.298C112.936 92.0912 113.825 92.4759 114.57 92.1393C115.339 91.8028 115.675 90.8893 115.339 90.0961L110.942 79.6393C110.414 78.6778 109.669 78.4614 108.732 78.9182L92.6601 89.8557L80.9124 93.0047C76.8283 94.1105 74.4259 98.4855 75.5791 102.764L78.9665 115.385L80.6001 121.466L81.4649 129.808L83.8914 152.957C84.3959 157.836 89.1046 161.25 93.6211 160.048L119.471 153.125C120.264 152.909 120.744 152.067 120.504 151.226L119.231 146.466L123.17 145.409L130.282 149.735C130.618 149.952 131.05 150 131.411 149.904L164.924 140.913C171.122 139.255 175.471 135.12 177.585 129.808C179.29 125.553 179.555 120.529 178.161 115.385C178.161 115.336 178.137 115.264 178.113 115.216C176.984 112.115 174.245 109.303 171.218 108.197C170.426 107.909 169.585 108.341 169.32 109.159C169.056 109.976 169.489 110.865 170.281 111.154C172.179 111.851 173.933 113.51 174.87 115.385C174.966 115.577 175.11 115.769 175.182 115.985C172.251 124.495 165.212 127.524 157.693 129.808C156.852 130.072 155.987 130.312 155.122 130.577L144.288 132.187C144.167 131.394 144.191 130.601 144.288 129.832C144.648 126.25 146.882 123.149 149.861 121.37C150.173 121.154 150.414 120.817 150.486 120.433L151.543 115.409L151.711 114.663L164.492 111.25C165.284 111.034 165.765 110.192 165.525 109.351C165.284 108.51 164.468 108.005 163.675 108.221L150.486 111.755L144.96 109.639L145.2 108.918C145.489 108.125 145.08 107.211 144.288 106.899C143.519 106.586 142.654 106.995 142.366 107.788L142.101 108.558L137.345 106.755L137.969 105.529C138.354 104.784 138.089 103.822 137.345 103.389H137.417ZM108.9 82.548L110.198 85.6249L95.8553 95.0961L95.0144 91.9951L108.9 82.548ZM81.7052 96.0336L92.2517 93.197L93.1406 96.4422L78.2938 100.433C78.3899 98.3893 79.7112 96.5864 81.7292 96.0336H81.7052ZM78.8704 103.51L93.9574 99.4711L95.4229 104.856C95.7111 106.058 95.543 107.332 94.9424 108.389L91.1226 115.385L90.9544 115.697C90.3298 116.827 89.3448 117.62 88.1196 117.933L83.0746 119.279L82.0175 115.36L78.8463 103.485L78.8704 103.51ZM84.4439 129.808L84.3478 128.918L91.6991 126.947C95.3988 125.961 99.2427 127.067 102.029 129.808C102.27 130.048 102.51 130.264 102.726 130.505L110.51 139.615C103.471 144.976 95.4709 147.067 86.1496 145.961L84.4679 129.808H84.4439ZM141.14 111.466L139.963 114.808C139.891 115 139.867 115.192 139.891 115.385C139.891 116.01 140.276 116.586 140.876 116.827C141.717 117.115 142.366 116.827 142.798 115.937L142.99 115.385L143.975 112.548L148.708 114.351L148.492 115.385L147.699 119.062L146.906 119.591C143.519 121.899 141.501 125.721 141.26 129.808C141.212 130.721 141.212 131.659 141.333 132.596L128.528 134.495C127.711 134.615 127.158 135.409 127.303 136.25C127.447 137.115 128.216 137.692 129.032 137.572L155.723 133.63C159.591 133.053 163.555 131.779 167.086 129.784C170.786 127.716 174.005 124.856 176.119 121.202C176.191 124.279 175.423 127.211 174.053 129.784C172.131 133.413 168.96 136.298 164.9 137.62L164.468 136.034C164.251 135.192 163.411 134.687 162.618 134.904C161.825 135.12 161.345 135.961 161.585 136.803L162.017 138.413L152.936 140.841L152.504 139.231C152.287 138.389 151.447 137.885 150.654 138.101C149.861 138.317 149.381 139.159 149.621 140L150.053 141.61L140.972 144.038L140.54 142.428C140.324 141.586 139.483 141.082 138.69 141.298C137.897 141.514 137.417 142.356 137.657 143.197L138.089 144.808L131.17 146.659L124.059 142.332C123.723 142.115 123.291 142.067 122.93 142.163L116.948 143.774C116.155 143.99 115.675 144.832 115.915 145.673L117.189 150.433L111.11 152.067L110.678 150.457C110.462 149.615 109.621 149.11 108.828 149.327C108.035 149.543 107.555 150.385 107.795 151.226L108.228 152.836L99.1466 155.264L98.7141 153.654C98.4979 152.812 97.6571 152.308 96.8643 152.524C96.0715 152.74 95.591 153.582 95.8313 154.423L96.2637 156.034L92.8042 156.971C89.585 157.404 87.5911 155.961 86.8703 152.644L86.51 149.086C96.2637 150.12 105.777 147.524 113.441 141.25L122.81 138.726C123.603 138.51 124.083 137.668 123.843 136.827C123.627 135.985 122.786 135.481 121.993 135.697L113.201 138.053L106.113 129.76L105.369 128.87V119.279L108.612 115.336L118.87 102.885L124.756 105.12L122.642 109.135C122.258 109.88 122.522 110.841 123.243 111.274C124.083 111.659 124.756 111.466 125.285 110.697L127.639 106.226L133.164 108.341L131.555 111.466C131.17 112.211 131.435 113.173 132.179 113.606C133.02 113.99 133.693 113.798 134.197 113.005L136.047 109.447L141.212 111.418L141.14 111.466Z" fill="#FCF0E8"/>
<path d="M239.254 114.615C238.269 94.1105 231.831 75.0239 221.38 58.7259C212.467 44.8076 200.624 32.9566 186.714 24.0384C168.96 12.6441 147.891 6.00952 125.285 6.00952C104.456 6.00952 84.9244 11.6586 68.0836 21.4422C66.6421 22.2836 65.2488 23.1489 63.8554 24.0384C49.9455 32.9566 38.1017 44.8076 29.1888 58.7259C17.8015 76.4903 11.1709 97.572 11.1709 120.192C11.1709 142.812 17.8015 163.894 29.1888 181.659C38.1017 195.577 49.9455 207.428 63.8554 216.346C81.609 227.74 102.678 234.375 125.285 234.375C147.891 234.375 168.96 227.74 186.714 216.346C200.624 207.428 212.467 195.577 221.38 181.659C232.768 163.894 239.398 142.812 239.398 120.192C239.398 118.317 239.35 116.466 239.254 114.615ZM221.38 174.687C211.506 192.043 197.092 206.466 179.747 216.346C163.651 225.505 145.08 230.769 125.285 230.769C105.489 230.769 86.9183 225.505 70.8223 216.346C53.477 206.466 39.0627 192.043 29.1888 174.687C20.0357 158.582 14.7745 140 14.7745 120.192C14.7745 100.385 20.0357 81.7787 29.1888 65.697C39.0627 48.3413 53.477 33.9182 70.8223 24.0384C86.2216 15.2884 103.879 10.1201 122.714 9.68741C123.579 9.68741 124.42 9.61529 125.285 9.61529C145.08 9.61529 163.675 14.8797 179.747 24.0384C195.338 32.9086 208.551 45.4566 218.233 60.5047C219.314 62.2114 220.371 63.9182 221.38 65.673C230.533 81.7787 235.795 100.36 235.795 120.168C235.795 139.976 230.533 158.582 221.38 174.663V174.687Z" fill="#FCF0E8"/>
</g>
<defs>
<clipPath id="clip0_2141_120">
<rect width="245.404" height="250" fill="white"/>
</clipPath>
</defs>
</svg>
