<svg width="56" height="56" viewBox="0 0 56 56" fill="none" xmlns="http://www.w3.org/2000/svg" role="img" aria-label="Locatour">
<g clip-path="url(#clip0_2132_22)">
<path d="M0 7.36842C0 3.29896 3.29896 0 7.36842 0C11.4379 0 14.7368 3.29896 14.7368 7.36842C14.7368 9.52024 13.8145 11.4566 12.3435 12.8038C10.9108 14.1159 9.52937 15.7415 9.52937 17.6842C9.52937 19.627 10.9108 21.2526 12.3435 22.5647C13.8145 23.9118 14.7368 25.8482 14.7368 28C14.7368 30.1519 13.8145 32.0883 12.3435 33.4352C10.9108 34.7474 9.52937 36.3729 9.52937 38.3158C9.52937 40.2587 10.9107 41.8842 12.3435 43.1963C12.7342 43.5541 13.0862 43.9535 13.3925 44.3874C14.4263 45.8519 15.8914 47.203 17.6842 47.203C19.477 47.203 20.9422 45.8519 21.976 44.3874C23.31 42.4975 25.5109 41.2632 28 41.2632C30.4891 41.2632 32.6901 42.4975 34.0241 44.3874C35.0578 45.8519 36.5229 47.203 38.3158 47.203C40.1087 47.203 41.5738 45.8519 42.6075 44.3874C43.9414 42.4975 46.1422 41.2632 48.6316 41.2632C52.701 41.2632 56 44.5621 56 48.6316C56 52.701 52.701 56 48.6316 56C46.9109 56 45.3282 55.4102 44.0741 54.422C42.364 53.0741 40.4933 51.624 38.3158 51.624C36.1383 51.624 34.2676 53.0741 32.5572 54.422C31.3034 55.4102 29.7207 56 28 56C26.2795 56 24.6967 55.4102 23.4427 54.422C21.7325 53.0741 19.8616 51.624 17.6842 51.624C15.5068 51.624 13.6359 53.0741 11.9257 54.422C10.6717 55.4102 9.08895 56 7.36842 56C3.29896 56 0 52.701 0 48.6316C0 46.5283 0.881207 44.6308 2.29455 43.2883C3.72067 41.9337 5.10832 40.2829 5.10832 38.3158C5.10832 36.3487 3.72067 34.6979 2.29455 33.3433C0.881204 32.0008 0 30.1032 0 28C0 25.8968 0.881207 23.9994 2.29455 22.6568C3.72067 21.3022 5.10832 19.6511 5.10832 17.6842C5.10832 15.7173 3.72067 14.0663 2.29455 12.7116C0.881204 11.3691 0 9.47166 0 7.36842Z" fill="#7DCE96"/>
<path fill-rule="evenodd" clip-rule="evenodd" d="M20.6313 7.36842C20.6313 3.29896 23.9303 0 27.9998 0C30.202 0 32.1785 0.96615 33.529 2.49771C34.7976 3.93665 36.3971 5.31204 38.3156 5.31204C40.2337 5.31204 41.8335 3.93665 43.1021 2.49772C44.4523 0.96615 46.4291 0 48.6313 0C52.7008 0 55.9998 3.29896 55.9998 7.36842C55.9998 9.56073 55.0422 11.5294 53.5228 12.8792C52.0851 14.1563 50.7084 15.7611 50.7084 17.6842C50.7084 19.6073 52.0851 21.2121 53.5228 22.4892C55.0422 23.839 55.9998 25.8077 55.9998 28C55.9998 32.0694 52.7008 35.3684 48.6313 35.3684C46.7341 35.3684 45.0043 34.6513 43.6983 33.4736C42.1566 32.0833 40.3917 30.665 38.3156 30.665C36.2394 30.665 34.4743 32.0833 32.9325 33.4736C31.6265 34.6513 29.897 35.3684 27.9998 35.3684C23.9303 35.3684 20.6313 32.0694 20.6313 28C20.6313 25.9584 21.4617 24.1107 22.8031 22.7762C24.2199 21.3667 25.6161 19.6827 25.6161 17.6842C25.6161 15.6857 24.2199 14.0017 22.8031 12.5922C21.4617 11.2578 20.6313 9.41006 20.6313 7.36842ZM43.3886 12.5461C41.9877 11.1278 40.3089 9.73309 38.3156 9.73309C36.322 9.73309 34.6431 11.1278 33.2425 12.5461C33.1167 12.6735 32.9861 12.7963 32.8514 12.9143C31.4113 14.1751 30.037 15.7702 30.037 17.6842C30.037 19.5982 31.4113 21.1933 32.8514 22.4541C33.1895 22.7502 33.5004 23.0767 33.7796 23.4293C34.9305 24.8827 36.4617 26.2438 38.3156 26.2438C40.1695 26.2438 41.7006 24.8827 42.8516 23.4293C43.0443 23.1856 43.2524 22.9544 43.474 22.7371C44.8941 21.3455 46.2873 19.6724 46.2873 17.6842C46.2873 15.6961 44.8941 14.0229 43.474 12.6313C43.4455 12.6031 43.4169 12.5747 43.3886 12.5461Z" fill="#8141DC"/>
</g>
<defs>
<clipPath id="clip0_2132_22">
<rect width="56" height="56" fill="white"/>
</clipPath>
</defs>
</svg>
