<svg preserveAspectRatio="none" width="100%" height="100%" overflow="visible" style="display: block;" viewBox="0 0 180.474 35.043" fill="none" xmlns="http://www.w3.org/2000/svg">
<g id="Logo">
<g id="Group 15">
<g id="Group 8">
<path id="l" d="M49.3409 31.053C47.3663 31.053 45.8855 30.4976 44.8982 29.387C43.9109 28.2763 43.4173 26.8448 43.4173 25.0924V7.13667C43.4173 6.19877 43.7505 5.52003 44.4169 5.10045C45.108 4.68086 46.157 4.47107 47.5638 4.47107V24.9443C47.5638 25.8328 47.7489 26.4746 48.1191 26.8695C48.514 27.2397 49.1434 27.4248 50.0073 27.4248C50.9698 27.4248 51.846 27.1903 52.6358 26.7214C52.858 26.9188 53.0307 27.178 53.1541 27.4988C53.2775 27.795 53.3392 28.0912 53.3392 28.3874C53.3392 29.0784 52.9814 29.6955 52.2656 30.2385C51.5745 30.7815 50.5996 31.053 49.3409 31.053Z" fill="var(--fill-0, #2A2421)"/>
<g id="Locatour">
<g id="Vector">
<path d="M177.29 15.4667C175.859 15.4667 174.686 15.8739 173.773 16.6884C172.86 17.4782 172.403 18.4531 172.403 19.6131V28.3874C172.403 29.3253 172.058 30.004 171.366 30.4236C170.7 30.8432 169.663 31.053 168.257 31.053V15.1705C168.257 12.9738 169.577 11.8755 172.218 11.8755V14.0968C171.872 14.4917 171.589 14.8866 171.366 15.2816L171.552 15.4296C171.767 15.1111 171.989 14.814 172.218 14.5383C173.69 12.7631 175.43 11.8755 177.438 11.8755C178.425 11.8755 179.178 12.1347 179.696 12.653C180.215 13.1466 180.474 13.776 180.474 14.5411C180.474 15.1088 180.474 15.4667 180.474 15.4667C180.474 15.4667 178.401 15.4667 177.29 15.4667Z" fill="var(--fill-0, #2A2421)"/>
<path d="M172.218 14.0968C171.872 14.4917 171.589 14.8866 171.366 15.2816L171.552 15.4296C171.767 15.1111 171.989 14.814 172.218 14.5383V14.0968Z" fill="var(--fill-0, #2A2421)"/>
</g>
<path id="Vector_2" d="M163.606 27.758C163.606 28.8193 163.273 29.6338 162.607 30.2015C161.965 30.7691 160.978 31.053 159.645 31.053V28.3376C159.188 29.0055 158.621 29.4857 157.535 30.1274C156.473 30.7445 155.264 31.053 153.906 31.053C152.623 31.053 151.463 30.7691 150.426 30.2015C149.414 29.6091 148.625 28.807 148.057 27.795C147.489 26.7584 147.205 25.586 147.205 24.2779V14.5411C147.205 13.6032 147.539 12.9245 148.205 12.5049C148.896 12.0853 149.957 11.8755 151.389 11.8755V24.0188C151.389 25.0801 151.697 25.9192 152.314 26.5363C152.932 27.1286 153.845 27.4248 155.054 27.4248C156.362 27.4248 157.424 27.0299 158.238 26.2401C159.052 25.4503 159.46 24.463 159.46 23.2783V14.5411C159.46 13.6032 159.793 12.9245 160.459 12.5049C161.15 12.0853 162.199 11.8755 163.606 11.8755V27.758Z" fill="var(--fill-0, #2A2421)"/>
<path id="Vector_3" d="M136.11 31.053C134.531 31.053 133.099 30.7691 131.816 30.2015C130.557 29.6091 129.558 28.807 128.817 27.795C128.101 26.7831 127.743 25.6354 127.743 24.352V18.8727C127.743 17.5646 128.101 16.3799 128.817 15.3186C129.533 14.2573 130.52 13.4181 131.779 12.8011C133.062 12.184 134.506 11.8755 136.11 11.8755C137.715 11.8755 139.146 12.184 140.405 12.8011C141.688 13.4181 142.688 14.2573 143.404 15.3186C144.12 16.3799 144.477 17.5646 144.477 18.8727V24.352C144.477 25.6354 144.107 26.7831 143.367 27.795C142.651 28.807 141.651 29.6091 140.368 30.2015C139.109 30.7691 137.69 31.053 136.11 31.053ZM136.11 27.4618C137.419 27.4618 138.455 27.1657 139.22 26.5733C139.985 25.9563 140.368 25.1294 140.368 24.0928V19.0578C140.368 17.9718 139.985 17.0956 139.22 16.4292C138.455 15.7628 137.419 15.4296 136.11 15.4296C134.802 15.4296 133.766 15.7628 133.001 16.4292C132.235 17.0956 131.853 17.9718 131.853 19.0578V24.0928C131.853 25.1294 132.235 25.9563 133.001 26.5733C133.766 27.1657 134.802 27.4618 136.11 27.4618Z" fill="var(--fill-0, #2A2421)"/>
<path id="Vector_4" d="M121.884 31.0532C119.959 31.0532 118.528 30.4979 117.59 29.3872C116.677 28.2765 116.22 26.845 116.22 25.0926V15.3558H112.518C112.518 14.2945 112.728 13.5047 113.147 12.9864C113.567 12.4681 114.134 12.2089 114.85 12.2089H116.257V8.988C116.257 8.05011 116.59 7.37137 117.257 6.95179C117.948 6.5322 118.972 6.32241 120.329 6.32241V12.2089H125.253C125.253 13.3196 125.031 14.1217 124.587 14.6154C124.143 15.109 123.439 15.3558 122.477 15.3558H120.366V24.9445C120.366 25.8331 120.539 26.4748 120.885 26.8697C121.23 27.2399 121.835 27.425 122.699 27.425C123.563 27.425 125.92 27.425 125.92 27.425C125.92 27.425 125.92 28.0667 125.92 28.3876C125.92 29.0787 125.562 29.6957 124.846 30.2387C124.13 30.7817 123.143 31.0532 121.884 31.0532Z" fill="var(--fill-0, #2A2421)"/>
<g id="Vector_5">
<path d="M100.666 31.053C99.3579 31.053 98.1732 30.8062 97.1119 30.3125C96.0506 29.8189 95.2114 29.1031 94.5944 28.1652C93.9773 27.2274 93.6688 26.129 93.6688 24.8703C93.6688 23.5868 93.9897 22.4762 94.6314 21.5383C95.2978 20.5757 96.1987 19.8476 97.334 19.354C98.4694 18.8357 99.7405 18.5765 101.147 18.5765C102.977 18.5765 104.569 19.0841 105.923 20.0993C106.232 20.3305 106.528 20.588 106.812 20.8719L106.997 20.6868C106.553 20.2425 106.195 19.9217 105.923 19.7242V18.6876C105.923 17.6016 105.553 16.7501 104.812 16.1331C104.072 15.4913 103.035 15.1705 101.703 15.1705C100.518 15.1705 99.4813 15.405 98.5928 15.8739C97.7042 16.3182 96.0084 17.6417 96.0084 17.6417C96.0084 17.6417 95.5323 17.4288 95.1867 17.0586C94.8659 16.6884 94.7055 16.2935 94.7055 15.8739C94.7055 15.1581 95.0386 14.4917 95.705 13.8747C96.3714 13.2577 97.26 12.7764 98.3706 12.4308C99.506 12.0606 100.728 11.8755 102.036 11.8755C104.553 11.8755 106.503 12.4802 107.885 13.6896C109.292 14.8743 109.996 16.5033 109.996 18.5765V28.1652C109.996 29.1772 109.687 29.9176 109.07 30.3866C108.453 30.8308 107.466 31.053 106.108 31.053V29.461C106.553 29.0168 106.849 28.6959 106.997 28.4984L106.812 28.3504C106.585 28.605 106.351 28.8424 106.108 29.0626C105.504 29.6107 104.85 30.052 104.146 30.3866C103.184 30.8308 102.023 31.053 100.666 31.053ZM101.629 27.9431C102.986 27.9431 104.047 27.6716 104.812 27.1286C105.602 26.5856 105.997 25.8205 105.997 24.8333C105.997 23.846 105.602 23.0809 104.812 22.5379C104.047 21.9702 102.998 21.6864 101.666 21.6864C100.456 21.6864 99.4936 21.9702 98.7779 22.5379C98.0868 23.0809 97.7413 23.846 97.7413 24.8333C97.7413 25.8452 98.0868 26.6227 98.7779 27.1657C99.469 27.684 100.419 27.9431 101.629 27.9431Z" fill="var(--fill-0, #2A2421)"/>
<path d="M106.108 29.461C106.553 29.0168 106.849 28.6959 106.997 28.4984L106.812 28.3504C106.585 28.605 106.351 28.8424 106.108 29.0626V29.461Z" fill="var(--fill-0, #2A2421)"/>
<path d="M105.923 20.0993C106.232 20.3305 106.528 20.588 106.812 20.8719L106.997 20.6868C106.553 20.2425 106.195 19.9217 105.923 19.7242V20.0993Z" fill="var(--fill-0, #2A2421)"/>
</g>
<path id="Vector_6" d="M83.7481 31.053C82.1685 31.053 80.7617 30.7691 79.5276 30.2015C78.3182 29.6338 77.368 28.844 76.6769 27.832C76.0105 26.7954 75.6773 25.6354 75.6773 24.352V18.8727C75.6773 17.5152 76.0105 16.3058 76.6769 15.2445C77.368 14.1832 78.3182 13.3564 79.5276 12.764C80.737 12.1717 82.1192 11.8755 83.6741 11.8755C85.1303 11.8755 86.4261 12.0853 87.5614 12.5049C88.6968 12.9245 89.573 13.5168 90.19 14.282C90.8317 15.0224 91.1526 15.8739 91.1526 16.8365C91.1526 17.6016 90.8317 18.2063 90.19 18.6506C89.573 19.0701 89.1362 19.2112 88.1243 19.1372C87.7237 18.0413 87.3763 17.1944 86.6359 16.5033C85.8954 15.8122 84.9452 15.4667 83.7852 15.4667C82.6251 15.4667 81.6749 15.7999 80.9345 16.4663C80.194 17.1327 79.8238 17.9965 79.8238 19.0578V24.0928C79.8238 25.0801 80.194 25.8822 80.9345 26.4993C81.6996 27.1163 82.6745 27.4248 83.8592 27.4248C85.0192 27.4248 85.9695 27.0916 86.7099 26.4252C87.4504 25.7341 87.8415 24.8521 88.3389 23.7596C89.2027 23.7596 89.9062 23.9817 90.4491 24.426C90.9921 24.8456 91.2636 25.4009 91.2636 26.092C91.2636 27.0546 90.9428 27.9184 90.3011 28.6836C89.684 29.424 88.7955 30.004 87.6355 30.4236C86.5001 30.8432 85.2043 31.053 83.7481 31.053Z" fill="var(--fill-0, #2A2421)"/>
<path id="Vector_7" d="M64.5074 31.053C62.9278 31.053 61.4963 30.7691 60.2129 30.2015C58.9541 29.6091 57.9545 28.807 57.2141 27.795C56.4983 26.7831 56.1405 25.6354 56.1405 24.352V18.8727C56.1405 17.5646 56.4983 16.3799 57.2141 15.3186C57.9299 14.2573 58.9171 13.4181 60.1759 12.8011C61.4593 12.184 62.9032 11.8755 64.5074 11.8755C66.1117 11.8755 67.5433 12.184 68.802 12.8011C70.0854 13.4181 71.085 14.2573 71.8008 15.3186C72.5166 16.3799 72.8744 17.5646 72.8744 18.8727V24.352C72.8744 25.6354 72.5042 26.7831 71.7638 27.795C71.048 28.807 70.0484 29.6091 68.765 30.2015C67.5062 30.7691 66.0871 31.053 64.5074 31.053ZM64.5074 27.4618C65.8156 27.4618 66.8522 27.1657 67.6173 26.5733C68.3824 25.9563 68.765 25.1294 68.765 24.0928V19.0578C68.765 17.9718 68.3824 17.0956 67.6173 16.4292C66.8522 15.7628 65.8156 15.4296 64.5074 15.4296C63.1993 15.4296 62.1627 15.7628 61.3976 16.4292C60.6325 17.0956 60.2499 17.9718 60.2499 19.0578V24.0928C60.2499 25.1294 60.6325 25.9563 61.3976 26.5733C62.1627 27.1657 63.1993 27.4618 64.5074 27.4618Z" fill="var(--fill-0, #2A2421)"/>
</g>
</g>
<g id="Vector_8">
<path d="M0.473633 4.24631C0.473633 2.00314 2.29208 0.184692 4.53525 0.184692C6.77842 0.184692 8.59687 2.00314 8.59687 4.24631C8.59687 5.43243 8.08844 6.4998 7.27762 7.24237C6.48788 7.96563 5.72641 8.86169 5.72641 9.93258C5.72641 11.0035 6.48788 11.8995 7.27762 12.6228C8.08844 13.3654 8.59687 14.4327 8.59687 15.6188C8.59687 16.805 8.08844 17.8723 7.27762 18.6149C6.48788 19.3382 5.72641 20.2342 5.72641 21.3051C5.72641 22.376 6.48785 23.272 7.27759 23.9953C7.49296 24.1925 7.68698 24.4127 7.85582 24.6519C8.42569 25.4592 9.23329 26.204 10.2215 26.204C11.2097 26.204 12.0174 25.4592 12.5872 24.6518C13.3226 23.6101 14.5357 22.9298 15.9078 22.9298C17.2798 22.9298 18.493 23.6101 19.2283 24.6518C19.7982 25.4592 20.6058 26.204 21.594 26.204C22.5822 26.204 23.3899 25.4592 23.9597 24.6518C24.695 23.6101 25.9082 22.9298 27.2803 22.9298C29.5234 22.9298 31.3419 24.7482 31.3419 26.9914C31.3419 29.2346 29.5234 31.053 27.2803 31.053C26.3319 31.053 25.4594 30.728 24.7682 30.1832C23.8255 29.4402 22.7943 28.641 21.594 28.641C20.3938 28.641 19.3625 29.4402 18.4199 30.1832C17.7287 30.728 16.8562 31.053 15.9078 31.053C14.9594 31.053 14.0869 30.728 13.3957 30.1832C12.453 29.4402 11.4218 28.641 10.2215 28.641C9.02127 28.641 7.98999 29.4402 7.04733 30.1832C6.35611 30.728 5.48364 31.053 4.53525 31.053C2.29208 31.053 0.473633 29.2346 0.473633 26.9914C0.473633 25.832 0.959371 24.7861 1.73844 24.0461C2.52453 23.2994 3.28944 22.3893 3.28944 21.3051C3.28944 20.2209 2.52453 19.3108 1.73844 18.5641C0.959371 17.8241 0.473633 16.7782 0.473633 15.6188C0.473633 14.4595 0.959371 13.4136 1.73844 12.6736C2.52453 11.9269 3.28944 11.0168 3.28944 9.93258C3.28944 8.84836 2.52453 7.9383 1.73844 7.19159C0.959371 6.45155 0.473633 5.40566 0.473633 4.24631Z" fill="var(--fill-0, #2A2421)"/>
<path fill-rule="evenodd" clip-rule="evenodd" d="M11.8462 4.24631C11.8462 2.00314 13.6646 0.184692 15.9078 0.184692C17.1217 0.184692 18.2113 0.717254 18.9555 1.56148C19.6548 2.35465 20.5366 3.1128 21.594 3.1128C22.6514 3.1128 23.5333 2.35465 24.2325 1.56148C24.9768 0.717254 26.0663 0.184692 27.2803 0.184692C29.5234 0.184692 31.3419 2.00314 31.3419 4.24631C31.3419 5.45476 30.8141 6.53995 29.9765 7.28396C29.184 7.98793 28.4252 8.87255 28.4252 9.93258C28.4252 10.9926 29.184 11.8772 29.9765 12.5812C30.8141 13.3252 31.3419 14.4104 31.3419 15.6188C31.3419 17.862 29.5234 19.6805 27.2803 19.6805C26.2345 19.6805 25.2811 19.2853 24.5612 18.6361C23.7113 17.8697 22.7384 17.0878 21.594 17.0878C20.4497 17.0878 19.4767 17.8697 18.6269 18.6361C17.907 19.2853 16.9535 19.6805 15.9078 19.6805C13.6646 19.6805 11.8462 17.862 11.8462 15.6188C11.8462 14.4935 12.3039 13.475 13.0433 12.7394C13.8242 11.9624 14.5938 11.0342 14.5938 9.93258C14.5938 8.83099 13.8242 7.90271 13.0433 7.12579C12.3039 6.3902 11.8462 5.37171 11.8462 4.24631ZM24.3904 7.10035C23.6183 6.31855 22.6929 5.54977 21.594 5.54977C20.4952 5.54977 19.5698 6.31855 18.7976 7.10035C18.7283 7.17057 18.6564 7.23827 18.5821 7.3033C17.7883 7.99827 17.0308 8.87757 17.0308 9.93258C17.0308 10.9876 17.7884 11.8669 18.5821 12.5619C18.7685 12.7251 18.9398 12.905 19.0938 13.0994C19.7281 13.9005 20.5722 14.6508 21.594 14.6508C22.6159 14.6508 23.4599 13.9005 24.0943 13.0994C24.2007 12.9651 24.3153 12.8376 24.4376 12.7179C25.2203 11.9508 25.9883 11.0285 25.9883 9.93258C25.9883 8.83667 25.2203 7.91438 24.4376 7.14731C24.4217 7.13178 24.406 7.11613 24.3904 7.10035Z" fill="var(--fill-0, #2A2421)"/>
</g>
</g>
</g>
</svg>
