<svg width="249" height="250" viewBox="0 0 249 250" fill="none" xmlns="http://www.w3.org/2000/svg">
<g clip-path="url(#clip0_2141_191)">
<circle cx="128.171" cy="118.316" r="97.3268" fill="#64C8CB"/>
<path d="M203.065 213.953C200.616 215.898 198.096 217.723 195.528 219.452C193.271 220.989 190.967 222.478 188.615 223.847C183.598 226.777 178.39 229.323 173.037 231.46C164.372 234.942 155.323 237.392 146.106 238.809C141.977 239.433 137.825 239.866 133.672 240.058C129.88 240.226 126.063 240.226 122.223 240.058C118.358 239.866 114.494 239.505 110.629 238.929C104.845 238.088 99.084 236.792 93.3953 235.062C83.9141 232.181 74.649 228.098 65.7919 222.695C60.4873 219.476 55.5187 215.898 50.8861 212.008C47.8137 209.414 44.8854 206.7 42.125 203.866C39.3647 201.033 36.7484 198.079 34.3241 195.005C19.6823 176.633 10.8732 154.467 8.66496 131.484C8.47294 129.563 8.35292 127.642 8.25691 125.72C8.06489 121.878 8.06489 118.012 8.25691 114.145C8.35292 112.2 8.49694 110.279 8.68896 108.333C8.90499 106.124 9.19302 103.89 9.55307 101.681C10.1051 98.1028 10.8012 94.5485 11.6893 90.9942C14.5457 79.5389 19.1542 68.2997 25.611 57.6849C27.6273 54.3468 29.8115 51.1768 32.0918 48.1028C26.6672 53.9385 21.7466 60.4227 17.45 67.5072C-16.9462 124.183 1.05603 198.055 57.6789 232.517C110.989 264.938 179.518 250.889 216.098 201.873C212.018 206.268 207.673 210.303 203.065 213.977V213.953Z" fill="#2A2421"/>
<path d="M247.662 108.694C247.302 104.851 246.75 101.057 246.006 97.2862C243.822 85.975 240.005 74.976 234.677 64.6974C232.012 59.5581 228.964 54.5869 225.556 49.8319C224.428 48.2469 223.227 46.6859 222.003 45.1729C219.555 42.1229 216.963 39.145 214.202 36.3112C207.289 29.2267 199.393 22.8626 190.535 17.4832C137.225 -14.9376 68.6966 -0.888589 32.1161 48.1268C29.8359 51.1767 27.6516 54.3708 25.6353 57.7089C19.1786 68.3237 14.57 79.5629 11.7136 91.0182C10.8255 94.5485 10.1294 98.1268 9.57738 101.705C9.24134 103.914 8.9293 106.124 8.71328 108.357C8.52125 110.279 8.37724 112.224 8.28122 114.169C8.0892 118.036 8.0892 121.902 8.28122 125.744C8.37724 127.666 8.52125 129.587 8.68927 131.508C10.8975 154.491 19.6826 176.657 34.3484 195.029C36.7967 198.079 39.389 201.057 42.1494 203.89C44.9097 206.724 47.838 209.438 50.9104 212.032C55.519 215.898 60.5116 219.476 65.8162 222.719C74.6733 228.098 83.9384 232.205 93.4196 235.086C99.1083 236.816 104.869 238.088 110.654 238.953C114.518 239.529 118.383 239.889 122.247 240.082C126.064 240.274 129.88 240.274 133.697 240.082C137.873 239.889 142.026 239.457 146.13 238.833C155.347 237.44 164.396 234.99 173.061 231.484C178.414 229.323 183.623 226.777 188.639 223.871C190.991 222.502 193.296 221.013 195.552 219.476C198.12 217.747 200.641 215.922 203.089 213.977C207.674 210.303 212.042 206.268 216.123 201.873C217.467 200.408 218.787 198.919 220.083 197.382C221.739 195.413 223.323 193.348 224.86 191.234C226.924 188.425 228.916 185.519 230.764 182.469C244.758 159.438 250.087 133.597 247.686 108.694H247.662ZM238.517 148.967C238.373 149.52 238.181 150.048 238.037 150.6C237.581 152.209 237.101 153.818 236.597 155.427C236.405 156.004 236.213 156.58 236.021 157.157C235.277 159.294 234.509 161.407 233.645 163.521C233.597 163.641 233.549 163.761 233.501 163.857C232.877 165.37 232.205 166.859 231.508 168.324C231.388 168.588 231.268 168.876 231.148 169.14C230.476 170.533 229.756 171.926 229.036 173.295C228.868 173.631 228.7 173.967 228.532 174.304C227.62 176.009 226.66 177.69 225.652 179.347C224.644 181.004 223.587 182.637 222.507 184.246C222.315 184.534 222.099 184.822 221.907 185.11C220.995 186.407 220.083 187.704 219.147 188.953C218.979 189.169 218.787 189.385 218.619 189.625C217.611 190.946 216.603 192.243 215.547 193.492C215.474 193.564 215.402 193.636 215.33 193.732C202.177 209.366 185.159 221.109 165.74 227.834C165.668 227.834 165.62 227.882 165.548 227.882C163.892 228.458 162.236 228.987 160.556 229.491C158.924 229.971 157.291 230.403 155.635 230.812C155.491 230.836 155.371 230.884 155.227 230.932C153.211 231.412 151.195 231.844 149.154 232.229C148.362 232.373 147.594 232.493 146.802 232.637C145.578 232.829 144.378 233.021 143.154 233.189C142.146 233.333 141.137 233.453 140.129 233.549C139.193 233.646 138.257 233.718 137.321 233.814C136.145 233.91 134.945 234.006 133.769 234.078C133.36 234.078 132.952 234.078 132.52 234.126C131.032 234.174 129.52 234.27 128.032 234.27C126.952 234.27 125.896 234.198 124.839 234.15C123.903 234.126 122.967 234.102 122.031 234.054C120.711 233.982 119.391 233.886 118.095 233.766C117.231 233.694 116.39 233.597 115.55 233.501C113.006 233.213 110.486 232.853 107.989 232.397C107.365 232.277 106.741 232.205 106.117 232.06C104.941 231.82 103.765 231.532 102.589 231.268C101.533 231.028 100.5 230.764 99.4443 230.499C98.3642 230.211 97.2601 229.923 96.1799 229.611C94.8118 229.203 93.4676 228.77 92.1235 228.314C91.3074 228.026 90.4672 227.786 89.6511 227.474C87.6829 226.753 85.7147 225.985 83.7704 225.144C83.0503 224.832 82.3543 224.52 81.6342 224.183C80.122 223.511 78.6098 222.791 77.1216 222.022C76.4735 221.71 75.8255 221.374 75.2014 221.037C73.1131 219.933 71.0729 218.804 69.0326 217.579C15.2421 184.894 -1.89602 114.577 30.772 60.8309C31.084 60.3266 31.42 59.8223 31.7561 59.3179C32.4522 58.1892 33.1723 57.0605 33.8923 55.9798C34.2284 55.4755 34.6124 54.9712 34.9725 54.4668C35.7166 53.3861 36.4847 52.3055 37.2768 51.2728C37.5408 50.9126 37.8288 50.5763 38.1169 50.2161C39.029 49.0394 39.9411 47.8866 40.8772 46.7339C41.0212 46.5418 41.1892 46.3737 41.3573 46.2055C42.4614 44.9087 43.5655 43.6359 44.7177 42.4111C54.6069 31.7243 66.4163 23.1028 79.5939 16.9308C83.1944 15.2497 86.8908 13.7368 90.6833 12.4159C90.9233 12.3439 91.1393 12.2718 91.3794 12.1998C92.8675 11.6955 94.3557 11.2152 95.8679 10.7589C97.6201 10.2305 99.4203 9.75022 101.221 9.31794C103.021 8.88566 104.821 8.4774 106.621 8.14119C108.061 7.853 109.502 7.63687 110.942 7.42073C111.302 7.3727 111.638 7.30065 111.998 7.25262C132.232 4.29873 152.635 6.84436 171.429 14.6013C171.621 14.6734 171.813 14.7454 171.981 14.8175C173.397 15.4178 174.814 16.0422 176.206 16.7147C176.566 16.8828 176.902 17.0269 177.262 17.195C178.534 17.8194 179.806 18.4678 181.078 19.1402C181.534 19.3804 181.99 19.5965 182.422 19.8367C183.887 20.6292 185.327 21.4697 186.767 22.3343C186.983 22.4784 187.223 22.5744 187.439 22.7185C187.631 22.8386 187.823 22.9827 188.039 23.1028C189.479 23.9913 190.919 24.9039 192.312 25.8645C192.696 26.1287 193.056 26.4169 193.44 26.6811C194.64 27.5216 195.84 28.3621 197.016 29.2507C197.28 29.4668 197.544 29.683 197.832 29.8991C199.104 30.8597 200.353 31.8444 201.553 32.877C201.673 32.9731 201.769 33.0691 201.889 33.1652C218.859 47.4784 231.196 66.3304 237.557 87.8962C237.941 89.2411 238.301 90.586 238.637 91.9308C238.757 92.3631 238.877 92.7954 238.997 93.2276C239.117 93.708 239.189 94.1642 239.309 94.6446C239.621 95.9654 239.909 97.2862 240.173 98.6071C243.462 115.562 242.886 132.757 238.565 149.111L238.517 148.967Z" fill="#64C8CB"/>
<path d="M237.773 106.652C237.245 102.401 236.501 98.1507 235.469 93.924C228.484 65.2497 210.746 41.0182 185.567 25.6963C168.068 15.0335 148.386 9.58203 128.416 9.58203C125.991 9.58203 123.567 9.67809 121.143 9.8462C114.782 10.2785 108.397 11.2391 102.06 12.7761C73.4008 19.7645 49.1819 37.5119 33.868 62.704C2.23215 114.745 18.8422 182.853 70.8565 214.481C96.0596 229.803 125.727 234.414 154.363 227.401C183.022 220.413 207.241 202.666 222.555 177.473C235.613 155.98 240.845 131.244 237.797 106.652H237.773ZM178.342 157.156L144.425 212.968C143.369 214.697 141.137 215.226 139.433 214.193L39.5327 153.41C37.8045 152.353 37.2764 150.12 38.3086 148.415L46.8776 134.318C49.0619 130.74 58.9271 121.494 71.5046 129.131C72.1527 129.611 89.6268 140.154 90.3229 140.586C90.4429 140.658 90.5629 140.706 90.6589 140.778C93.4193 142.411 96.0596 143.54 98.6039 144.164C100.5 144.644 102.372 144.837 104.173 144.741C104.845 144.692 105.517 144.596 106.189 144.476C108.421 144.092 110.677 143.348 112.958 142.243C114.446 141.522 115.958 140.658 117.47 139.649L117.614 139.553C120.927 137.296 124.671 134.174 128.872 130.187C130.384 128.77 131.92 127.257 133.528 125.6C139.889 119.26 144.762 115.37 148.17 113.905C151.53 112.272 154.603 112.296 157.747 114.193C160.868 116.09 162.308 119.092 162.02 123.175C161.636 127.185 159.763 131.988 156.355 137.584C153.955 141.522 151.098 144.548 147.762 146.662C146.706 147.334 145.602 147.911 144.45 148.415C139.553 150.384 134.248 150.288 128.512 148.055C127.047 150.72 126.135 153.122 125.799 155.283C125.079 159.678 126.663 163.064 130.576 165.442C131.512 166.018 132.472 166.498 133.456 166.907C138.401 168.948 143.681 168.78 149.298 166.402C149.874 166.162 150.402 165.922 151.074 165.586C156.499 162.872 161.012 158.525 164.204 154.755C167.396 150.985 172.965 149.592 177.165 152.161C178.894 153.218 179.422 155.451 178.39 157.156H178.342ZM218.066 91.7866L209.497 105.884C207.313 109.462 197.448 118.708 184.87 111.071C184.222 110.591 166.748 100.048 166.052 99.6156C165.932 99.5436 165.812 99.4956 165.716 99.4235C162.956 97.7905 160.315 96.6618 157.771 96.0374C155.875 95.5571 154.003 95.3649 152.202 95.461C151.53 95.509 150.858 95.6051 150.186 95.7252C147.954 96.1094 145.698 96.8539 143.417 97.9586C141.929 98.679 140.417 99.5436 138.905 100.552L138.761 100.648C135.448 102.906 131.704 106.028 127.503 110.014C125.991 111.431 124.455 112.944 122.847 114.601C116.486 120.941 111.614 124.832 108.205 126.297C104.845 127.93 101.772 127.906 98.6519 126.009C95.5315 124.111 94.0914 121.109 94.3794 117.027C94.7634 113.016 96.6357 108.213 100.044 102.618C102.444 98.679 105.301 95.6531 108.637 93.5398C109.693 92.8673 110.797 92.291 111.95 91.7866C116.846 89.8174 122.151 89.9134 127.887 92.1469C129.352 89.4812 130.264 87.0796 130.6 84.9182C131.32 80.5234 129.736 77.1373 125.823 74.7597C124.887 74.1834 123.927 73.7031 122.943 73.2948C117.998 71.2535 112.718 71.4216 107.101 73.7991C106.525 74.0393 105.997 74.2794 105.325 74.6157C99.9001 77.3294 95.3875 81.6762 92.1951 85.4466C89.0027 89.217 83.4341 90.6099 79.2335 88.0402C77.5053 86.9836 76.9773 84.7501 78.0094 83.0451L111.926 27.2333C112.982 25.5042 115.214 24.9759 116.918 26.0085L216.842 86.7914C218.571 87.8481 219.099 90.0816 218.066 91.7866Z" fill="#64C8CB"/>
<path d="M116.221 62.8165C117.391 67.6207 122.297 70.5564 127.22 70.1477C132.144 69.739 138.425 69.8392 144.163 71.7731C144.876 72.0106 145.402 72.2311 145.996 72.4517C151.666 74.7591 155.519 78.3742 157.555 83.297C157.962 84.2816 158.301 85.3001 158.556 86.3696C159.624 90.8003 158.35 94.3149 154.75 96.9303C152.967 98.204 150.624 99.2912 147.721 100.124C145.227 94.505 141.561 90.6692 136.706 88.5992C135.535 88.1412 134.346 87.768 133.124 87.4967C129.27 86.6318 125.094 86.7348 120.629 87.8394C114.279 89.403 109.542 91.4584 106.434 94.0228C103.361 96.7229 102.24 99.847 103.104 103.395C103.969 106.943 106.125 109.132 109.673 110.371C113.119 111.745 119.332 112.423 128.296 112.454C130.588 112.437 132.778 112.453 134.832 112.503C140.621 112.655 145.46 113.112 149.415 113.841L149.585 113.875C151.384 114.214 153.065 114.672 154.61 115.232C157.003 116.063 159.125 117.132 160.975 118.439C161.535 118.829 162.079 119.236 162.588 119.677C163.929 120.883 165.083 122.342 166.118 124.023C167.475 126.263 168.544 128.928 169.341 132.035C169.375 132.171 169.409 132.273 169.443 132.408C169.63 133.206 174.531 153.017 174.65 153.815C178.126 168.092 191.657 168.547 195.732 167.561L211.759 163.652C213.728 163.176 214.917 161.207 214.425 159.254L186.765 45.6344C186.29 43.6991 184.321 42.4773 182.369 42.9701L118.922 58.4527C116.986 58.9285 115.763 60.8982 116.255 62.8504L116.221 62.8165Z" fill="#FCF0E8"/>
<path d="M41.9081 80.9498L69.5852 194.553C70.0601 196.488 72.0291 197.71 73.9816 197.217L137.429 181.735C139.364 181.259 140.587 179.289 140.095 177.337C138.925 172.533 134.02 169.597 129.096 170.006C124.173 170.414 117.891 170.314 112.153 168.38C111.44 168.143 110.914 167.922 110.32 167.702C104.65 165.394 100.797 161.779 98.7615 156.856C98.3543 155.872 98.015 154.853 97.7607 153.784C96.6923 149.353 97.9665 145.839 101.566 143.223C103.349 141.949 105.692 140.862 108.596 140.03C111.09 145.648 114.756 149.484 119.611 151.554C120.782 152.012 121.97 152.385 123.193 152.657C127.046 153.522 131.222 153.419 135.688 152.314C142.038 150.75 146.775 148.695 149.882 146.131C152.956 143.43 154.077 140.306 153.212 136.758C152.347 133.21 150.192 131.021 146.661 129.8C143.215 128.425 137.001 127.748 128.037 127.716C125.746 127.734 123.556 127.717 121.501 127.667C115.712 127.516 110.874 127.059 106.918 126.33L106.749 126.296C104.949 125.957 103.269 125.499 101.724 124.939C99.3302 124.108 97.2084 123.039 95.3582 121.732C94.7981 121.341 94.2549 120.934 93.7457 120.493C92.4049 119.288 91.2508 117.828 90.2156 116.148C88.8581 113.907 87.7892 111.242 86.9921 108.135C86.9582 108 86.9242 107.898 86.8903 107.762C86.7038 106.964 81.8025 87.1531 81.6839 86.3552C78.2073 72.0784 64.6767 71.6235 60.602 72.6093L44.5747 76.5181C42.6222 77.011 41.4163 78.9637 41.9081 80.9159L41.9081 80.9498Z" fill="#FCF0E8"/>
<path d="M239.261 94.5004C239.141 94.02 239.069 93.5397 238.949 93.0834C238.853 92.6512 238.709 92.2189 238.589 91.7866C238.253 90.4418 237.893 89.0969 237.509 87.752C231.172 66.2103 218.811 47.3342 201.841 33.021C201.721 32.9249 201.625 32.8289 201.505 32.7328C200.28 31.7242 199.032 30.7395 197.784 29.7549C197.52 29.5388 197.256 29.3226 196.968 29.1065C195.792 28.2179 194.592 27.3774 193.392 26.5369C193.008 26.2727 192.648 25.9845 192.263 25.7203C190.871 24.7837 189.431 23.8712 187.991 22.9586C187.799 22.8385 187.607 22.6944 187.391 22.5743C187.175 22.4302 186.935 22.3102 186.719 22.1901C185.279 21.3255 183.838 20.485 182.374 19.6925C181.918 19.4523 181.462 19.2362 181.03 18.996C179.758 18.3236 178.51 17.6752 177.214 17.0508C176.854 16.8827 176.518 16.7386 176.158 16.5705C174.765 15.9221 173.349 15.2737 171.933 14.6733C171.741 14.6012 171.549 14.5292 171.381 14.4571C152.587 6.70016 132.184 4.15453 111.95 7.10842C111.59 7.15645 111.254 7.2285 110.894 7.27653C109.453 7.49267 108.013 7.73282 106.573 7.99699C104.773 8.35722 102.973 8.74147 101.172 9.17375C99.3722 9.60602 97.5959 10.0863 95.8197 10.6147C94.3075 11.071 92.8193 11.5513 91.3312 12.0556C91.0911 12.1276 90.8751 12.1997 90.6351 12.2717C86.8426 13.5926 83.1462 15.1055 79.5457 16.7866C66.3681 22.9586 54.5587 31.6041 44.6695 42.2669C43.5173 43.5157 42.4132 44.7645 41.3091 46.0614C41.165 46.2535 40.997 46.4216 40.829 46.5897C39.8929 47.7184 38.9808 48.8952 38.0687 50.0719C37.7806 50.4322 37.4926 50.7684 37.2286 51.1286C36.4365 52.1853 35.6924 53.266 34.9243 54.3226C34.5642 54.827 34.2042 55.3073 33.8442 55.8356C33.1001 56.9163 32.404 58.045 31.7079 59.1737C31.3959 59.6781 31.0598 60.1824 30.7238 60.6867C-1.89621 114.577 15.2419 184.894 68.9604 217.555C70.9767 218.78 73.0409 219.933 75.1292 221.013C75.7773 221.35 76.4013 221.662 77.0494 221.998C78.5376 222.742 80.0498 223.463 81.562 224.159C82.2581 224.472 82.9781 224.808 83.6982 225.12C85.6425 225.96 87.6107 226.729 89.579 227.449C90.3951 227.738 91.2352 228.002 92.0513 228.29C93.3954 228.746 94.7396 229.179 96.1077 229.587C97.1879 229.899 98.268 230.211 99.3722 230.475C100.404 230.74 101.46 231.004 102.517 231.244C103.693 231.508 104.869 231.796 106.045 232.036C106.669 232.156 107.293 232.253 107.917 232.373C110.438 232.829 112.958 233.189 115.478 233.477C116.318 233.573 117.182 233.669 118.022 233.741C119.343 233.862 120.663 233.958 121.959 234.03C122.895 234.078 123.831 234.102 124.767 234.126C125.823 234.15 126.904 234.246 127.96 234.246C129.448 234.246 130.936 234.174 132.448 234.102C132.856 234.102 133.264 234.102 133.696 234.054C134.872 233.982 136.073 233.886 137.249 233.789C138.185 233.717 139.121 233.645 140.057 233.525C141.065 233.429 142.073 233.285 143.081 233.165C144.306 232.997 145.53 232.805 146.73 232.613C147.522 232.493 148.29 232.373 149.082 232.204C151.122 231.82 153.139 231.412 155.155 230.908C155.299 230.884 155.419 230.836 155.563 230.788C157.219 230.379 158.851 229.947 160.484 229.467C162.164 228.962 163.82 228.434 165.476 227.858C165.548 227.858 165.596 227.81 165.668 227.81C185.087 221.085 202.105 209.342 215.258 193.708C215.33 193.636 215.402 193.564 215.474 193.468C216.53 192.195 217.539 190.922 218.547 189.601C218.715 189.385 218.907 189.169 219.075 188.929C220.035 187.68 220.947 186.383 221.835 185.086C222.027 184.798 222.243 184.51 222.435 184.222C223.515 182.613 224.571 181.004 225.58 179.323C226.588 177.666 227.548 175.984 228.46 174.279C228.628 173.943 228.796 173.607 228.964 173.271C229.684 171.902 230.404 170.509 231.076 169.116C231.196 168.852 231.316 168.588 231.436 168.3C232.132 166.811 232.804 165.322 233.428 163.833C233.477 163.713 233.525 163.593 233.573 163.497C234.437 161.383 235.229 159.27 235.949 157.132C236.141 156.556 236.333 155.98 236.525 155.403C237.053 153.794 237.533 152.185 237.965 150.576C238.109 150.024 238.301 149.496 238.445 148.943C242.742 132.589 243.342 115.394 240.053 98.4389C239.789 97.118 239.501 95.7972 239.189 94.4763L239.261 94.5004ZM222.531 177.473C207.217 202.69 182.998 220.413 154.339 227.401C125.679 234.39 96.0357 229.803 70.8327 214.481C18.7943 182.853 2.20829 114.745 33.8442 62.704C49.158 37.4879 73.377 19.7645 102.036 12.7761C108.373 11.2391 114.758 10.2785 121.119 9.84618C123.543 9.67807 125.967 9.58201 128.392 9.58201C148.386 9.58201 168.045 15.0575 185.543 25.6963C210.746 41.0181 228.46 65.2496 235.445 93.924C236.477 98.1507 237.221 102.401 237.749 106.652C240.821 131.244 235.589 155.98 222.507 177.473H222.531Z" fill="#FCF0E8"/>
</g>
<defs>
<clipPath id="clip0_2141_191">
<rect width="248.214" height="250" fill="white"/>
</clipPath>
</defs>
</svg>
